#define t_32.xbm_width 32
#define t_32.xbm_height 32
static unsigned char t_32.xbm_bits[] = {
   0x00, 0x00, 0x00, 0x00, 0x00, 0x00, 0x00, 0x00, 0x00, 0x00, 0x00, 0x00,
   0x00, 0x70, 0x00, 0x00, 0x00, 0xa4, 0x00, 0x00, 0x00, 0x40, 0x01, 0x00,
   0x00, 0xc1, 0x02, 0x00, 0x00, 0xa0, 0x05, 0x00, 0x40, 0x50, 0x0a, 0x00,
   0x00, 0x28, 0x16, 0x00, 0x10, 0x14, 0x2d, 0x00, 0x00, 0x8a, 0x52, 0x00,
   0x14, 0x45, 0xb1, 0x00, 0xa0, 0xa2, 0x68, 0x01, 0x41, 0x51, 0x94, 0x02,
   0xa0, 0x28, 0x8a, 0x05, 0x14, 0x15, 0x45, 0x0b, 0x00, 0x8a, 0xa2, 0x14,
   0x10, 0x44, 0x51, 0x2c, 0x00, 0xa8, 0x28, 0x2a, 0x40, 0x50, 0x14, 0x15,
   0x00, 0x20, 0x8a, 0x0a, 0x00, 0x41, 0x45, 0x05, 0x00, 0x80, 0xa2, 0x02,
   0x00, 0x04, 0x51, 0x01, 0x00, 0x00, 0xaa, 0x00, 0x00, 0x10, 0x54, 0x00,
   0x00, 0x00, 0x28, 0x00, 0x00, 0x40, 0x14, 0x00, 0x00, 0x00, 0x0a, 0x00,
   0x00, 0x00, 0x07, 0x00, 0x00, 0x00, 0x00, 0x00};
