#define t_types_50.xbm_width 48
#define t_types_50.xbm_height 48
static unsigned char t_types_50.xbm_bits[] = {
   0x00, 0x00, 0x00, 0x00, 0x00, 0x00, 0x00, 0x00, 0x00, 0x00, 0x00, 0x00,
   0x00, 0x00, 0x3c, 0x00, 0x00, 0x00, 0x00, 0x00, 0x48, 0x00, 0x00, 0x00,
   0x00, 0x00, 0x91, 0x00, 0x00, 0x00, 0x00, 0x00, 0x20, 0x01, 0x00, 0x00,
   0x00, 0x40, 0x40, 0x02, 0x00, 0x00, 0x00, 0x00, 0xa0, 0x04, 0x00, 0x00,
   0x00, 0x10, 0x10, 0x09, 0x00, 0x00, 0x00, 0x00, 0x08, 0x12, 0x00, 0x00,
   0x00, 0x04, 0x04, 0x24, 0x00, 0x00, 0x00, 0x00, 0x02, 0x48, 0x00, 0x00,
   0x00, 0x01, 0x01, 0x90, 0x00, 0x00, 0x00, 0x80, 0x00, 0x20, 0x01, 0x00,
   0x40, 0x40, 0x00, 0x40, 0x02, 0x00, 0x00, 0x20, 0x00, 0x80, 0x04, 0x00,
   0x10, 0x10, 0xf8, 0x01, 0x09, 0x00, 0x00, 0x08, 0xfc, 0x03, 0x12, 0x00,
   0x14, 0x04, 0xfe, 0x07, 0x24, 0x00, 0x20, 0x02, 0x07, 0x07, 0x48, 0x00,
   0x41, 0x01, 0x07, 0x07, 0x90, 0x00, 0x80, 0x00, 0x07, 0x07, 0x20, 0x01,
   0x44, 0x01, 0x07, 0x07, 0x40, 0x02, 0x20, 0x02, 0x1f, 0x07, 0x80, 0x04,
   0x10, 0x04, 0x1e, 0x07, 0x00, 0x09, 0x00, 0x08, 0x1c, 0x0f, 0x00, 0x12,
   0x40, 0x10, 0x00, 0x1e, 0x00, 0x24, 0x00, 0x20, 0x00, 0x3c, 0x00, 0x48,
   0x00, 0x41, 0x00, 0x38, 0x00, 0x90, 0x00, 0x80, 0x00, 0x90, 0x00, 0x48,
   0x00, 0x04, 0x01, 0xc0, 0x01, 0x24, 0x00, 0x00, 0x02, 0xc0, 0x03, 0x12,
   0x00, 0x10, 0x04, 0x80, 0x01, 0x09, 0x00, 0x00, 0x08, 0x00, 0x80, 0x04,
   0x00, 0x40, 0x10, 0x00, 0x40, 0x02, 0x00, 0x00, 0x20, 0x00, 0x20, 0x01,
   0x00, 0x00, 0x41, 0x00, 0x90, 0x00, 0x00, 0x00, 0x80, 0x00, 0x48, 0x00,
   0x00, 0x00, 0x04, 0x01, 0x24, 0x00, 0x00, 0x00, 0x00, 0x02, 0x12, 0x00,
   0x00, 0x00, 0x10, 0x04, 0x09, 0x00, 0x00, 0x00, 0x00, 0x88, 0x04, 0x00,
   0x00, 0x00, 0x40, 0x50, 0x02, 0x00, 0x00, 0x00, 0x00, 0x20, 0x01, 0x00,
   0x00, 0x00, 0x00, 0x91, 0x00, 0x00, 0x00, 0x00, 0x00, 0x48, 0x00, 0x00,
   0x00, 0x00, 0x00, 0x3c, 0x00, 0x00, 0x00, 0x00, 0x00, 0x00, 0x00, 0x00};
