#define t_types_32.xbm_width 32
#define t_types_32.xbm_height 32
static unsigned char t_types_32.xbm_bits[] = {
   0x00, 0x00, 0x00, 0x00, 0x00, 0x00, 0x00, 0x00, 0x00, 0x00, 0x00, 0x00,
   0x00, 0x70, 0x00, 0x00, 0x00, 0xa4, 0x00, 0x00, 0x00, 0x40, 0x01, 0x00,
   0x00, 0xc1, 0x02, 0x00, 0x00, 0x20, 0x05, 0x00, 0x40, 0x10, 0x0a, 0x00,
   0x00, 0x08, 0x14, 0x00, 0x10, 0x04, 0x28, 0x00, 0x00, 0xe2, 0x51, 0x00,
   0x14, 0xf1, 0xa3, 0x00, 0xa0, 0x18, 0x43, 0x01, 0x41, 0x18, 0x83, 0x02,
   0xa0, 0x18, 0x03, 0x05, 0x14, 0x39, 0x03, 0x0a, 0x00, 0x32, 0x07, 0x14,
   0x10, 0x04, 0x0e, 0x28, 0x00, 0x08, 0x04, 0x28, 0x40, 0x10, 0x30, 0x14,
   0x00, 0x20, 0x30, 0x0a, 0x00, 0x41, 0x00, 0x05, 0x00, 0x80, 0x80, 0x02,
   0x00, 0x04, 0x41, 0x01, 0x00, 0x00, 0xa2, 0x00, 0x00, 0x10, 0x54, 0x00,
   0x00, 0x00, 0x28, 0x00, 0x00, 0x40, 0x14, 0x00, 0x00, 0x00, 0x0a, 0x00,
   0x00, 0x00, 0x07, 0x00, 0x00, 0x00, 0x00, 0x00};
