#define alt_32.xbm_width 32
#define alt_32.xbm_height 32
static unsigned char alt_32.xbm_bits[] = {
   0x00, 0x00, 0x00, 0x00, 0x00, 0x00, 0x00, 0x00, 0x00, 0x00, 0x00, 0x00,
   0x00, 0x00, 0x00, 0x00, 0x00, 0xe0, 0x00, 0x00, 0x00, 0x40, 0x01, 0x00,
   0x00, 0x88, 0x02, 0x00, 0x00, 0x00, 0x05, 0x00, 0x00, 0x82, 0x0a, 0x00,
   0x00, 0x40, 0x14, 0x00, 0x80, 0x20, 0x28, 0x00, 0x00, 0x10, 0x54, 0x00,
   0x00, 0x28, 0xa2, 0x00, 0x50, 0x44, 0x41, 0x01, 0x80, 0x82, 0xa0, 0x02,
   0x04, 0x41, 0x11, 0x05, 0x80, 0x22, 0x0a, 0x0a, 0x50, 0x14, 0x04, 0x15,
   0x00, 0x08, 0x8a, 0x2a, 0x40, 0x10, 0x51, 0x15, 0x00, 0xa0, 0xa0, 0x0a,
   0x00, 0x41, 0x50, 0x05, 0x00, 0x80, 0xa8, 0x02, 0x00, 0x04, 0x55, 0x01,
   0x00, 0x00, 0xaa, 0x00, 0x00, 0x10, 0x54, 0x00, 0x00, 0x00, 0x28, 0x00,
   0x00, 0x40, 0x14, 0x00, 0x00, 0x00, 0x0a, 0x00, 0x00, 0x00, 0x07, 0x00,
   0x00, 0x00, 0x00, 0x00, 0x00, 0x00, 0x00, 0x00};
