/* XPM */
static char *alt_32[] = {
/* width height ncolors chars_per_pixel */
"32 32 7 1",
/* colors */
"` c #000000",
"a c #D45F00",
"b c #AA0000",
"c c #2A7FFF",
"d c #808080",
"e c #FFFFFF",
"f c #FFFF00",
/* pixels */
"eeeeeeeeeeeeeeeeeeeeeeeeeeeeeeee",
"eeeeeeeeeeeeeeeeeeeeeeeeeeeeeeee",
"eeeeeeeeeeeeeeeeeeeeeeeeeeeeeeee",
"eeeeeeeeeeeeeeeeeeeeeeeeeeeeeeee",
"eeeeeeeeeeeee`ddeeeeeeeeeeeeeeee",
"eeeeeeeeeeeeff`ddeeeeeeeeeeeeeee",
"eeeeeeeeeeeffff`ddeeeeeeeeeeeeee",
"eeeeeeeeeeffffff`ddeeeeeeeeeeeee",
"eeeeeeeeeffffff`a`ddeeeeeeeeeeee",
"eeeeeeeeffffff`aaa`ddeeeeeeeeeee",
"eeeeeeeffffff`aaaaa`ddeeeeeeeeee",
"eeeeeeffffff`aaaaa`b`ddeeeeeeeee",
"eeeee`fffff`b`aaa`bbb`ddeeeeeeee",
"eeeeff`fff`bbb`a`bbbbb`ddeeeeeee",
"eeeffff`f`bbbbb`bbbbb`c`ddeeeeee",
"eeffffff`bbbbb`c`bbb`ccc`ddeeeee",
"eeeffff`f`bbb`ccc`b`ccccc`ddeeee",
"eeeeff`fff`b`ccccc`ccccc`a`ddeee",
"eeeee`fffff`ccccc`b`ccc`a`b`ddee",
"eeeeeeffffff`ccc`bbb`c`a`b`ddeee",
"eeeeeeeffffff`c`bbbbb`a`b`ddeeee",
"eeeeeeeeffffff`bbbbb`c`b`ddeeeee",
"eeeeeeeeeffffff`bbb`c`a`ddeeeeee",
"eeeeeeeeeeffffff`b`c`a`ddeeeeeee",
"eeeeeeeeeeeffffff`c`a`ddeeeeeeee",
"eeeeeeeeeeeeffffff`a`ddeeeeeeeee",
"eeeeeeeeeeeeeffffff`ddeeeeeeeeee",
"eeeeeeeeeeeeeeffff`ddeeeeeeeeeee",
"eeeeeeeeeeeeeeeff`ddeeeeeeeeeeee",
"eeeeeeeeeeeeeeee`ddeeeeeeeeeeeee",
"eeeeeeeeeeeeeeeeeeeeeeeeeeeeeeee",
"eeeeeeeeeeeeeeeeeeeeeeeeeeeeeeee"
};
