#define cse_32.xbm_width 32
#define cse_32.xbm_height 32
static unsigned char cse_32.xbm_bits[] = {
   0x00, 0x00, 0x00, 0x00, 0x00, 0xf8, 0x03, 0x00, 0x00, 0x50, 0x05, 0x00,
   0x00, 0xa2, 0x0a, 0x00, 0x00, 0x40, 0x15, 0x00, 0x80, 0xa0, 0x2a, 0x00,
   0x00, 0x10, 0x55, 0x00, 0x20, 0x08, 0xaa, 0x00, 0x00, 0x04, 0x55, 0x01,
   0x00, 0x8a, 0xa8, 0x02, 0x14, 0x51, 0x50, 0x05, 0xa0, 0x20, 0xa8, 0x0a,
   0x41, 0x50, 0x44, 0x15, 0xa0, 0x88, 0x82, 0x2a, 0x14, 0x05, 0x41, 0x55,
   0x00, 0x82, 0x22, 0xaa, 0x10, 0x44, 0x14, 0x55, 0x00, 0x28, 0x88, 0x2a,
   0x40, 0x10, 0x44, 0x15, 0x00, 0x20, 0xa2, 0x0a, 0x00, 0x41, 0x51, 0x05,
   0x00, 0x80, 0xa8, 0x02, 0x00, 0x04, 0x55, 0x01, 0x00, 0x00, 0xaa, 0x00,
   0x00, 0x10, 0x55, 0x00, 0x00, 0x80, 0x2a, 0x00, 0x00, 0xc0, 0x1f, 0x00,
   0x00, 0x00, 0x00, 0x00, 0x00, 0x00, 0x00, 0x00, 0x00, 0x00, 0x00, 0x00,
   0x00, 0x00, 0x00, 0x00, 0x00, 0x00, 0x00, 0x00};
