/* XPM */
static char* data_flow_diagrams_xpm[] = {
/* width height ncolors cpp [x_hot y_hot] */
"16 16 6 1 0 0",
/* colors */
".	m none	c none",
"X	m #000000	c #000000",
" 	m #ffffff	c #ffffff",
"O	m #000000	c #ffff00",
"o	m #000000	c #808080",
"x	m #ffffff	c #c0c0c0",
/* pixels */
"XXXXXXX.........",
"XOOOOOXo........",
"X XXX Xo........",
"XxX XxXo........",
"X XXX Xo........",
"Xx x xXo........",
"XXXXXXXo........",
".ooooooo..XX....",
"..X.....oX xXo..",
"..X.....X x xXo.",
"..X.X..X x x xX.",
"..XXXX.Xx x x Xo",
"....X...Xx x X.o",
"........oXx Xoo.",
".........oXXxoo.",
"...........oo..."};
