#define dfe_50.xbm_width 48
#define dfe_50.xbm_height 48
static unsigned char dfe_50.xbm_bits[] = {
   0x00, 0x0e, 0x00, 0x00, 0x00, 0x00, 0x00, 0x15, 0x00, 0x00, 0x00, 0x00,
   0x80, 0x28, 0x00, 0x00, 0x00, 0x00, 0x40, 0x50, 0x00, 0x00, 0x00, 0x00,
   0x20, 0xa2, 0x00, 0x00, 0x00, 0x00, 0x10, 0x45, 0x01, 0x00, 0x00, 0x00,
   0x88, 0x8a, 0x02, 0x00, 0x00, 0x00, 0x44, 0x11, 0x05, 0x00, 0x00, 0x00,
   0xa2, 0x20, 0x0a, 0x00, 0x00, 0x00, 0x71, 0x40, 0x14, 0x00, 0x00, 0x00,
   0xa2, 0x20, 0x0a, 0x00, 0x00, 0x00, 0x44, 0x11, 0x05, 0x00, 0x00, 0x00,
   0x88, 0x8a, 0x02, 0x00, 0x00, 0x00, 0x10, 0x45, 0x01, 0x00, 0x00, 0x00,
   0x20, 0xa2, 0x00, 0x00, 0x00, 0x00, 0x40, 0x50, 0x01, 0x00, 0x00, 0x00,
   0x80, 0x28, 0x02, 0x00, 0x00, 0x00, 0x00, 0x15, 0x04, 0x00, 0x00, 0x00,
   0x00, 0x0e, 0x08, 0x00, 0x00, 0x00, 0x00, 0x00, 0x10, 0x00, 0x00, 0x00,
   0x00, 0x00, 0x20, 0x00, 0x00, 0x00, 0x00, 0x00, 0x40, 0x00, 0x00, 0x00,
   0x00, 0x00, 0x80, 0x10, 0x00, 0x00, 0x00, 0x00, 0x00, 0x19, 0x00, 0x00,
   0x00, 0x00, 0x00, 0x16, 0xfe, 0x00, 0x00, 0x00, 0x00, 0x92, 0x01, 0x03,
   0x00, 0x00, 0x00, 0x51, 0x00, 0x04, 0x00, 0x00, 0x80, 0x3f, 0x00, 0x18,
   0x00, 0x00, 0x00, 0x10, 0x00, 0x10, 0x00, 0x00, 0x00, 0x08, 0x00, 0x20,
   0x00, 0x00, 0x00, 0x04, 0x00, 0x40, 0x00, 0x00, 0x00, 0x04, 0x00, 0x40,
   0x00, 0x00, 0x00, 0x02, 0x00, 0x80, 0x00, 0x00, 0x00, 0x02, 0x00, 0x80,
   0x00, 0x00, 0x00, 0x02, 0x00, 0x80, 0x00, 0x00, 0x00, 0x02, 0x00, 0x80,
   0x00, 0x00, 0x00, 0x02, 0x00, 0x80, 0x00, 0x00, 0x00, 0x02, 0x00, 0x80,
   0x00, 0x00, 0x00, 0x02, 0x00, 0x80, 0x00, 0x00, 0x00, 0x04, 0x00, 0x40,
   0x00, 0x00, 0x00, 0x04, 0x00, 0x40, 0x00, 0x00, 0x00, 0x08, 0x00, 0x20,
   0x00, 0x00, 0x00, 0x10, 0x00, 0x10, 0x00, 0x00, 0x00, 0x30, 0x00, 0x18,
   0x00, 0x00, 0x00, 0x40, 0x00, 0x04, 0x00, 0x00, 0x00, 0x80, 0x01, 0x03,
   0x00, 0x00, 0x00, 0x00, 0xfe, 0x00, 0x00, 0x00, 0x00, 0x00, 0x00, 0x00};
