#define dfe_32.xbm_width 32
#define dfe_32.xbm_height 32
static unsigned char dfe_32.xbm_bits[] = {
   0x80, 0x03, 0x00, 0x00, 0x40, 0x05, 0x00, 0x00, 0x20, 0x0a, 0x00, 0x00,
   0x90, 0x14, 0x00, 0x00, 0x48, 0x29, 0x00, 0x00, 0x24, 0x52, 0x00, 0x00,
   0x12, 0xa4, 0x00, 0x00, 0x24, 0x52, 0x00, 0x00, 0x48, 0x29, 0x00, 0x00,
   0x90, 0x14, 0x00, 0x00, 0x20, 0x0a, 0x00, 0x00, 0x40, 0x15, 0x00, 0x00,
   0x80, 0x23, 0x00, 0x00, 0x00, 0x40, 0x00, 0x00, 0x00, 0x80, 0x08, 0x00,
   0x00, 0x00, 0x0d, 0x00, 0x00, 0x00, 0xca, 0x07, 0x00, 0x00, 0x3d, 0x18,
   0x00, 0x80, 0x0f, 0x20, 0x00, 0x00, 0x04, 0x40, 0x00, 0x00, 0x04, 0x40,
   0x00, 0x00, 0x02, 0x80, 0x00, 0x00, 0x02, 0x80, 0x00, 0x00, 0x02, 0x80,
   0x00, 0x00, 0x02, 0x80, 0x00, 0x00, 0x02, 0x80, 0x00, 0x00, 0x04, 0x40,
   0x00, 0x00, 0x04, 0x40, 0x00, 0x00, 0x08, 0x20, 0x00, 0x00, 0x30, 0x18,
   0x00, 0x00, 0xc0, 0x07, 0x00, 0x00, 0x00, 0x00};
