#define fce_50.xbm_width 48
#define fce_50.xbm_height 48
static unsigned char fce_50.xbm_bits[] = {
   0x00, 0x00, 0x00, 0xe0, 0x00, 0x00, 0x00, 0x00, 0x00, 0x5c, 0x00, 0x00,
   0x00, 0x00, 0x80, 0xa3, 0x00, 0x00, 0x00, 0x00, 0x60, 0xa0, 0x00, 0x00,
   0x00, 0x00, 0x20, 0xa0, 0x00, 0x00, 0x00, 0x00, 0x10, 0x50, 0x00, 0x00,
   0x00, 0x00, 0x10, 0x50, 0x00, 0x00, 0x00, 0x00, 0x10, 0x50, 0x00, 0x00,
   0x00, 0x00, 0x08, 0x28, 0x00, 0x00, 0x00, 0x00, 0x08, 0x2c, 0x00, 0x00,
   0x00, 0x00, 0x88, 0x13, 0x00, 0x00, 0x00, 0x00, 0x74, 0x2c, 0x00, 0x00,
   0x00, 0x00, 0x8c, 0x43, 0x00, 0x00, 0x00, 0x78, 0x72, 0x80, 0x00, 0x00,
   0x00, 0x94, 0x01, 0x00, 0x01, 0x00, 0x00, 0xa2, 0x01, 0x00, 0x02, 0x70,
   0x00, 0x41, 0x02, 0x00, 0x04, 0xae, 0x80, 0x80, 0x04, 0x00, 0xc8, 0x51,
   0x40, 0x00, 0x09, 0x00, 0x30, 0x50, 0x20, 0x80, 0x04, 0x00, 0x10, 0x50,
   0x10, 0x40, 0x02, 0x00, 0x08, 0x28, 0x08, 0x20, 0x01, 0x00, 0x08, 0x28,
   0x04, 0x90, 0x00, 0x00, 0x08, 0x28, 0x02, 0x48, 0x00, 0x00, 0x04, 0x14,
   0x01, 0x24, 0x00, 0x00, 0x04, 0x16, 0x02, 0x32, 0x00, 0x00, 0xc4, 0x09,
   0x04, 0x49, 0x00, 0x00, 0x3a, 0x06, 0x88, 0x84, 0x00, 0x00, 0xc6, 0x01,
   0x50, 0x02, 0x01, 0x3c, 0x39, 0x00, 0xe0, 0x01, 0x02, 0xca, 0x00, 0x00,
   0x00, 0x00, 0x04, 0xd1, 0x00, 0x00, 0x00, 0x00, 0x88, 0x20, 0x01, 0x00,
   0x00, 0x00, 0x50, 0x40, 0x02, 0x00, 0x00, 0x00, 0x20, 0x80, 0x07, 0x00,
   0x00, 0x00, 0x10, 0x40, 0x02, 0x00, 0x00, 0x00, 0x08, 0x20, 0x01, 0x00,
   0x00, 0x00, 0x04, 0x90, 0x00, 0x00, 0x00, 0x00, 0x02, 0x48, 0x00, 0x00,
   0x00, 0x00, 0x01, 0x24, 0x00, 0x00, 0x00, 0x80, 0x00, 0x12, 0x00, 0x00,
   0x00, 0x00, 0x01, 0x09, 0x00, 0x00, 0x00, 0x00, 0x82, 0x04, 0x00, 0x00,
   0x00, 0x00, 0x44, 0x02, 0x00, 0x00, 0x00, 0x00, 0x28, 0x01, 0x00, 0x00,
   0x00, 0x00, 0xf0, 0x00, 0x00, 0x00, 0x00, 0x00, 0x00, 0x00, 0x00, 0x00,
   0x00, 0x00, 0x00, 0x00, 0x00, 0x00, 0x00, 0x00, 0x00, 0x00, 0x00, 0x00};
