#define fce_32.xbm_width 32
#define fce_32.xbm_height 32
static unsigned char fce_32.xbm_bits[] = {
   0x00, 0x00, 0x00, 0x00, 0x00, 0x00, 0x7c, 0x00, 0x00, 0x00, 0x53, 0x00,
   0x00, 0xc0, 0x50, 0x00, 0x00, 0x40, 0x28, 0x00, 0x00, 0x20, 0x28, 0x00,
   0x00, 0x20, 0x14, 0x00, 0x00, 0x10, 0x16, 0x00, 0x00, 0x90, 0x09, 0x00,
   0x00, 0x70, 0x16, 0x7c, 0x00, 0x8f, 0x21, 0x53, 0x80, 0x0a, 0xc0, 0x50,
   0x40, 0x14, 0x40, 0x28, 0x20, 0x28, 0x20, 0x28, 0x10, 0x14, 0x20, 0x14,
   0x08, 0x0a, 0x10, 0x16, 0x04, 0x05, 0x90, 0x09, 0x82, 0x02, 0x70, 0x06,
   0x44, 0x03, 0x8f, 0x01, 0xa8, 0x84, 0x0a, 0x00, 0x70, 0x48, 0x14, 0x00,
   0x00, 0x30, 0x28, 0x00, 0x00, 0x10, 0x14, 0x00, 0x00, 0x08, 0x0a, 0x00,
   0x00, 0x04, 0x05, 0x00, 0x00, 0x82, 0x02, 0x00, 0x00, 0x44, 0x01, 0x00,
   0x00, 0xa8, 0x00, 0x00, 0x00, 0x70, 0x00, 0x00, 0x00, 0x00, 0x00, 0x00,
   0x00, 0x00, 0x00, 0x00, 0x00, 0x00, 0x00, 0x00};
