/* XPM */
static char *fce_32[] = {
/* width height ncolors chars_per_pixel */
"32 32 6 1",
/* colors */
"` c #000000",
"a c #AA0000",
"b c #2A7FFF",
"c c #808080",
"d c #FFFFFF",
"e c #FFFF00",
/* pixels */
"dddddddddddddddddddddddddddddddd",
"dddddddddddddddddd``ccdddddddddd",
"dddddddddddddddd``bb`ccddddddddd",
"dddddddddddddd``bbbb`ccddddddddd",
"dddddddddddddd`bbbb`ccdddddddddd",
"ddddddddddddd`bbbbb`ccdddddddddd",
"ddddddddddddd`bbbb`ccddddddddddd",
"dddddddddddd`bbbb`accddddddddddd",
"dddddddddddd`bb``ccadddddddddddd",
"dddddddddddda``ccccdaddddd``ccdd",
"dddddddd`ccadddccddddadd``bb`ccd",
"ddddddd`e`acdddddddddda`bbbb`ccd",
"dddddd`eee`ccddddddddd`bbbb`ccdd",
"ddddd`eeeee`ccddddddd`bbbbb`ccdd",
"dddd`eeeee`ccdddddddd`bbbb`ccddd",
"ddd`eeeee`ccdddddddd`bbbb``ccddd",
"dd`eeeee`ccddddddddd`bb``cccdddd",
"d`eeeee`acdddddddddda``ccccddddd",
"dd`eee`ccadddddd`ccadddccddddddd",
"ddd`e`ccddadddd`e`acdddddddddddd",
"dddd`ccddddadd`eee`ccddddddddddd",
"dddddddddddda`eeeee`ccdddddddddd",
"dddddddddddd`eeeee`ccddddddddddd",
"ddddddddddd`eeeee`ccdddddddddddd",
"dddddddddd`eeeee`ccddddddddddddd",
"ddddddddd`eeeee`ccdddddddddddddd",
"dddddddddd`eee`ccddddddddddddddd",
"ddddddddddd`e`ccdddddddddddddddd",
"dddddddddddd`ccddddddddddddddddd",
"dddddddddddddddddddddddddddddddd",
"dddddddddddddddddddddddddddddddd",
"dddddddddddddddddddddddddddddddd"
};
