/* XPM */
static char* file_objects_xpm[] = {
/* width height ncolors cpp [x_hot y_hot] */
"16 16 5 1 0 0",
/* colors */
".	m none	c none",
"X	m #000000	c #000000",
" 	m #ffffff	c #ffffff",
"O	m #000000	c #808080",
"o	m #ffffff	c #c0c0c0",
/* pixels */
"...OOOOOOOOOO...",
"...O        OX..",
"...O oooooo O X.",
"...O        XXXo",
"...O     oo   Xo",
"...O          Xo",
"...O oooooooo Xo",
"...O          Xo",
"...O     oooo Xo",
"...O          Xo",
"...O oooooooo Xo",
"...O          Xo",
"...O     oooo Xo",
"...O          Xo",
"...XXXXXXXXXXXXo",
"....oooooooooooo"};
