/* XPM */
static char* final_state_l_cur_xpm[] = {
/* width height ncolors cpp [x_hot y_hot] */
"32 32 3 1 0 0",
/* colors */
".	m none	c none",
"X	m #000000	c #000000",
" 	m #ffffff	c #ffffff",
/* pixels */
"XX..............................",
"XXX.............................",
"XXXX............................",
"XXXXX...........................",
"XXXXXX..........................",
"XXXXXXX.........................",
"XXXXXXXX........................",
"XXXXXXXXX.......................",
"XXXXXXXXXX......................",
"XXXXXXXXXXX.....................",
"XXXXXXXXXXXX....................",
"XXXXXXXX........................",
"XXXXXXXX........................",
"XXX..XXXX........XXXXXX.........",
"XX...XXXX.......XXXXXXXX........",
"X.....XXXX.....XXX....XXX.......",
"......XXXX....XXX.XXXX.XXX......",
".......XXXX..XXX.XXXXXX.XXX.....",
".......XXXX..XX.XXXXXXXX.XX.....",
"........XX...XX.XXXXXXXX.XX.....",
".............XX.XXXXXXXX.XX.....",
".............XX.XXXXXXXX.XX.....",
".............XXX.XXXXXX.XXX.....",
"..............XXX.XXXX.XXX......",
"...............XXX....XXX.......",
"................XXXXXXXX........",
".................XXXXXX.........",
"................................",
"................................",
"................................",
"................................",
"................................"};
