/* XPM */
static char *pam_32[] = {
/* width height ncolors chars_per_pixel */
"32 32 7 1",
/* colors */
"` c #000000",
"a c #D45F00",
"b c #AA0000",
"c c #2A7FFF",
"d c #808080",
"e c #FFFFFF",
"f c #FFBF00",
/* pixels */
"eeeeeeeeeeeeeeeeeeeeeeeeeeeeeeee",
"eeeeeeeeeeeeeeeeeeeeeeeeeeeeeeee",
"eeeeeeeeeeeeeeeeeeeeeeeeeeeeeeee",
"eeeeeeeeeeeeeeeeeeeeeeeeeeeeeeee",
"eeeeeeeeeeeee`ddeeeeeeeeeeeeeeee",
"eeeeeeeeeeeebb`ddeeeeeeeeeeeeeee",
"eeeeeeeeeeebbbb`ddeeeeeeeeeeeeee",
"eeeeeeeeeebbbbbb`ddeeeeeeeeeeeee",
"eeeeeeeeebbbbbb`a`ddeeeeeeeeeeee",
"eeeeeeeebbbbbb`aaa`ddeeeeeeeeeee",
"eeeeeeebbbbbb`aaaaa`ddeeeeeeeeee",
"eeeeeebbbbbb`aaaaa`f`ddeeeeeeeee",
"eeeee`bbbbb`c`aaa`fff`ddeeeeeeee",
"eeeebb`bbb`ccc`a`fffff`ddeeeeeee",
"eeebbbb`b`ccccc`fffff`c`ddeeeeee",
"eebbbbbb`ccccc`a`fff`ccc`ddeeeee",
"eeebbbb`b`ccc`a`c`f`ccccc`ddeeee",
"eeeebb`bbb`c`a`c`a`ccccc`a`ddeee",
"eeeee`bbbbb`a`c`a`f`ccc`aaa`ddee",
"eeeeeebbbbbb`c`a`fff`c`aaa`ddeee",
"eeeeeeebbbbbb`a`fffff`aaa`ddeeee",
"eeeeeeeebbbbbb`fffff`aaa`ddeeeee",
"eeeeeeeeebbbbbb`fff`aaa`ddeeeeee",
"eeeeeeeeeebbbbbb`f`aaa`ddeeeeeee",
"eeeeeeeeeeebbbbbb`aaa`ddeeeeeeee",
"eeeeeeeeeeeebbbbbb`a`ddeeeeeeeee",
"eeeeeeeeeeeeebbbbbb`ddeeeeeeeeee",
"eeeeeeeeeeeeeebbbb`ddeeeeeeeeeee",
"eeeeeeeeeeeeeeebb`ddeeeeeeeeeeee",
"eeeeeeeeeeeeeeee`ddeeeeeeeeeeeee",
"eeeeeeeeeeeeeeeeeeeeeeeeeeeeeeee",
"eeeeeeeeeeeeeeeeeeeeeeeeeeeeeeee"
};
