#define sce_50.xbm_width 48
#define sce_50.xbm_height 48
static unsigned char sce_50.xbm_bits[] = {
   0x00, 0x00, 0x00, 0x00, 0x00, 0x00, 0x61, 0x00, 0x00, 0x00, 0x00, 0x00,
   0x72, 0x00, 0x00, 0x00, 0x00, 0x00, 0x74, 0x00, 0x00, 0x00, 0x00, 0x00,
   0x88, 0xe0, 0x00, 0x00, 0x00, 0x00, 0x10, 0x51, 0x01, 0x00, 0x00, 0x00,
   0x20, 0x88, 0x02, 0x00, 0x00, 0x00, 0x40, 0x04, 0x05, 0xc0, 0x0f, 0x00,
   0x80, 0x02, 0x0a, 0x20, 0x14, 0x00, 0x00, 0x01, 0x1c, 0x10, 0x28, 0x00,
   0x80, 0x00, 0x0a, 0x08, 0x28, 0x00, 0x40, 0x00, 0x05, 0x06, 0x28, 0x00,
   0x20, 0x80, 0xc2, 0x03, 0x28, 0x00, 0x10, 0x40, 0x39, 0x01, 0x14, 0x00,
   0x08, 0xa0, 0x87, 0x00, 0x0a, 0x00, 0x04, 0xd0, 0x40, 0x00, 0x05, 0x00,
   0x08, 0x68, 0x40, 0x80, 0x02, 0x00, 0x10, 0x54, 0x40, 0x40, 0x01, 0x00,
   0x20, 0x4a, 0x40, 0xa0, 0x00, 0x00, 0x40, 0x45, 0x80, 0x50, 0x00, 0x00,
   0x80, 0x4b, 0x0e, 0x3f, 0x00, 0x00, 0x00, 0x48, 0x15, 0x00, 0x00, 0x00,
   0x00, 0xdc, 0x28, 0x00, 0x00, 0x00, 0x00, 0x5c, 0x50, 0x00, 0x00, 0x00,
   0x00, 0x28, 0xa0, 0x00, 0x00, 0x00, 0x00, 0x10, 0xc0, 0x01, 0x00, 0x00,
   0x00, 0x08, 0xa0, 0x00, 0x00, 0x00, 0x00, 0x04, 0x50, 0x00, 0x00, 0x00,
   0x00, 0x02, 0x28, 0x00, 0x00, 0x00, 0x00, 0x01, 0x14, 0x00, 0x00, 0x00,
   0x80, 0x00, 0x0a, 0x00, 0x00, 0x00, 0x40, 0x00, 0x05, 0xfc, 0x00, 0x00,
   0x80, 0x80, 0x0a, 0x42, 0x01, 0x00, 0x00, 0x41, 0x11, 0x81, 0x02, 0x00,
   0x00, 0xa2, 0xa0, 0x80, 0x02, 0x00, 0x00, 0x54, 0x40, 0x80, 0x02, 0x00,
   0x00, 0x38, 0x20, 0x80, 0x02, 0x00, 0x00, 0x00, 0x10, 0x40, 0x01, 0x00,
   0x00, 0x00, 0x08, 0xa0, 0x00, 0x00, 0x00, 0x00, 0x04, 0x50, 0x00, 0x00,
   0x00, 0x00, 0x04, 0x28, 0x00, 0x00, 0x00, 0x00, 0x04, 0x14, 0x00, 0x00,
   0x00, 0x00, 0x04, 0x0a, 0x00, 0x00, 0x00, 0x00, 0x08, 0x05, 0x00, 0x00,
   0x00, 0x00, 0xf0, 0x03, 0x00, 0x00, 0x00, 0x00, 0x00, 0x00, 0x00, 0x00,
   0x00, 0x00, 0x00, 0x00, 0x00, 0x00, 0x00, 0x00, 0x00, 0x00, 0x00, 0x00};
