/* XPM */
static char* sceselection_xpm[] = {
/* width height ncolors cpp [x_hot y_hot] */
"16 16 4 1 0 0",
/* colors */
".	m none	c none",
"X	m #000000	c #000000",
" 	m #ffffff	c #ffffff",
"O	m #000000	c #808000",
/* pixels */
"................",
"................",
"................",
".......X........",
"......XXX.......",
"....XXXXXXX.....",
"..XXXXXXXXXXX...",
"XXXXXXXXXXXXXXXO",
"..XXXXXXXXXXX   ",
"....XXXXXXX   ..",
"......XXX   ....",
".......X  ......",
"........ .......",
"................",
"................",
"................"};
