/* XPM */
static char *sedir_32[] = {
/* width height ncolors chars_per_pixel */
"32 32 5 1",
/* colors */
"` c #000000",
"a c #808080",
"b c #AA7F00",
"c c #FFFFFF",
"d c #FFFF00",
/* pixels */
"cccccccccccccccccccccccccccccccc",
"cccccccccccccccccccccccccccccccc",
"cccccccccccccccccccccccccccccccc",
"cccccccccccccccccccccccccccccccc",
"cccccccccccccccccccccccccccccccc",
"cccccccccccccccccccccccccccccccc",
"cccccc```````````````ccccccccccc",
"ccccc`d`bbbbbbb`aaddaacccccccccc",
"cccc`ddd`bbbbb`d`aaddaaccccccccc",
"ccc`ddddd`bbb`ddd`aaddaacccccccc",
"cc`ddddddd`b`ddddd`aaddaaccccccc",
"c`ddddddddd`ddddddd`aaddaacccccc",
"`ddddddddddddddddddd`aaddaaccccc",
"c`ddddddddddddddddddd`aaddaacccc",
"cc`ddddddddddddddddddd`aaddaaccc",
"ccc`ddddddddddddddddddd`aaddaacc",
"cccc`ddddddddddddddddddd`aaddaac",
"ccccc`ddddddddddddddddddd```````",
"cccccc`ddddddddddddddddd`aaddaac",
"ccccccc`ddddddddddddddd`aaddaacc",
"cccccccc`ddddddddddddd`aaddaaccc",
"ccccccccc`ddddddddddd`aaddaacccc",
"cccccccccc`ddddddddd`aaddaaccccc",
"ccccccccccc`ddddddd`aaddaacccccc",
"cccccccccccc`ddddd`aaddaaccccccc",
"ccccccccccccc`ddd`aaddaacccccccc",
"cccccccccccccc`d`aaddaaccccccccc",
"ccccccccccccccc```````cccccccccc",
"cccccccccccccccccccccccccccccccc",
"cccccccccccccccccccccccccccccccc",
"cccccccccccccccccccccccccccccccc",
"cccccccccccccccccccccccccccccccc"
};
