#define sefile_32.xbm_width 32
#define sefile_32.xbm_height 32
static unsigned char sefile_32.xbm_bits[] = {
   0x00, 0x00, 0x00, 0x00, 0x00, 0x00, 0x00, 0x00, 0x00, 0x00, 0x00, 0x00,
   0x00, 0x00, 0x00, 0x00, 0x00, 0x00, 0x00, 0x00, 0x00, 0x00, 0x00, 0x00,
   0x00, 0xff, 0x07, 0x00, 0x80, 0x02, 0x0a, 0x00, 0x40, 0x04, 0x15, 0x00,
   0x20, 0x88, 0x28, 0x00, 0x10, 0x50, 0x50, 0x00, 0x08, 0x20, 0xa0, 0x00,
   0x04, 0x00, 0x40, 0x01, 0x08, 0x00, 0x80, 0x02, 0x10, 0x00, 0x00, 0x05,
   0x20, 0x00, 0x00, 0x0a, 0x40, 0x00, 0x00, 0x14, 0x80, 0x00, 0x00, 0x28,
   0x00, 0x01, 0x00, 0x14, 0x00, 0x02, 0x00, 0x0a, 0x00, 0x04, 0x00, 0x05,
   0x00, 0x08, 0x80, 0x02, 0x00, 0x10, 0x40, 0x01, 0x00, 0x20, 0xa0, 0x00,
   0x00, 0x40, 0x50, 0x00, 0x00, 0x80, 0x28, 0x00, 0x00, 0x00, 0x15, 0x00,
   0x00, 0x00, 0x0e, 0x00, 0x00, 0x00, 0x00, 0x00, 0x00, 0x00, 0x00, 0x00,
   0x00, 0x00, 0x00, 0x00, 0x00, 0x00, 0x00, 0x00};
