/* XPM */
static char *sefile_32[] = {
/* width height ncolors chars_per_pixel */
"32 32 5 1",
/* colors */
"` c #000000",
"a c #808080",
"b c #AA7F00",
"c c #FFFFFF",
"d c #FFFF00",
/* pixels */
"cccccccccccccccccccccccccccccccc",
"cccccccccccccccccccccccccccccccc",
"cccccccccccccccccccccccccccccccc",
"cccccccccccccccccccccccccccccccc",
"cccccccccccccccccccccccccccccccc",
"cccccccccccccccccccccccccccccccc",
"cccccccc``````````accccccccccccc",
"ccccccc`d`bbbbbbb`aacccccccccccc",
"cccccc`ddd`bbbbb`d`aaccccccccccc",
"ccccc`ddddd`bbb`ddd`aacccccccccc",
"cccc`ddddddd`b`ddddd`aaccccccccc",
"ccc`ddddddddd`ddddddd`aacccccccc",
"cc`ddddddddddddddddddd`aaccccccc",
"ccc`ddddddddddddddddddd`aacccccc",
"cccc`ddddddddddddddddddd`aaccccc",
"ccccc`ddddddddddddddddddd`aacccc",
"cccccc`ddddddddddddddddddd`aaccc",
"ccccccc`ddddddddddddddddddd`aacc",
"cccccccc`ddddddddddddddddd`aaccc",
"ccccccccc`ddddddddddddddd`aacccc",
"cccccccccc`ddddddddddddd`aaccccc",
"ccccccccccc`ddddddddddd`aacccccc",
"cccccccccccc`ddddddddd`aaccccccc",
"ccccccccccccc`ddddddd`aacccccccc",
"cccccccccccccc`ddddd`aaccccccccc",
"ccccccccccccccc`ddd`aacccccccccc",
"cccccccccccccccc`d`aaccccccccccc",
"ccccccccccccccccc`aacccccccccccc",
"cccccccccccccccccccccccccccccccc",
"cccccccccccccccccccccccccccccccc",
"cccccccccccccccccccccccccccccccc",
"cccccccccccccccccccccccccccccccc"
};
