/* XPM */
static char* state_transition_tables_xpm[] = {
/* width height ncolors cpp [x_hot y_hot] */
"16 16 7 1 0 0",
/* colors */
".	m none	c none",
"X	m #000000	c #000000",
" 	m #ffffff	c #ffffff",
"O	m #000000	c #808080",
"o	m #ffffff	c #c0c0c0",
"x	m #000000	c #ff0000",
"+	m #000000	c #00ffff",
/* pixels */
"XXXXXXXXXXXXXXX.",
"XOoOOOOOOXoOOOXo",
"XXXXXXXXXXXXXXXo",
"XOo           Xo",
"XOo     XXXX  Xo",
"XOo XXXXXxxX  Xo",
"XOo X   XXXX  Xo",
"XOo X         Xo",
"XOo X         Xo",
"XOo X X XXXX  Xo",
"XOo XXXXX++X  Xo",
"XOo   X XXXX  Xo",
"XOo           Xo",
"XOo           Xo",
"XXXXXXXXXXXXXXXo",
".ooooooooooooooo"};
