#define ste_50.xbm_width 48
#define ste_50.xbm_height 48
static unsigned char ste_50.xbm_bits[] = {
   0x00, 0x00, 0x00, 0x00, 0x00, 0x00, 0x00, 0x00, 0x00, 0x00, 0x00, 0x00,
   0x00, 0x00, 0x00, 0x00, 0x00, 0x00, 0x00, 0x00, 0x00, 0x00, 0x00, 0x00,
   0x00, 0x00, 0x1c, 0x00, 0x00, 0x00, 0x00, 0x00, 0x2a, 0x00, 0x00, 0x00,
   0x00, 0x00, 0x51, 0x00, 0x00, 0x00, 0x00, 0x80, 0xa0, 0x00, 0x00, 0x00,
   0x00, 0x40, 0x40, 0x01, 0x00, 0x00, 0x00, 0x20, 0x80, 0x03, 0x00, 0x00,
   0x00, 0x10, 0x40, 0x01, 0x00, 0x00, 0x00, 0x08, 0xa0, 0x00, 0x00, 0x00,
   0x00, 0x04, 0x50, 0x00, 0x00, 0x00, 0x00, 0x02, 0x28, 0x00, 0x00, 0x00,
   0x00, 0x01, 0x14, 0x00, 0x00, 0x00, 0x80, 0x00, 0x0a, 0x00, 0x00, 0x00,
   0x00, 0x01, 0x15, 0x00, 0x00, 0x00, 0x00, 0x82, 0x22, 0x00, 0x00, 0x00,
   0xe0, 0x47, 0x41, 0x00, 0x00, 0x00, 0x00, 0xab, 0x80, 0x00, 0x00, 0x00,
   0x80, 0x72, 0x00, 0x01, 0x00, 0x00, 0x40, 0x02, 0x00, 0x02, 0x00, 0x00,
   0x20, 0x02, 0x00, 0x84, 0x70, 0x00, 0x10, 0x00, 0x00, 0x88, 0xa8, 0x00,
   0x20, 0x00, 0x00, 0x90, 0x44, 0x01, 0x40, 0x00, 0x00, 0xa0, 0x82, 0x02,
   0x80, 0x00, 0x00, 0xc0, 0x01, 0x05, 0x00, 0x01, 0x00, 0xfc, 0x00, 0x0e,
   0x00, 0x02, 0x00, 0x40, 0x00, 0x05, 0x00, 0x04, 0x00, 0x20, 0x80, 0x02,
   0x00, 0x08, 0x00, 0x10, 0x40, 0x01, 0x00, 0x10, 0x00, 0x08, 0xa0, 0x00,
   0x00, 0x20, 0x00, 0x04, 0x50, 0x00, 0x00, 0x40, 0x00, 0x02, 0x28, 0x00,
   0x00, 0x80, 0x00, 0x04, 0x14, 0x00, 0x00, 0x00, 0x01, 0x08, 0x0a, 0x00,
   0x00, 0x00, 0x02, 0x18, 0x05, 0x00, 0x00, 0x00, 0x04, 0xa4, 0x02, 0x00,
   0x00, 0x00, 0x08, 0xc2, 0x01, 0x00, 0x00, 0x00, 0x10, 0x01, 0x00, 0x00,
   0x00, 0x00, 0xa0, 0x00, 0x00, 0x00, 0x00, 0x00, 0x40, 0x00, 0x00, 0x00,
   0x00, 0x00, 0x00, 0x00, 0x00, 0x00, 0x00, 0x00, 0x00, 0x00, 0x00, 0x00,
   0x00, 0x00, 0x00, 0x00, 0x00, 0x00, 0x00, 0x00, 0x00, 0x00, 0x00, 0x00,
   0x00, 0x00, 0x00, 0x00, 0x00, 0x00, 0x00, 0x00, 0x00, 0x00, 0x00, 0x00};
