/* XPM */
static char *ste_32[] = {
/* width height ncolors chars_per_pixel */
"32 32 6 1",
/* colors */
"` c #000000",
"a c #AA0000",
"b c #808080",
"c c #2A1FFF",
"d c #FFFFFF",
"e c #2A7FAA",
/* pixels */
"dddddddddddddddddddddddddddddddd",
"dddddddddddddddddddddddddddddddd",
"dddddddddddddddddddddddddddddddd",
"ddddddddddddd`bbdddddddddddddddd",
"dddddddddddd`e`bbddddddddddddddd",
"ddddddddddd`eee`bbdddddddddddddd",
"dddddddddd`eeeee`bbddddddddddddd",
"ddddddddd`eeeee`bbdddddddddddddd",
"dddddddd`eeeee`bbddddddddddddddd",
"ddddddd`eeeee`bbdddddddddddddddd",
"dddddd`eeeee`abddddddddddddddddd",
"ddddddd`eee`bbaddddddddddddddddd",
"ddddaaaa`e`bbddadddddddddddddddd",
"ddddddaad`bbddddaddddddddddddddd",
"dddddadadddddddddaddaddd`bbddddd",
"ddddaddaddddddddddadadd`c`bbdddd",
"dddadddddddddddddddaad`ccc`bbddd",
"ddddaddddddddddddaaaa`ccccc`bbdd",
"dddddadddddddddddddd`ccccc`bbddd",
"ddddddadddddddddddd`ccccc`bbdddd",
"dddddddadddddddddd`ccccc`bbddddd",
"ddddddddadddddddd`ccccc`bbdddddd",
"dddddddddadddddddd`ccc`bbddddddd",
"ddddddddddaddddddda`c`bbdddddddd",
"dddddddddddadddddadd`bbddddddddd",
"ddddddddddddadddaddddddddddddddd",
"dddddddddddddadadddddddddddddddd",
"ddddddddddddddaddddddddddddddddd",
"dddddddddddddddddddddddddddddddd",
"dddddddddddddddddddddddddddddddd",
"dddddddddddddddddddddddddddddddd",
"dddddddddddddddddddddddddddddddd"
};
