#define ste_32m_width 32
#define ste_32m_height 32
static char ste_32m_bits[] = {
 0x00,0x00,0x00,0x00,0x00,0x00,0x00,0x00,0x00,0x00,0x00,0x00,0x00,0xe0,0x00,
 0x00,0x00,0xf0,0x01,0x00,0x00,0xf8,0x03,0x00,0x00,0xfc,0x07,0x00,0x00,0xfe,
 0x03,0x00,0x00,0xff,0x01,0x00,0x80,0xff,0x00,0x00,0xc0,0x7f,0x00,0x00,0x80,
 0x7f,0x00,0x00,0xf0,0x9f,0x00,0x00,0xc0,0x0e,0x01,0x00,0xa0,0x00,0x12,0x07,
 0x90,0x00,0x94,0x0f,0x08,0x00,0xd8,0x1f,0x10,0x00,0xfe,0x3f,0x20,0x00,0xf0,
 0x1f,0x40,0x00,0xf8,0x0f,0x80,0x00,0xfc,0x07,0x00,0x01,0xfe,0x03,0x00,0x02,
 0xfc,0x01,0x00,0x04,0xfc,0x00,0x00,0x08,0x72,0x00,0x00,0x10,0x01,0x00,0x00,
 0xa0,0x00,0x00,0x00,0x40,0x00,0x00,0x00,0x00,0x00,0x00,0x00,0x00,0x00,0x00,
 0x00,0x00,0x00,0x00,0x00,0x00,0x00,0x00};
