/* XPM */
static char* StP_SE_xpm[] = {
/* width height ncolors cpp [x_hot y_hot] */
"16 16 5 1 0 0",
/* colors */
".	m none	c none",
"X	m #000000	c #000000",
" 	m #ffffff	c #ffffff",
"O	m #000000	c #800080",
"o	m #000000	c #ff00ff",
/* pixels */
".OOOOOOOOOOOOOO.",
"OOOOOOOOOOOOOOOO",
"OOOOOO   OOOOOOO",
"OOOO      OOOOOO",
"OO   OOOO   OOOO",
"O  OOOOOOOO  OOO",
" OOOOOOooOOO  OO",
"OOOOOOooooOOO OO",
"OO OOOooooOOOOOO",
"OO  OOOooOOOOOO ",
"OOO  OOOOOOOO  O",
"OOOO   OOOO   OO",
"OOOOOO      OOOO",
"OOOOOOO   OOOOOO",
"OOOOOOOOOOOOOOOO",
".OOOOOOOOOOOOOO."};
