/* XPM */
static char* align_left_xpm[] = {
/* width height ncolors cpp [x_hot y_hot] */
"32 32 3 1 0 0",
/* colors */
".	m none	c none",
"X	m #000000	c #000000",
" 	m #ffffff	c #ffffff",
/* pixels */
".X..............................",
".X..............................",
".X.XXXXXXXXXXXXXXXXXXXXXXXXXXX..",
".X.XXXXXXXXXXXXXXXXXXXXXXXXXXX..",
".X.XX.......................XX..",
".X.XX.......................XX..",
".X.XX.......................XX..",
".X.XX.......................XX..",
".X.XX.......................XX..",
".X.XX.......................XX..",
".X.XX.......................XX..",
".X.XX.......................XX..",
".X.XXXXXXXXXXXXXXXXXXXXXXXXXXX..",
".X.XXXXXXXXXXXXXXXXXXXXXXXXXXX..",
".X..............................",
".X..............................",
".X..............................",
".X..............................",
".X.XXXXXXXXXXXXXXXXX............",
".X.XXXXXXXXXXXXXXXXX............",
".X.XX.............XX............",
".X.XX.............XX............",
".X.XX.............XX............",
".X.XX.............XX............",
".X.XX.............XX............",
".X.XX.............XX............",
".X.XX.............XX............",
".X.XX.............XX............",
".X.XXXXXXXXXXXXXXXXX............",
".X.XXXXXXXXXXXXXXXXX............",
".X..............................",
".X.............................."};
