/* XPM */
static char* arc_cur_xpm[] = {
/* width height ncolors cpp [x_hot y_hot] */
"32 32 3 1 14 0",
/* colors */
".	m none	c none",
"X	m #000000	c #000000",
" 	m #ffffff	c #ffffff",
/* pixels */
".............XX.................",
"..........XXX X ................",
"........XX   X .................",
".....XXX     X .................",
"...XX        X..................",
"....XX      X ..................",
"......X     X ..................",
".......X   X ...................",
"......XXX  X ...................",
".....XX  X X ...................",
"....XX ..XX ....................",
"...XX ... X ....................",
"..XX ..... .....................",
".XX ............................",
".. .............................",
"................................",
"................................",
"................................",
"................................",
"................................",
"................................",
"................................",
"................................",
"................................",
"................................",
"................................",
"................................",
"................................",
"................................",
"................................",
"................................",
"................................"};
