/* XPM */
static char* arrow_left_xpm[] = {
/* width height ncolors cpp [x_hot y_hot] */
"16 16 3 1 0 0",
/* colors */
".	m none	c none",
"X	m #000000	c #000000",
" 	m #ffffff	c #ffffff",
/* pixels */
"................",
"................",
"................",
"................",
".....X..........",
"....XX..........",
"...XXX..........",
"..XXXXXXXXXXXXX.",
".XXXXXXXXXXXXXX.",
"..XXXXXXXXXXXXX.",
"...XXX..........",
"....XX..........",
".....X..........",
"................",
"................",
"................"};
