/* XPM */
static char* as_is_xpm[] = {
/* width height ncolors cpp [x_hot y_hot] */
"32 32 3 1 0 0",
/* colors */
".	m none	c none",
"X	m #000000	c #000000",
" 	m #ffffff	c #ffffff",
/* pixels */
"................................",
"................................",
"................................",
"................................",
"................................",
"................................",
"..............XXX...............",
".............XXXXX..............",
"............XX...XX.............",
"............XX...XX.............",
"............XX...XX.............",
".............XXXXX..............",
"..............XXX...............",
"..............XXX...............",
"..............XXX...............",
"..............XXX...............",
".....XX.......XXX.......XX......",
".....XXX......XXX......XXX......",
".....XXXXX....XXX....XXXXX......",
"......XX......XXX......XX.......",
"......XXX.....XXX.....XXX.......",
".......XXX....XXX....XXX........",
".......XXXX...XXX...XXXX........",
"........XXXXXXXXXXXXXXX.........",
".........XXXXXXXXXXXXX..........",
"..........XXXXXXXXXXX...........",
".............XXXXX..............",
".............XXXXX..............",
"................................",
"................................",
"................................",
"................................"};
