#define cat_open_32_width 32
#define cat_open_32_height 32
static char cat_open_32_bits[] = {
   0x00, 0x00, 0x00, 0x00, 0x00, 0x00, 0x00, 0x00, 0x00, 0x00, 0x00, 0x00,
   0x00, 0x00, 0x00, 0x00, 0x00, 0xf0, 0x00, 0x00, 0x18, 0x88, 0x01, 0x00,
   0x28, 0x04, 0x03, 0x00, 0x48, 0x02, 0x06, 0x00, 0x88, 0x01, 0x0c, 0x00,
   0x08, 0x01, 0x18, 0x00, 0x08, 0x02, 0xf0, 0x07, 0x08, 0x04, 0x00, 0x0c,
   0x08, 0x08, 0x00, 0x18, 0x08, 0x10, 0x00, 0x30, 0x08, 0x20, 0x00, 0x60,
   0x08, 0x40, 0x00, 0x60, 0x10, 0x80, 0x00, 0x60, 0x20, 0x00, 0x01, 0x60,
   0x40, 0x00, 0x02, 0x60, 0x80, 0x00, 0x04, 0x60, 0x00, 0x01, 0x04, 0x30,
   0x00, 0x02, 0x04, 0x18, 0x00, 0x04, 0x04, 0x0c, 0x00, 0x08, 0x04, 0x06,
   0x00, 0x10, 0x04, 0x03, 0x00, 0x20, 0x84, 0x01, 0x00, 0x40, 0xc4, 0x00,
   0x00, 0x80, 0x64, 0x00, 0x00, 0x00, 0x35, 0x00, 0x00, 0x00, 0x1e, 0x00,
   0x00, 0x00, 0x00, 0x00, 0x00, 0x00, 0x00, 0x00};
