/* XPM */
static char* check_semantics_xpm[] = {
/* width height ncolors cpp [x_hot y_hot] */
"16 16 6 1 0 0",
/* colors */
".	m none	c none",
"X	m #000000	c #000000",
" 	m #ffffff	c #ffffff",
"O	m #000000	c #ff0000",
"o	m #000000	c #808080",
"x	m #000000	c #ffff00",
/* pixels */
"................",
"..............O.",
".............OO.",
".......O....OO..",
".......OO.OOO...",
"........OOOO....",
".XXXXXXXOOOO....",
".Xo x x xOO.....",
".XXXXXXXXOX.....",
".Xo Xo   OX.....",
".XoxXo    X.....",
".Xo Xo    X.....",
".XoxXo    X.....",
".Xo Xo    X.....",
".XXXXXXXXXX.....",
"................"};
