/*
** 	static char sccsid[] = %W% %Y% %D%
** 	StP/Core
** 	Confidential property of Interactive Development Environments, Inc.
** 	Copyright (c) 1992-1993
** 	All rights reserved
*/

#define check.xbm_width 16
#define check.xbm_height 16
static char check.xbm_bits[] = {
   0x00, 0x00, 0x00, 0x80, 0x00, 0x60, 0x00, 0x30, 0x00, 0x18, 0x00, 0x0c,
   0x30, 0x0e, 0x78, 0x07, 0xfc, 0x07, 0xf8, 0x03, 0xf0, 0x03, 0xe0, 0x01,
   0xc0, 0x01, 0x80, 0x00, 0x00, 0x00, 0x00, 0x00};
