/* XPM */
static char* closed_folder_xpm[] = {
/* width height ncolors cpp [x_hot y_hot] */
"16 16 6 1 0 0",
/* colors */
".	m none	c none",
"X	m #000000	c #000000",
" 	m #ffffff	c #ffffff",
"O	m #000000	c #008080",
"o	m #ffffff	c #c0c0c0",
"x	m #000000	c #ffff00",
/* pixels */
"................",
"................",
"..OOOOOX........",
".OoxxxxOX.......",
"Oo      OOOOOO..",
"OoxxxxxxxxxxoOX.",
"OoxxxxxxxxxxoOX.",
"OoxxxxxxxxxxoOX.",
"OoxxxxxxxxxxoOX.",
"OoxxxxxxxxxxoOX.",
"OoxxxxxxxxxxoOX.",
"OoxxxxxxxxxxoOX.",
"OooooooooooooOX.",
"OOOOOOOOOOOOOOX.",
".XXXXXXXXXXXXXX.",
"................"};
