/* XPM */
static char* comment_l_cur_xpm[] = {
/* width height ncolors cpp [x_hot y_hot] */
"32 32 4 1 0 0",
/* colors */
".	m none	c none",
"X	m #000000	c #000000",
" 	m #ffffff	c #ffffff",
"O	m #000000	c #00ffff",
/* pixels */
"XX..............................",
"XXX.............................",
"XXXX............................",
"XXXXX...........................",
"XXXXXX..........................",
"XXXXXXX.........................",
"XXXXXXXX........................",
"XXXXXXXXX.......................",
"XXXXXXXXXX......................",
"XXXXXXXXXXX.....................",
"XXXXXXXXXXXX....................",
"XXXXXXXX........................",
"XXXXXXXX........................",
"XXX..XXXX....XXXXXXXXXXXX.......",
"XX...XXXX....X O O O O OXX......",
"X.....XXXX...XO O O O O X X.....",
"......XXXX...X O O O O OXXXX....",
".......XXXX..XO O O O O O OX....",
".......XXXX..X O O O O O O X....",
"........XX...XO O O O O O OX....",
".............X O O O O O O X....",
".............XO O O O O O OX....",
".............X O O O O O O X....",
".............XO O O O O O OX....",
".............X O O O O O O X....",
".............XXXXXXXXXXXXXXX....",
"................................",
"................................",
"................................",
"................................",
"................................",
"................................"};
