#define ctable2_width 8
#define ctable2_height 8
static char ctable2_bits[] = {
   0xff, 0x81, 0xff, 0xa5, 0xa5, 0xa5, 0xff, 0x00};
