#define ctable0_width 16
#define ctable0_height 16
static char ctable0_bits[] = {
   0xff, 0xff, 0x01, 0x80, 0x01, 0x80, 0x01, 0x80, 0xff, 0xff, 0xff, 0xff,
   0x21, 0x84, 0x21, 0x84, 0x21, 0x84, 0xff, 0xff, 0x21, 0x84, 0x21, 0x84,
   0x21, 0x84, 0xff, 0xff, 0x00, 0x00, 0x00, 0x00};
