/* XPM */
static char* cut_xpm[] = {
/* width height ncolors cpp [x_hot y_hot] */
"16 16 4 1 0 0",
/* colors */
".	m none	c none",
"X	m #000000	c #000000",
" 	m #ffffff	c #ffffff",
"O	m #000000	c #000080",
/* pixels */
"................",
".....X...X......",
".....X...X......",
".....X...X......",
".....XX.XX......",
"......X.X.......",
"......XXX.......",
".......X........",
"......OXO.......",
"......O.OOO.....",
"....OOO.O..O....",
"...O..O.O..O....",
"...O..O.O..O....",
"...O..O..OO.....",
"....OO..........",
"................"};
