#define descln0_width 16
#define descln0_height 16
static char descln0_bits[] = {
   0xfc, 0x07, 0x04, 0x0c, 0xb4, 0x15, 0x04, 0x24, 0xf4, 0x7c, 0x04, 0x40,
   0xf4, 0x4e, 0x04, 0x40, 0xb4, 0x57, 0x04, 0x40, 0xf4, 0x4e, 0x04, 0x40,
   0xb4, 0x5b, 0x04, 0x40, 0x04, 0x40, 0xfc, 0x7f};
