/* XPM */
static char* diagrams_xpm[] = {
/* width height ncolors cpp [x_hot y_hot] */
"16 16 6 1 0 0",
/* colors */
".	m none	c none",
"X	m #000000	c #000000",
" 	m #ffffff	c #ffffff",
"O	m #ffffff	c #c0c0c0",
"o	m #000000	c #808080",
"x	m #000000	c #ffff00",
/* pixels */
"XXXXXXXXXXXXXXX.",
"X             XO",
"XXXXXXXXXXXXXXXO",
"Xo X          XO",
"Xo X XXXXX    XO",
"Xo X XxxxX    XO",
"Xo X XxxxXXXX XO",
"Xo X XxxxX  X XO",
"Xo X XXXXX  X XO",
"Xo X        X XO",
"Xo X XXX  X X XO",
"Xo X XxX XXXX XO",
"Xo X XXX  X   XO",
"Xo X          XO",
"XXXXXXXXXXXXXXXO",
".OOOOOOOOOOOOOOO"};
