/* XPM */
static char* T:\TREE_~R1\source\TEMPL~RU\ct\win32res\DIAG_~OB_xpm[] = {
/* width height ncolors cpp [x_hot y_hot] */
"16 16 4 1 0 0",
/* colors */
".	m none	c none",
"X	m #000000	c #000000",
" 	m #ffffff	c #ffffff",
"O	m #ffffff	c #c0c0c0",
/* pixels */
"................",
"..........X.....",
".........X.X....",
".XXXXXXXXXXXXX..",
".X         X X..",
".X XXXX X  XOX..",
".X X  X XO XOX..",
".X XXXX XO XOX..",
".X   X  XO XOX..",
".X    X  XX OX..",
".X   XXXX OO X..",
".X XXX  X    X..",
".X   XXXX    X..",
".X           X..",
".XXXXXXXXXXXXX..",
"................"};
