#define dir_14x12_width 14
#define dir_14x12_height 12
static unsigned char dir_14x12_bits[] = {
    0x00, 0x0f, 0x80, 0x10, 0x7f, 0x20, 0x01, 0x20, 0x01, 0x20, 0x01, 0x20,
    0x01, 0x20, 0x01, 0x20, 0x01, 0x20, 0x01, 0x20, 0x01, 0x20, 0xff, 0x3f};
 

