#define dir_14x12m_width 14
#define dir_14x12m_height 12
static char dir_14x12m_bits[] = {
 0x00,0x0f,0x80,0x1f,0xff,0x3f,0xff,0x3f,0xff,0x3f,0xff,0x3f,0xff,0x3f,0xff,
 0x3f,0xff,0x3f,0xff,0x3f,0xff,0x3f,0xff,0x3f};
