/* XPM */
static char* dmark_continuous_xpm[] = {
/* width height ncolors cpp [x_hot y_hot] */
"16 16 4 1 0 0",
/* colors */
".	m none	c none",
"X	m #000000	c #000000",
" 	m #ffffff	c #ffffff",
"O	m #000000	c #00ff00",
/* pixels */
"................",
"................",
"................",
"................",
"............O...",
"...........OO...",
"..........OO....",
".........OO.....",
"........OO......",
".OO....OO.......",
"..OO..OO........",
"...OOOO.........",
"....OO..........",
"................",
"................",
"................"};
