/* XPM */
static char* edit_notedesc_xpm[] = {
/* width height ncolors cpp [x_hot y_hot] */
"16 16 7 1 0 0",
/* colors */
".	m none	c none",
"X	m #000000	c #000000",
" 	m #ffffff	c #ffffff",
"O	m #ffffff	c #c0c0c0",
"o	m #000000	c #ff0000",
"x	m #000000	c #ffff00",
"+	m #000000	c #808080",
/* pixels */
"................",
"................",
"................",
"..XXXXXXXXXXX...",
"..X         X...",
"..X         OXX.",
"..X XX XXXX XoX.",
"..X        XxX..",
"..X XX XX XxX...",
"..X      XxXO...",
"..X XX  XxX X...",
"..X    X+X  X...",
"..X XX XX   X...",
"..X         X...",
"..XXXXXXXXXXX...",
"................"};
