/* XPM */
static char* ext_default_xpm[] = {
/* width height ncolors cpp [x_hot y_hot] */
"16 16 6 1 0 0",
/* colors */
".	m none	c none",
"X	m #000000	c #000000",
" 	m #ffffff	c #ffffff",
"O	m #000000	c #808080",
"o	m #000000	c #800000",
"x	m #000000	c #ff0000",
/* pixels */
"................",
".OOOOOOOOOOOOOO.",
".OooooooooooooO.",
".OoxxxxxxxxxxxO.",
".Ooxxxxx  xxxxO.",
".Ooxxxxxx oxxxO.",
".Ooxxxxxx ooxxO.",
".Ooxxxxxx ooxxO.",
".Ooxx     ooxxO.",
".Ooxx oxx ooxxO.",
".Ooxx oxx ooxxO.",
".Ooxx      ooxO.",
".OoxxxoooooooxO.",
".OoxxxxxxxxxxxO.",
".OOOOOOOOOOOOOO.",
"................"};
