#define file_14x12m_width 14
#define file_14x12m_height 12
static char file_14x12m_bits[] = {
 0xfc,0x01,0xfc,0x03,0xfc,0x07,0xfc,0x0f,0xfc,0x0f,0xfc,0x0f,0xfc,0x0f,0xfc,
 0x0f,0xfc,0x0f,0xfc,0x0f,0xfc,0x0f,0xfc,0x0f};
