#define file_14x12_width 14
#define file_14x12_height 12
static unsigned char file_14x12_bits[] = {
    0xfc, 0x01, 0x84, 0x02, 0x84, 0x04, 0x84, 0x08, 0x84, 0x0f, 0x04, 0x08,
    0x04, 0x08, 0x04, 0x08, 0x04, 0x08, 0x04, 0x08, 0x04, 0x08, 0xfc, 0x0f};

