#define gray3_width 6
#define gray3_height 4
static unsigned char gray3_bits[] = {
   0x01, 0x00, 0x08, 0x00};
