/* XPM */
static char* hide_show_xpm[] = {
/* width height ncolors cpp [x_hot y_hot] */
"16 16 5 1 0 0",
/* colors */
".	m none	c none",
"X	m #000000	c #000000",
" 	m #ffffff	c #ffffff",
"O	m #000000	c #808080",
"o	m #ffffff	c #c0c0c0",
/* pixels */
"................",
"XXXXXXXXXXXXXXXX",
"X      XX.O.O.OX",
"X XXXX XOOXXXX.X",
"X      XXoOoOoOX",
"X XXXX XOOXXXX.X",
"X      XX.OoOoOX",
"X XXXX XOOXXXX.X",
"X      XX.OoOoOX",
"X XXXX XOOXXXX.X",
"X      XX.OoOoOX",
"X      XOO.O.O.X",
"XXXXXXXXXXXXXXXX",
"................",
"................",
"................"};
