#define lock1.xbm_width 12
#define lock1.xbm_height 12
static char lock1.xbm_bits[] = {
   0xf8, 0x01, 0x04, 0x02, 0xf2, 0x04, 0x0a, 0x05, 0x0a, 0x05, 0xff, 0x0f,
   0x01, 0x08, 0x61, 0x08, 0x41, 0x08, 0x01, 0x08, 0x01, 0x08, 0xff, 0x0f};