#define new_row_mask_width 16
#define new_row_mask_height 16
#define new_row_mask_x_hot 8
#define new_row_mask_y_hot 8
static unsigned char new_row_mask_bits[] = {
   0xc0, 0x03, 0xe0, 0x07, 0xf0, 0x0f, 0xf0, 0x0f, 0xf0, 0x0f, 0xff, 0xff,
   0xff, 0xff, 0xff, 0xff, 0xff, 0xff, 0xff, 0xff, 0xff, 0xff, 0xf0, 0x0f,
   0xf0, 0x0f, 0xf0, 0x0f, 0xe0, 0x07, 0xc0, 0x03};
