/* XPM */
static char* new_model_xpm[] = {
/* width height ncolors cpp [x_hot y_hot] */
"16 16 5 1 0 0",
/* colors */
".	m none	c none",
"X	m #000000	c #000000",
" 	m #ffffff	c #ffffff",
"O	m #000000	c #00ffff",
"o	m #000000	c #808080",
/* pixels */
"..........X.....",
"................",
"..........X.....",
".......X.....X..",
"........X.X.X...",
".........X.X....",
".XXXX..XXXX.X.X.",
".XO XXXXO XX....",
".X OXo.X OXoX...",
".XXXXo.XXXXo.X..",
"..Xooo..oXoo....",
".XXXX..XXXX.....",
".XO Xo.XO Xo....",
".X OXXXX OXo....",
".XXXXo.XXXXo....",
"..oooo..oooo...."};
