#define new_col_mask_width 16
#define new_col_mask_height 16
#define new_col_mask_x_hot 8
#define new_col_mask_y_hot 8

static unsigned char new_col_mask_bits[] = {
   0xe0, 0x07, 0xe0, 0x07, 0xe0, 0x07, 0xe0, 0x07, 0xfc, 0x3f, 0xfe, 0x7f,
   0xff, 0xff, 0xff, 0xff, 0xff, 0xff, 0xff, 0xff, 0xfe, 0x7f, 0xfc, 0x3f,
   0xe0, 0x07, 0xe0, 0x07, 0xe0, 0x07, 0xe0, 0x07};
