#define new_corner_width 16
#define new_corner_height 16
#define new_corner_x_hot 8
#define new_corner_y_hot 8
static unsigned char new_corner_bits[] =
{
   0x00, 0x00, 0xfe, 0x7f, 0xfe, 0x7f, 0x06, 0x00, 0x06, 0x00, 0x06, 0x00,
   0x06, 0x00, 0x06, 0x00, 0x06, 0x00, 0x06, 0x00, 0x06, 0x00, 0x06, 0x00,
   0x06, 0x00, 0x06, 0x00, 0x06, 0x00, 0x00, 0x00};
