/* XPM */
static char* note_item_xpm[] = {
/* width height ncolors cpp [x_hot y_hot] */
"16 16 4 1 0 0",
/* colors */
".	m none	c none",
"X	m #000000	c #000000",
" 	m #ffffff	c #ffffff",
"O	m #ffffff	c #c0c0c0",
/* pixels */
"XXXXXXXXXXX.....",
"X         XO....",
"X XXXXXX  XO....",
"X         XO....",
"X  XXX X  XO....",
"X         XO....",
"X  XXX X  XO....",
"X         XO....",
"X  XXX XXXXO....",
"X      X.X.O....",
"X      XX.O.....",
"XXXXXXXX.O......",
".OOOOOOOO.......",
"................",
"................",
"................"};
