#define oms_14x12m_width 14
#define oms_14x12m_height 12
static char oms_14x12m_bits[] = {
 0x80,0x01,0xe0,0x03,0xf0,0x07,0xf8,0x0f,0xfc,0x1f,0xfc,0x1f,0xfe,0x0f,0xfe,
 0x0f,0xfc,0x07,0xf8,0x03,0xf0,0x01,0x60,0x00};
