#define omtcc_32.xbm_width 32
#define omtcc_32.xbm_height 32
static unsigned char omtcc_32.xbm_bits[] = {
   0x00, 0x00, 0x00, 0x00, 0xe0, 0xff, 0x00, 0x00, 0x20, 0x40, 0x01, 0x00,
   0x20, 0xa0, 0x00, 0x00, 0x20, 0x50, 0x00, 0x00, 0x20, 0xa0, 0x00, 0x00,
   0x20, 0x40, 0x01, 0x00, 0x20, 0x80, 0x02, 0x00, 0x20, 0x01, 0x05, 0x00,
   0xa0, 0x02, 0x0a, 0x00, 0x60, 0x05, 0x14, 0x00, 0xe0, 0x08, 0x28, 0x00,
   0x00, 0x10, 0x50, 0x00, 0x80, 0x23, 0xa0, 0x00, 0x40, 0x45, 0x40, 0x01,
   0x20, 0x8a, 0x80, 0x02, 0x10, 0x14, 0x01, 0x05, 0x08, 0x28, 0x02, 0x0a,
   0x10, 0x50, 0x04, 0x14, 0x20, 0xa0, 0x08, 0x28, 0x40, 0x40, 0x11, 0x28,
   0x80, 0x80, 0x0a, 0x14, 0x00, 0x01, 0x05, 0x0a, 0x00, 0x02, 0x02, 0x05,
   0x00, 0x04, 0x80, 0x02, 0x00, 0x08, 0x40, 0x01, 0x00, 0x10, 0xa0, 0x00,
   0x00, 0x20, 0x50, 0x00, 0x00, 0x40, 0x28, 0x00, 0x00, 0x80, 0x14, 0x00,
   0x00, 0x00, 0x0f, 0x00, 0x00, 0x00, 0x00, 0x00};
