/* XPM */
static char* T:\TREE_~R1\source\TEMPL~RU\ct\win32res\OPEN_~EH_xpm[] = {
/* width height ncolors cpp [x_hot y_hot] */
"16 16 5 1 0 0",
/* colors */
".	m none	c none",
"X	m #000000	c #000000",
" 	m #ffffff	c #ffffff",
"O	m #000000	c #808080",
"o	m #ffffff	c #c0c0c0",
/* pixels */
"................",
".........XXX....",
"........X...X.X.",
".............XX.",
".O      XX..XXX.",
".O ooo  X X.....",
".O      XO X....",
".O o oo XXXXo...",
".O         Xo...",
".O o ooooo Xo...",
".O         Xo...",
".O oooo oo Xo...",
".O         Xo...",
".O         Xo...",
".XXXXXXXXXXXo...",
"..ooooooooooo..."};
