/* XPM */
static char* refresh_xpm[] = {
/* width height ncolors cpp [x_hot y_hot] */
"16 16 2 1 0 0",
/* colors */
".	m none	c none",
"X	m #000000	c #000000",
/* pixels */
"XXXXXXXXXXX.....",
"X.X.X.....X.....",
"X..X......X.....",
"X.X.X.....X.....",
"XXXXXXXXXXX.....",
"................",
".X.......X......",
"................",
"..X.....X.......",
"................",
"...XXXXX........",
"...X...XXXXXX...",
"...X...X....X...",
"...XXXXX..XXXX..",
"..........X..X..",
"..........XXXX.."};
