/* XPM */
static char* question_xpm[] = {
/* width height ncolors cpp [x_hot y_hot] */
"32 32 6 1 0 0",
/* colors */
".	m none	c none",
"X	m #000000	c #000000",
" 	m #ffffff	c #ffffff",
"O	m #000000	c #808080",
"o	m #ffffff	c #c0c0c0",
"x	m #000000	c #ff0000",
/* pixels */
"...........OOOOOOOO.............",
"........OOOo      oOOO..........",
"......OOo            oOO........",
".....Oo                oO.......",
"....O                    X......",
"...O       oxxxxxxo       X.....",
"..O       oxo  xxxxo       X....",
".Oo       xx    xxxx       oX...",
".O        xxxx  xxxx        XO..",
"Oo        xxxx oxxxx        oXO.",
"O         oxxo xxxx          XO.",
"O             oxxx           XOO",
"O             xxx            XOO",
"O             xxo            XOO",
"O             xx             XOO",
"Oo                          oXOO",
".O           oxxo           XOOO",
".Oo          xxxx          oXOOO",
"..O          xxxx          XOOO.",
"...X         oxxo         XOOOO.",
"....X                    XOOOO..",
".....Xo                oXOOOO...",
"......XXo            oXXOOOO....",
".......OXXXo      oXXXOOOOO.....",
"........OOOXXXo   XOOOOOOO......",
"..........OOOOX   XOOOOO........",
".............OX   XOO...........",
"...............X  XOO...........",
"................X XOO...........",
".................XXOO...........",
"..................OOO...........",
"...................OO..........."};
