#define repository_32.xbm_width 32
#define repository_32.xbm_height 32
static unsigned char repository_32.xbm_bits[] = {
   0x00, 0x00, 0x00, 0x00, 0x00, 0x00, 0x00, 0x00, 0x00, 0x00, 0x00, 0x00,
   0x00, 0x00, 0x00, 0x00, 0x00, 0x00, 0x0e, 0x00, 0x00, 0x80, 0x19, 0x00,
   0x00, 0x60, 0x28, 0x00, 0x00, 0x10, 0x44, 0x00, 0x00, 0x08, 0x84, 0x00,
   0x00, 0x04, 0x02, 0x01, 0x00, 0x02, 0x02, 0x02, 0x00, 0x01, 0x01, 0x04,
   0x80, 0x80, 0x00, 0x08, 0x40, 0x40, 0x00, 0x08, 0x20, 0x20, 0x00, 0x08,
   0x20, 0x10, 0x00, 0x04, 0x10, 0x08, 0x00, 0x04, 0x10, 0x04, 0x00, 0x02,
   0x08, 0x03, 0x00, 0x02, 0xc8, 0x00, 0x00, 0x01, 0x38, 0x00, 0x80, 0x00,
   0x10, 0x00, 0x40, 0x00, 0x20, 0x00, 0x20, 0x00, 0x40, 0x00, 0x10, 0x00,
   0x80, 0x00, 0x08, 0x00, 0x00, 0x01, 0x04, 0x00, 0x00, 0x02, 0x03, 0x00,
   0x00, 0xc4, 0x00, 0x00, 0x00, 0x38, 0x00, 0x00, 0x00, 0x00, 0x00, 0x00,
   0x00, 0x00, 0x00, 0x00, 0x00, 0x00, 0x00, 0x00};
