/* XPM */
static char *repository_32[] = {
/* width height ncolors chars_per_pixel */
"32 32 5 1",
/* colors */
"` c #000000",
"a c #2A1FAA",
"b c #2A7FFF",
"c c #2A1FFF",
"d c #FFFFFF",
/* pixels */
"dddddddddddddddddddddddddddddddd",
"dddddddddddddddddddddddddddddddd",
"dddddddddddddddddddddddddddddddd",
"dddddddddddddddddddddddddddddddd",
"ddddddddddddddddd```dddddddddddd",
"ddddddddddddddd``bb``ddddddddddd",
"ddddddddddddd``bbbb`c`dddddddddd",
"dddddddddddd`bbbbb`ccc`ddddddddd",
"ddddddddddd`bbbbbb`cccc`dddddddd",
"dddddddddd`bbbbbb`cccccc`ddddddd",
"ddddddddd`bbbbbbb`ccccccc`dddddd",
"dddddddd`bbbbbbb`ccccccccc`ddddd",
"ddddddd`bbbbbbb`ccccccccccc`dddd",
"dddddd`bbbbbbb`cccccccccccc`dddd",
"ddddd`bbbbbbb`ccccccccccccc`dddd",
"ddddd`bbbbbb`ccccccccccccc`ddddd",
"dddd`bbbbbb`cacccccccccccc`ddddd",
"dddd`bbbbb`cacacccccccccc`dddddd",
"ddd`bbbb``cacacaccccccccc`dddddd",
"ddd`bb``caacacacacacacac`ddddddd",
"ddd```aaaacacacacacacaa`dddddddd",
"dddd`aaaaaacacacacacaa`ddddddddd",
"dddddaaaaaaaaacacaaaa`dddddddddd",
"dddddd`aaaaaaaaaaaaa`ddddddddddd",
"ddddddd`aaaaaaaaaaa`dddddddddddd",
"dddddddd`aaaaaaaaa`ddddddddddddd",
"ddddddddd`aaaaaa``dddddddddddddd",
"dddddddddd`aaa``dddddddddddddddd",
"ddddddddddd```dddddddddddddddddd",
"dddddddddddddddddddddddddddddddd",
"dddddddddddddddddddddddddddddddd",
"dddddddddddddddddddddddddddddddd"
};
