#define right_arrow_bm.xbm_width 16
#define right_arrow_bm.xbm_height 12
static unsigned char right_arrow_bm.xbm_bits[] = {
   0x80, 0xc0, 0x80, 0xc1, 0x80, 0xc3, 0x80, 0xc7, 0xfe, 0xcf, 0xfe, 0xdf,
   0xfe, 0xdf, 0xfe, 0xcf, 0x80, 0xc7, 0x80, 0xc3, 0x80, 0xc1, 0x80, 0xc0};
