/* XPM */
static char* _/rme_32_xpm[] = {
/* width height ncolors cpp [x_hot y_hot] */
"16 16 5 1 0 0",
/* colors */
".	m none	c none",
"X	m #000000	c #000000",
" 	m #ffffff	c #ffffff",
"O	m #000000	c #ffff00",
"o	m #ffffff	c #c0c0c0",
/* pixels */
"................",
"..XXXX..........",
".XOOOOX.........",
"oX o oX..XXXXXXX",
"oXo o X..X     X",
"o.XXXX...X XXX X",
".oooX..X.X     X",
"....XXXXXX XXX X",
"....X..X.X     X",
"..XXXX...X XXX X",
".XOOOOX..X     X",
"oX o oX..XXXXXXX",
"oXo o X.........",
"o.XXXX..........",
".oooo...........",
"................"};
