/* XPM */
static char* script_manager_xpm[] = {
/* width height ncolors cpp [x_hot y_hot] */
"16 16 8 1 0 0",
/* colors */
".	m none	c none",
"X	m #000000	c #000000",
" 	m #ffffff	c #ffffff",
"O	m #000000	c #808080",
"o	m #ffffff	c #c0c0c0",
"x	m #000000	c #00ffff",
"+	m #000000	c #000080",
"*	m #000000	c #0000ff",
/* pixels */
"...OOOOOOOOOO...",
"..Xooooo    OX..",
".XxxxxxxX   O X.",
"XxxxxxxxxX  XXXo",
"XXxxxxxxXX    Xo",
"X+XXXXXX*XOOO Xo",
"X*+*+****X    Xo",
".X*+****XO OO Xo",
"..XXXXXX  X   Xo",
"...O     XXX  Xo",
"...O    XXXXX Xo",
"...O     oXoo Xo",
".XXXXXXXXXXo  Xo",
"..oooooooooo  Xo",
"...XXXXXXXXXXXXo",
"....oooooooooooo"};
