#define scriptman_32.xbm_width 32
#define scriptman_32.xbm_height 32
static unsigned char scriptman_32.xbm_bits[] = {
   0x00, 0x00, 0x00, 0x00, 0x00, 0x00, 0x00, 0x00, 0x00, 0x00, 0x00, 0x00,
   0xf0, 0x1f, 0x00, 0x00, 0x18, 0x2c, 0x00, 0x00, 0x24, 0x52, 0x00, 0x00,
   0x42, 0xa1, 0x00, 0x00, 0x81, 0x40, 0x01, 0x00, 0x02, 0x80, 0x02, 0x00,
   0x04, 0x00, 0x05, 0x00, 0x08, 0x00, 0x0a, 0x00, 0x10, 0x00, 0x05, 0x00,
   0x20, 0x80, 0x02, 0x00, 0x40, 0x40, 0x01, 0x00, 0x80, 0xa0, 0x00, 0x00,
   0x00, 0x51, 0x0f, 0x00, 0x00, 0x2a, 0x03, 0x00, 0x00, 0x1c, 0x05, 0x06,
   0x00, 0x00, 0x89, 0x0d, 0x00, 0x00, 0x50, 0x12, 0x00, 0x00, 0x20, 0x22,
   0x00, 0x00, 0x50, 0x41, 0x00, 0x00, 0x88, 0x40, 0x00, 0x00, 0x48, 0x20,
   0x00, 0x00, 0x34, 0x20, 0x00, 0x00, 0x0c, 0x10, 0x00, 0x00, 0x08, 0x08,
   0x00, 0x00, 0x10, 0x04, 0x00, 0x00, 0x20, 0x03, 0x00, 0x00, 0xc0, 0x00,
   0x00, 0x00, 0x00, 0x00, 0x00, 0x00, 0x00, 0x00};
