#define scriptman_50.xbm_width 48
#define scriptman_50.xbm_height 48
static unsigned char scriptman_50.xbm_bits[] = {
   0x00, 0x00, 0x00, 0x00, 0x00, 0x00, 0x00, 0x00, 0x00, 0x00, 0x00, 0x00,
   0x00, 0x00, 0x00, 0x00, 0x00, 0x00, 0x00, 0x00, 0x00, 0x00, 0x00, 0x00,
   0x00, 0x00, 0x00, 0x00, 0x00, 0x00, 0xc0, 0xff, 0x01, 0x00, 0x00, 0x00,
   0xa0, 0xa0, 0x02, 0x00, 0x00, 0x00, 0x10, 0x11, 0x05, 0x00, 0x00, 0x00,
   0x08, 0x0a, 0x0a, 0x00, 0x00, 0x00, 0x04, 0x04, 0x14, 0x00, 0x00, 0x00,
   0x02, 0x00, 0x28, 0x00, 0x00, 0x00, 0x01, 0x00, 0x50, 0x00, 0x00, 0x00,
   0x02, 0x00, 0xa0, 0x00, 0x00, 0x00, 0x04, 0x00, 0x40, 0x01, 0x00, 0x00,
   0x08, 0x00, 0x80, 0x02, 0x00, 0x00, 0x10, 0x00, 0x40, 0x01, 0x00, 0x00,
   0x20, 0x00, 0xa0, 0x00, 0x00, 0x00, 0x40, 0x00, 0x50, 0x00, 0x00, 0x00,
   0x80, 0x00, 0x28, 0x00, 0x00, 0x00, 0x00, 0x01, 0x14, 0x00, 0x00, 0x00,
   0x00, 0x02, 0xfa, 0x01, 0x00, 0x00, 0x00, 0x04, 0x35, 0x00, 0x38, 0x00,
   0x00, 0x88, 0x52, 0x00, 0x66, 0x00, 0x00, 0x50, 0x91, 0x80, 0xa1, 0x00,
   0x00, 0xe0, 0x10, 0x41, 0x10, 0x01, 0x00, 0x00, 0x00, 0x22, 0x10, 0x02,
   0x00, 0x00, 0x00, 0x14, 0x08, 0x04, 0x00, 0x00, 0x00, 0x08, 0x08, 0x08,
   0x00, 0x00, 0x00, 0x14, 0x04, 0x10, 0x00, 0x00, 0x00, 0x22, 0x02, 0x20,
   0x00, 0x00, 0x00, 0x01, 0x01, 0x20, 0x00, 0x00, 0x80, 0x80, 0x00, 0x20,
   0x00, 0x00, 0x80, 0x40, 0x00, 0x10, 0x00, 0x00, 0x40, 0x20, 0x00, 0x10,
   0x00, 0x00, 0x40, 0x10, 0x00, 0x08, 0x00, 0x00, 0x20, 0x0c, 0x00, 0x08,
   0x00, 0x00, 0x20, 0x03, 0x00, 0x04, 0x00, 0x00, 0xe0, 0x00, 0x00, 0x02,
   0x00, 0x00, 0x40, 0x00, 0x00, 0x01, 0x00, 0x00, 0x80, 0x00, 0x80, 0x00,
   0x00, 0x00, 0x00, 0x01, 0x40, 0x00, 0x00, 0x00, 0x00, 0x02, 0x20, 0x00,
   0x00, 0x00, 0x00, 0x04, 0x10, 0x00, 0x00, 0x00, 0x00, 0x08, 0x0c, 0x00,
   0x00, 0x00, 0x00, 0x10, 0x03, 0x00, 0x00, 0x00, 0x00, 0xe0, 0x00, 0x00,
   0x00, 0x00, 0x00, 0x00, 0x00, 0x00, 0x00, 0x00, 0x00, 0x00, 0x00, 0x00};
