/* XPM */
static char* show_path_xpm[] = {
/* width height ncolors cpp [x_hot y_hot] */
"16 16 8 1 0 0",
/* colors */
".	m none	c none",
"X	m #000000	c #000000",
" 	m #ffffff	c #ffffff",
"O	m #000000	c #008080",
"o	m #ffffff	c #c0c0c0",
"x	m #000000	c #00ffff",
"+	m #000000	c #808080",
"*	m #000000	c #ffff00",
/* pixels */
"................",
"................",
"....OOOOX.......",
"...OoxxxOX......",
"..oO     OOOOOO.",
"..oOxxxxxxxxxoOX",
"..oOXXXXxxxxxoOX",
".OOX+OO+XOOOxoOX",
".OX+Ox**+XxOOoOX",
".OXOxxx*OXxxOoOX",
"..XOxxxxOXxxOoOX",
"..X+O*xO+XxxoOOX",
"..XXO+++XooooOXX",
".XXXXXXXOOOOOOXX",
"XXX..XXXXXXXXXX.",
"XX.............."};
