/* XPM */
static char* size_hor_cur_xpm[] = {
/* width height ncolors cpp [x_hot y_hot] */
"32 32 3 1 15 15",
/* colors */
".	m none	c none",
"X	m #000000	c #000000",
" 	m #ffffff	c #ffffff",
/* pixels */
"................................",
"................................",
"................................",
"................................",
"................................",
"................................",
"................................",
"................................",
"............... ................",
".............. X ...............",
"............. XXX ..............",
"............ XXXXX .............",
".............  X  ..............",
".......        X        ........",
"....... XXXXXXXXXXXXXXX ........",
"................................",
"....... XXXXXXXXXXXXXXX ........",
".......        X        ........",
".............  X  ..............",
"............ XXXXX .............",
"............. XXX ..............",
".............. X ...............",
"............... ................",
"................................",
"................................",
"................................",
"................................",
"................................",
"................................",
"................................",
"................................",
"................................"};
