#define peter_meter_width 48
#define peter_meter_height 48
static unsigned char peter_meter_bits[] = {
   0x00, 0x00, 0x00, 0x00, 0x80, 0x00, 0x00, 0x00, 0x00, 0x00, 0xc0, 0x01,
   0x00, 0x00, 0x00, 0x00, 0xe0, 0x02, 0x00, 0x00, 0x00, 0x00, 0xf0, 0x04,
   0x00, 0x00, 0x00, 0x00, 0x78, 0x09, 0x00, 0x00, 0x00, 0x00, 0x3c, 0x12,
   0x00, 0x00, 0x00, 0x00, 0x1e, 0x24, 0x00, 0x00, 0x00, 0x00, 0x0f, 0x48,
   0x00, 0x00, 0x00, 0x80, 0x07, 0xf0, 0x00, 0x00, 0x00, 0xc0, 0x03, 0x48,
   0x00, 0x00, 0x00, 0xe0, 0x01, 0x24, 0x00, 0x00, 0x00, 0xf0, 0x00, 0x12,
   0x00, 0x00, 0x00, 0x78, 0x00, 0x09, 0x00, 0x00, 0x00, 0xbc, 0x87, 0x04,
   0x00, 0x00, 0x00, 0x1e, 0x46, 0x02, 0x00, 0x00, 0x00, 0x0f, 0x25, 0x01,
   0x00, 0x00, 0x80, 0x87, 0x94, 0x00, 0x00, 0x00, 0xc0, 0x43, 0x48, 0x00,
   0x00, 0x00, 0xe0, 0x21, 0x24, 0x00, 0x00, 0x00, 0xf0, 0x10, 0x12, 0x00,
   0x00, 0x00, 0x78, 0x08, 0x09, 0x00, 0x00, 0x00, 0x3c, 0x84, 0x04, 0x00,
   0x00, 0x00, 0x1e, 0x42, 0x02, 0x00, 0x00, 0x00, 0x0f, 0x21, 0x01, 0x00,
   0x00, 0x80, 0x87, 0x90, 0x00, 0x00, 0x00, 0xc0, 0x4e, 0x48, 0x00, 0x00,
   0x00, 0x60, 0x3e, 0x24, 0x00, 0x00, 0x00, 0x30, 0x3d, 0x12, 0x00, 0x00,
   0x00, 0x98, 0x7a, 0x09, 0x00, 0x00, 0x00, 0x4c, 0xf5, 0x04, 0x00, 0x00,
   0x00, 0xa6, 0xea, 0x02, 0x00, 0x00, 0x00, 0x53, 0x75, 0x01, 0x00, 0x00,
   0x80, 0xa9, 0xba, 0x00, 0x00, 0x00, 0xc0, 0x54, 0x5d, 0x00, 0x00, 0x00,
   0x60, 0xaa, 0x2e, 0x00, 0x00, 0x00, 0x30, 0x55, 0x17, 0x00, 0x00, 0x00,
   0x98, 0xaa, 0x0b, 0x00, 0x00, 0x00, 0x4c, 0xd5, 0x05, 0x00, 0x00, 0x00,
   0xa6, 0xea, 0x02, 0x00, 0x00, 0x00, 0x5f, 0x75, 0x01, 0x00, 0x00, 0x00,
   0xa6, 0xba, 0x00, 0x00, 0x00, 0x00, 0x4c, 0x5d, 0x00, 0x00, 0x00, 0x00,
   0x98, 0x2e, 0x00, 0x00, 0x00, 0x00, 0x30, 0x17, 0x00, 0x00, 0x00, 0x00,
   0x60, 0x0b, 0x00, 0x00, 0x00, 0x00, 0xc0, 0x05, 0x00, 0x00, 0x00, 0x00,
   0x80, 0x03, 0x00, 0x00, 0x00, 0x00, 0x00, 0x01, 0x00, 0x00, 0x00, 0x00};
