<?xml version="1.0" encoding="UTF-8"?>

<!DOCTYPE svg PUBLIC '-//W3C//DTD SVG 1.0//EN' 'http://www.w3.org/TR/2001/REC-SVG-20010904/DTD/svg10.dtd'>
<svg stroke-width="1" stroke-dashoffset="0" font-size="12" stroke-dasharray="none" color-rendering="auto" font-weight="normal" color-interpolation="auto" stroke-linejoin="miter" fill="black" image-rendering="auto" font-family="&apos;sansserif&apos;" stroke-opacity="1" stroke-miterlimit="10" stroke="black" text-rendering="auto" font-style="normal" stroke-linecap="square" fill-opacity="1" shape-rendering="auto" xmlns="http://www.w3.org/2000/svg" xmlns:xlink="http://www.w3.org/1999/xlink">
  <!--Generated by the Batik Graphics2D SVG Generator-->
  <defs id="genericDefs" />
  <g>
    <defs id="defs1">
      <clipPath clipPathUnits="userSpaceOnUse" id="clipPath1">
        <path d="M70 -10 L70 600 L800 600 L800 -10 Z" />
      </clipPath>
      <clipPath clipPathUnits="userSpaceOnUse" id="clipPath2">
        <path d="M-270 -10 L-270 600 L460 600 L460 -10 Z" />
      </clipPath>
      <clipPath clipPathUnits="userSpaceOnUse" id="clipPath3">
        <path d="M-275.7597961425781 -30 L-275.7597961425781 580 L454.2402038574219 580 L454.2402038574219 -30 Z" />
      </clipPath>
      <clipPath clipPathUnits="userSpaceOnUse" id="clipPath4">
        <path d="M-220 -90 L-220 520 L510 520 L510 -90 Z" />
      </clipPath>
      <clipPath clipPathUnits="userSpaceOnUse" id="clipPath5">
        <path d="M-241.04449462890625 -99 L-241.04449462890625 511 L488.95550537109375 511 L488.95550537109375 -99 Z" />
      </clipPath>
      <clipPath clipPathUnits="userSpaceOnUse" id="clipPath6">
        <path d="M90 -277.5 L-520 -277.5 L-520 452.5 L90 452.5 Z" />
      </clipPath>
      <clipPath clipPathUnits="userSpaceOnUse" id="clipPath7">
        <path d="M-170 -200 L-170 410 L560 410 L560 -200 Z" />
      </clipPath>
      <clipPath clipPathUnits="userSpaceOnUse" id="clipPath8">
        <path d="M-207.4355926513672 -209 L-207.4355926513672 401 L522.5643920898438 401 L522.5643920898438 -209 Z" />
      </clipPath>
      <clipPath clipPathUnits="userSpaceOnUse" id="clipPath9">
        <path d="M200 -278.1936950683594 L-410 -278.1936950683594 L-410 451.8063049316406 L200 451.8063049316406 Z" />
      </clipPath>
      <clipPath clipPathUnits="userSpaceOnUse" id="clipPath10">
        <path d="M-210 -400 L-210 210 L520 210 L520 -400 Z" />
      </clipPath>
      <clipPath clipPathUnits="userSpaceOnUse" id="clipPath11">
        <path d="M-231.6396942138672 -409 L-231.6396942138672 201 L498.36029052734375 201 L498.36029052734375 -409 Z" />
      </clipPath>
      <clipPath clipPathUnits="userSpaceOnUse" id="clipPath12">
        <path d="M400 -271.2225036621094 L-210 -271.2225036621094 L-210 458.7774963378906 L400 458.7774963378906 Z" />
      </clipPath>
      <clipPath clipPathUnits="userSpaceOnUse" id="clipPath13">
        <path d="M-125.83290100097656 -313 L-125.83290100097656 297 L604.1671142578125 297 L604.1671142578125 -313 Z" />
      </clipPath>
      <clipPath clipPathUnits="userSpaceOnUse" id="clipPath14">
        <path d="M-560 -200 L-560 410 L170 410 L170 -200 Z" />
      </clipPath>
      <clipPath clipPathUnits="userSpaceOnUse" id="clipPath15">
        <path d="M-587.3984985351562 -209 L-587.3984985351562 401 L142.60150146484375 401 L142.60150146484375 -209 Z" />
      </clipPath>
      <clipPath clipPathUnits="userSpaceOnUse" id="clipPath16">
        <path d="M560 220 L560 -390 L-170 -390 L-170 220 Z" />
      </clipPath>
      <clipPath clipPathUnits="userSpaceOnUse" id="clipPath17">
        <path d="M-419.2981872558594 -225 L-419.2981872558594 385 L310.7018127441406 385 L310.7018127441406 -225 Z" />
      </clipPath>
      <clipPath clipPathUnits="userSpaceOnUse" id="clipPath18">
        <path d="M-10 -400 L-10 210 L720 210 L720 -400 Z" />
      </clipPath>
      <clipPath clipPathUnits="userSpaceOnUse" id="clipPath19">
        <path d="M-32.50270080566406 -409 L-32.50270080566406 201 L697.497314453125 201 L697.497314453125 -409 Z" />
      </clipPath>
      <clipPath clipPathUnits="userSpaceOnUse" id="clipPath20">
        <path d="M70 -90 L70 520 L800 520 L800 -90 Z" />
      </clipPath>
      <clipPath clipPathUnits="userSpaceOnUse" id="clipPath21">
        <path d="M-110 -420 L-110 190 L620 190 L620 -420 Z" />
      </clipPath>
      <clipPath clipPathUnits="userSpaceOnUse" id="clipPath22">
        <path d="M-113.36280059814453 -401 L-113.36280059814453 209 L616.63720703125 209 L616.63720703125 -401 Z" />
      </clipPath>
      <clipPath clipPathUnits="userSpaceOnUse" id="clipPath23">
        <path d="M-280 -540 L-280 70 L450 70 L450 -540 Z" />
      </clipPath>
      <clipPath clipPathUnits="userSpaceOnUse" id="clipPath24">
        <path d="M-255.26510620117188 -565 L-255.26510620117188 45 L474.7348937988281 45 L474.7348937988281 -565 Z" />
      </clipPath>
      <clipPath clipPathUnits="userSpaceOnUse" id="clipPath25">
        <path d="M540 -290 L-70 -290 L-70 440 L540 440 Z" />
      </clipPath>
      <clipPath clipPathUnits="userSpaceOnUse" id="clipPath26">
        <path d="M526.8899536132812 313.6066589355469 L204.46482849121094 -204.21766662597656 L-415.2265930175781 181.63536071777344 L-92.80145263671875 699.4596557617188 Z" />
      </clipPath>
      <clipPath clipPathUnits="userSpaceOnUse" id="clipPath27">
        <path d="M-129.55099487304688 -494.1784973144531 L-129.55099487304688 115.82150268554688 L600.448974609375 115.82150268554688 L600.448974609375 -494.1784973144531 Z" />
      </clipPath>
      <clipPath clipPathUnits="userSpaceOnUse" id="clipPath28">
        <path d="M-570 -400 L-570 210 L160 210 L160 -400 Z" />
      </clipPath>
      <clipPath clipPathUnits="userSpaceOnUse" id="clipPath29">
        <path d="M-591.7598266601562 -409 L-591.7598266601562 201 L138.24020385742188 201 L138.24020385742188 -409 Z" />
      </clipPath>
      <clipPath clipPathUnits="userSpaceOnUse" id="clipPath30">
        <path d="M400 -650.6358032226562 L-210 -650.6358032226562 L-210 79.36419677734375 L400 79.36419677734375 Z" />
      </clipPath>
      <clipPath clipPathUnits="userSpaceOnUse" id="clipPath31">
        <path d="M-545.400390625 -313 L-545.400390625 297 L184.59959411621094 297 L184.59959411621094 -313 Z" />
      </clipPath>
      <clipPath clipPathUnits="userSpaceOnUse" id="clipPath32">
        <path d="M-66.91191101074219 -619.16162109375 L-300.8377685546875 -55.79788589477539 L373.35162353515625 224.14617919921875 L607.2774658203125 -339.2175598144531 Z" />
      </clipPath>
      <clipPath clipPathUnits="userSpaceOnUse" id="clipPath33">
        <path d="M-33.15602493286133 -517.946533203125 L-385.4803771972656 -19.983135223388672 L210.4430389404297 401.6509094238281 L562.7673950195312 -96.31248474121094 Z" />
      </clipPath>
      <clipPath clipPathUnits="userSpaceOnUse" id="clipPath34">
        <path d="M-333.3633117675781 -304.8460998535156 L-333.3633117675781 305.1539001464844 L396.6366882324219 305.1539001464844 L396.6366882324219 -304.8460998535156 Z" />
      </clipPath>
      <clipPath clipPathUnits="userSpaceOnUse" id="clipPath35">
        <path d="M-142.361328125 -579 L-142.361328125 31 L587.638671875 31 L587.638671875 -579 Z" />
      </clipPath>
    </defs>
    <g color-rendering="optimizeQuality" color-interpolation="linearRGB" text-rendering="geometricPrecision" stroke="white" fill="white" shape-rendering="crispEdges" image-rendering="optimizeQuality" transform="matrix(1,0,0,1,-70,10)">
      <rect x="70" y="-10" width="730" height="610" stroke="none" clip-path="url(#clipPath1)" />
      <circle cx="7.5" cy="7.5" r="7.5" stroke="none" clip-path="url(#clipPath2)" fill="black" transform="matrix(1,0,0,1,340,0)" />
    </g>
    <g color-rendering="optimizeQuality" stroke-miterlimit="1" color-interpolation="linearRGB" text-rendering="geometricPrecision" stroke-linecap="butt" shape-rendering="crispEdges" image-rendering="optimizeQuality" transform="matrix(1,0,0,1,270,10)">
      <circle cx="7.5" cy="7.5" r="7.5" clip-path="url(#clipPath2)" fill="none" />
    </g>
    <g font-family="sans-serif" font-size="11" color-rendering="optimizeQuality" color-interpolation="linearRGB" text-rendering="geometricPrecision" shape-rendering="crispEdges" image-rendering="optimizeQuality" transform="matrix(1,0,0,1,275.7598,30)">
      <text x="0" y="11" xml:space="preserve" stroke="none" clip-path="url(#clipPath3)"> </text>
    </g>
    <g font-family="sans-serif" font-size="11" color-rendering="optimizeQuality" color-interpolation="linearRGB" text-rendering="geometricPrecision" stroke="white" fill="white" shape-rendering="crispEdges" image-rendering="optimizeQuality" transform="matrix(1,0,0,1,220,90)">
      <rect x="0" y="0" width="116.3874" height="40" rx="10" ry="20" stroke="none" clip-path="url(#clipPath4)" />
    </g>
    <g font-family="sans-serif" font-size="11" color-rendering="optimizeQuality" stroke-miterlimit="1" color-interpolation="linearRGB" text-rendering="geometricPrecision" stroke-linecap="butt" shape-rendering="crispEdges" image-rendering="optimizeQuality" transform="matrix(1,0,0,1,220,90)">
      <rect x="0" y="0" width="116.3874" height="40" rx="10" ry="20" clip-path="url(#clipPath4)" fill="none" />
      <text x="0" y="11" xml:space="preserve" stroke-miterlimit="10" stroke="none" clip-path="url(#clipPath5)" stroke-linecap="square" transform="matrix(1,0,0,1,21.0445,9)">Recibir dinero</text>
    </g>
    <g font-family="sans-serif" font-size="11" color-rendering="optimizeQuality" stroke-miterlimit="1" color-interpolation="linearRGB" text-rendering="geometricPrecision" stroke-linecap="butt" shape-rendering="crispEdges" image-rendering="optimizeQuality" transform="matrix(1,0,0,1,-70,10)">
      <path d="M347.5 37 L347.5 80" clip-path="url(#clipPath1)" fill="none" />
      <path d="M10 5 L0 0 L10 -5" stroke-miterlimit="10" clip-path="url(#clipPath6)" fill="none" stroke-linecap="square" transform="matrix(5.412337245047638E-15,-1,1,5.412337245047638E-15,347.5,80)" />
    </g>
    <g font-family="sans-serif" font-size="11" color-rendering="optimizeQuality" color-interpolation="linearRGB" text-rendering="geometricPrecision" stroke="white" fill="white" shape-rendering="crispEdges" image-rendering="optimizeQuality" transform="matrix(1,0,0,1,170,200)">
      <rect x="0" y="0" width="228.3126" height="40" rx="17.123445" ry="20" stroke="none" clip-path="url(#clipPath7)" />
    </g>
    <g font-family="sans-serif" font-size="11" color-rendering="optimizeQuality" stroke-miterlimit="1" color-interpolation="linearRGB" text-rendering="geometricPrecision" stroke-linecap="butt" shape-rendering="crispEdges" image-rendering="optimizeQuality" transform="matrix(1,0,0,1,170,200)">
      <rect x="0" y="0" width="228.3126" height="40" rx="17.123445" ry="20" clip-path="url(#clipPath7)" fill="none" />
      <text x="0" y="11" xml:space="preserve" stroke-miterlimit="10" stroke="none" clip-path="url(#clipPath8)" stroke-linecap="square" transform="matrix(1,0,0,1,37.4356,9)">Comprobar Estado de Deuda</text>
    </g>
    <g font-family="sans-serif" font-size="11" color-rendering="optimizeQuality" stroke-miterlimit="1" color-interpolation="linearRGB" text-rendering="geometricPrecision" stroke-linecap="butt" shape-rendering="crispEdges" image-rendering="optimizeQuality" transform="matrix(1,0,0,1,-70,10)">
      <path d="M348.1936950683594 120 L348.1936950683594 190" clip-path="url(#clipPath1)" fill="none" />
      <path d="M10 5 L0 0 L10 -5" stroke-miterlimit="10" clip-path="url(#clipPath9)" fill="none" stroke-linecap="square" transform="matrix(-1.0547118733938987E-14,-0.9999999999999999,0.9999999999999999,-1.0547118733938987E-14,348.1937,190)" />
    </g>
    <g font-family="sans-serif" font-size="11" color-rendering="optimizeQuality" color-interpolation="linearRGB" text-rendering="geometricPrecision" stroke="white" fill="white" shape-rendering="crispEdges" image-rendering="optimizeQuality" transform="matrix(1,0,0,1,210,400)">
      <rect x="0" y="0" width="120.4512" height="40" rx="10" ry="20" stroke="none" clip-path="url(#clipPath10)" />
    </g>
    <g font-family="sans-serif" font-size="11" color-rendering="optimizeQuality" stroke-miterlimit="1" color-interpolation="linearRGB" text-rendering="geometricPrecision" stroke-linecap="butt" shape-rendering="crispEdges" image-rendering="optimizeQuality" transform="matrix(1,0,0,1,210,400)">
      <rect x="0" y="0" width="120.4512" height="40" rx="10" ry="20" clip-path="url(#clipPath10)" fill="none" />
      <text x="0" y="11" xml:space="preserve" stroke-miterlimit="10" stroke="none" clip-path="url(#clipPath11)" stroke-linecap="square" transform="matrix(1,0,0,1,21.6397,9)">Registrar Pago</text>
    </g>
    <g font-family="sans-serif" font-size="11" color-rendering="optimizeQuality" stroke-miterlimit="1" color-interpolation="linearRGB" text-rendering="geometricPrecision" stroke-linecap="butt" shape-rendering="crispEdges" image-rendering="optimizeQuality" transform="matrix(1,0,0,1,-70,10)">
      <path d="M341.2225036621094 230 L341.2225036621094 390" clip-path="url(#clipPath1)" fill="none" />
      <path d="M10 5 L0 0 L10 -5" stroke-miterlimit="10" clip-path="url(#clipPath12)" fill="none" stroke-linecap="square" transform="matrix(-1.4516166046973922E-14,-0.9999999999999993,0.9999999999999993,-1.4516166046973922E-14,341.2225,390)" />
    </g>
    <g font-family="sans-serif" font-size="11" color-rendering="optimizeQuality" color-interpolation="linearRGB" text-rendering="geometricPrecision" shape-rendering="crispEdges" image-rendering="optimizeQuality" transform="matrix(1,0,0,1,125.8329,313)">
      <text x="0" y="11" xml:space="preserve" stroke="none" clip-path="url(#clipPath13)">[ Cantidad pagos es 0 o 1]</text>
    </g>
    <g font-family="sans-serif" font-size="11" color-rendering="optimizeQuality" color-interpolation="linearRGB" text-rendering="geometricPrecision" stroke="white" fill="white" shape-rendering="crispEdges" image-rendering="optimizeQuality" transform="matrix(1,0,0,1,560,200)">
      <rect x="0" y="0" width="159.7751" height="40" rx="11.9831325" ry="20" stroke="none" clip-path="url(#clipPath14)" />
    </g>
    <g font-family="sans-serif" font-size="11" color-rendering="optimizeQuality" stroke-miterlimit="1" color-interpolation="linearRGB" text-rendering="geometricPrecision" stroke-linecap="butt" shape-rendering="crispEdges" image-rendering="optimizeQuality" transform="matrix(1,0,0,1,560,200)">
      <rect x="0" y="0" width="159.7751" height="40" rx="11.9831325" ry="20" clip-path="url(#clipPath14)" fill="none" />
      <text x="0" y="11" xml:space="preserve" stroke-miterlimit="10" stroke="none" clip-path="url(#clipPath15)" stroke-linecap="square" transform="matrix(1,0,0,1,27.3985,9)">Validar Ultimo Pago</text>
    </g>
    <g font-family="sans-serif" font-size="11" color-rendering="optimizeQuality" stroke-miterlimit="1" color-interpolation="linearRGB" text-rendering="geometricPrecision" stroke-linecap="butt" shape-rendering="crispEdges" image-rendering="optimizeQuality" transform="matrix(1,0,0,1,-70,10)">
      <path d="M468.3125915527344 210 L630 210" clip-path="url(#clipPath1)" fill="none" />
      <path d="M10 5 L0 0 L10 -5" stroke-miterlimit="10" clip-path="url(#clipPath16)" fill="none" stroke-linecap="square" transform="matrix(-0.9999999999999992,5.637937045310458E-15,-5.637937045310458E-15,-0.9999999999999992,630,210)" />
    </g>
    <g font-family="sans-serif" font-size="11" color-rendering="optimizeQuality" color-interpolation="linearRGB" text-rendering="geometricPrecision" shape-rendering="crispEdges" image-rendering="optimizeQuality" transform="matrix(1,0,0,1,419.2982,225)">
      <text x="0" y="11" xml:space="preserve" stroke="none" clip-path="url(#clipPath17)">[ Cantidad pagos es 2]</text>
    </g>
    <g font-family="sans-serif" font-size="11" color-rendering="optimizeQuality" color-interpolation="linearRGB" text-rendering="geometricPrecision" stroke="white" fill="white" shape-rendering="crispEdges" image-rendering="optimizeQuality" transform="matrix(1,0,0,1,10,400)">
      <rect x="0" y="0" width="100" height="40" rx="10" ry="20" stroke="none" clip-path="url(#clipPath18)" />
    </g>
    <g font-family="sans-serif" font-size="11" color-rendering="optimizeQuality" stroke-miterlimit="1" color-interpolation="linearRGB" text-rendering="geometricPrecision" stroke-linecap="butt" shape-rendering="crispEdges" image-rendering="optimizeQuality" transform="matrix(1,0,0,1,10,400)">
      <rect x="0" y="0" width="100" height="40" rx="10" ry="20" clip-path="url(#clipPath18)" fill="none" />
      <text x="0" y="11" xml:space="preserve" stroke-miterlimit="10" stroke="none" clip-path="url(#clipPath19)" stroke-linecap="square" transform="matrix(1,0,0,1,22.5027,9)">Dar vuelto</text>
    </g>
    <g font-family="sans-serif" font-size="11" color-rendering="optimizeQuality" stroke-miterlimit="1" color-interpolation="linearRGB" text-rendering="geometricPrecision" stroke-linecap="butt" shape-rendering="crispEdges" image-rendering="optimizeQuality" transform="matrix(1,0,0,1,-70,90)">
      <path d="M280 330 L180 330" clip-path="url(#clipPath20)" fill="none" />
      <path d="M10 5 L0 0 L10 -5" stroke-miterlimit="10" clip-path="url(#clipPath21)" fill="none" stroke-linecap="square" transform="matrix(1,-2.637114685015386E-15,2.637114685015386E-15,1,180,330)" />
    </g>
    <g font-family="sans-serif" font-size="11" color-rendering="optimizeQuality" color-interpolation="linearRGB" text-rendering="geometricPrecision" shape-rendering="crispEdges" image-rendering="optimizeQuality" transform="matrix(1,0,0,1,113.3628,401)">
      <text x="0" y="11" xml:space="preserve" stroke="none" clip-path="url(#clipPath22)">[importe &gt; saldo]</text>
    </g>
    <g font-family="sans-serif" font-size="11" color-rendering="optimizeQuality" color-interpolation="linearRGB" text-rendering="geometricPrecision" stroke="white" fill="white" shape-rendering="crispEdges" image-rendering="optimizeQuality" transform="matrix(1,0,0,1,280,540)">
      <circle cx="10" cy="10" r="10" stroke="none" clip-path="url(#clipPath23)" />
    </g>
    <g font-family="sans-serif" font-size="11" color-rendering="optimizeQuality" stroke-miterlimit="1" color-interpolation="linearRGB" text-rendering="geometricPrecision" stroke-linecap="butt" shape-rendering="crispEdges" image-rendering="optimizeQuality" transform="matrix(1,0,0,1,280,540)">
      <circle cx="10" cy="10" r="10" clip-path="url(#clipPath23)" fill="none" />
      <circle cx="10.5" cy="10.5" r="7.5" stroke-miterlimit="10" stroke="none" clip-path="url(#clipPath23)" stroke-linecap="square" />
      <text x="0" y="11" xml:space="preserve" stroke-miterlimit="10" stroke="none" clip-path="url(#clipPath24)" stroke-linecap="square" transform="matrix(1,0,0,1,-24.7349,25)">Final_State_3</text>
    </g>
    <g font-family="sans-serif" font-size="11" color-rendering="optimizeQuality" stroke-miterlimit="1" color-interpolation="linearRGB" text-rendering="geometricPrecision" stroke-linecap="butt" shape-rendering="crispEdges" image-rendering="optimizeQuality" transform="matrix(1,0,0,1,-70,90)">
      <path d="M360 350 L360 450" clip-path="url(#clipPath20)" fill="none" />
      <path d="M10 5 L0 0 L10 -5" stroke-miterlimit="10" clip-path="url(#clipPath25)" fill="none" stroke-linecap="square" transform="matrix(-1.326716514427062E-14,-1,1,-1.326716514427062E-14,360,450)" />
    </g>
    <g font-family="sans-serif" font-size="11" color-rendering="optimizeQuality" stroke-miterlimit="1" color-interpolation="linearRGB" text-rendering="geometricPrecision" stroke-linecap="butt" shape-rendering="crispEdges" image-rendering="optimizeQuality" transform="matrix(1,0,0,1,-70,90)">
      <path d="M176.2613067626953 345.5943908691406 L351.5111083984375 454.71429443359375" clip-path="url(#clipPath20)" fill="none" />
      <path d="M10 5 L0 0 L10 -5" stroke-miterlimit="10" clip-path="url(#clipPath26)" fill="none" stroke-linecap="square" transform="matrix(-0.848892344746744,-0.5285657830680844,0.5285657830680844,-0.848892344746744,351.5111,454.7143)" />
    </g>
    <g font-family="sans-serif" font-size="11" color-rendering="optimizeQuality" color-interpolation="linearRGB" text-rendering="geometricPrecision" shape-rendering="crispEdges" image-rendering="optimizeQuality" transform="matrix(1,0,0,1,129.551,494.1785)">
      <text x="0" y="11" xml:space="preserve" stroke="none" clip-path="url(#clipPath27)">anonymous</text>
    </g>
    <g font-family="sans-serif" font-size="11" color-rendering="optimizeQuality" color-interpolation="linearRGB" text-rendering="geometricPrecision" stroke="white" fill="white" shape-rendering="crispEdges" image-rendering="optimizeQuality" transform="matrix(1,0,0,1,570,400)">
      <rect x="0" y="0" width="121.2716" height="40" rx="10" ry="20" stroke="none" clip-path="url(#clipPath28)" />
    </g>
    <g font-family="sans-serif" font-size="11" color-rendering="optimizeQuality" stroke-miterlimit="1" color-interpolation="linearRGB" text-rendering="geometricPrecision" stroke-linecap="butt" shape-rendering="crispEdges" image-rendering="optimizeQuality" transform="matrix(1,0,0,1,570,400)">
      <rect x="0" y="0" width="121.2716" height="40" rx="10" ry="20" clip-path="url(#clipPath28)" fill="none" />
      <text x="0" y="11" xml:space="preserve" stroke-miterlimit="10" stroke="none" clip-path="url(#clipPath29)" stroke-linecap="square" transform="matrix(1,0,0,1,21.7598,9)">Rechazar Pago</text>
    </g>
    <g font-family="sans-serif" font-size="11" color-rendering="optimizeQuality" stroke-miterlimit="1" color-interpolation="linearRGB" text-rendering="geometricPrecision" stroke-linecap="butt" shape-rendering="crispEdges" image-rendering="optimizeQuality" transform="matrix(1,0,0,1,-70,10)">
      <path d="M720.6358032226562 230 L720.6358032226562 390" clip-path="url(#clipPath1)" fill="none" />
      <path d="M10 5 L0 0 L10 -5" stroke-miterlimit="10" clip-path="url(#clipPath30)" fill="none" stroke-linecap="square" transform="matrix(-2.3148150063434514E-14,-1,1,-2.3148150063434514E-14,720.6358,390)" />
    </g>
    <g font-family="sans-serif" font-size="11" color-rendering="optimizeQuality" color-interpolation="linearRGB" text-rendering="geometricPrecision" shape-rendering="crispEdges" image-rendering="optimizeQuality" transform="matrix(1,0,0,1,545.4004,313)">
      <text x="0" y="11" xml:space="preserve" stroke="none" clip-path="url(#clipPath31)">[ importe &lt; saldo ]</text>
    </g>
    <g font-family="sans-serif" font-size="11" color-rendering="optimizeQuality" stroke-miterlimit="1" color-interpolation="linearRGB" text-rendering="geometricPrecision" stroke-linecap="butt" shape-rendering="crispEdges" image-rendering="optimizeQuality" transform="matrix(1,0,0,1,-70,10)">
      <path d="M642.306884765625 422.777587890625 L369.2355041503906 536.1652221679688" clip-path="url(#clipPath1)" fill="none" />
      <path d="M10 5 L0 0 L10 -5" stroke-miterlimit="10" clip-path="url(#clipPath32)" fill="none" stroke-linecap="square" transform="matrix(0.923547099774775,-0.3834850120899135,0.3834850120899135,0.923547099774775,369.2355,536.1652)" />
    </g>
    <g font-family="sans-serif" font-size="11" color-rendering="optimizeQuality" stroke-miterlimit="1" color-interpolation="linearRGB" text-rendering="geometricPrecision" stroke-linecap="butt" shape-rendering="crispEdges" image-rendering="optimizeQuality" transform="matrix(1,0,0,1,-70,10)">
      <path d="M634.2390747070312 225.2626953125 L396.222412109375 393.66680908203125" clip-path="url(#clipPath1)" fill="none" />
      <path d="M10 5 L0 0 L10 -5" stroke-miterlimit="10" clip-path="url(#clipPath33)" fill="none" stroke-linecap="square" transform="matrix(0.816333450676403,-0.5775809010924414,0.5775809010924414,0.816333450676403,396.2224,393.6668)" />
    </g>
    <g font-family="sans-serif" font-size="11" color-rendering="optimizeQuality" color-interpolation="linearRGB" text-rendering="geometricPrecision" shape-rendering="crispEdges" image-rendering="optimizeQuality" transform="matrix(1,0,0,1,333.3633,304.8461)">
      <text x="0" y="11" xml:space="preserve" stroke="none" clip-path="url(#clipPath34)">[ importe &gt;= saldo ]</text>
    </g>
    <g color-rendering="optimizeQuality" color-interpolation="linearRGB" text-rendering="geometricPrecision" shape-rendering="crispEdges" image-rendering="optimizeQuality" transform="matrix(1,0,0,1,142.361328125,579)">
      <text x="0" y="12" xml:space="preserve" stroke="none" clip-path="url(#clipPath35)">Created with Poseidon for UML Community Edition. Not for Commercial Use.</text>
    </g>
  </g>
</svg>
