#define actor2_width 8
#define actor2_height 8
static char actor2_bits[] = {
   0x1c, 0x14, 0x1c, 0x08, 0x3e, 0x08, 0x14, 0x22};
