/* XPM */
static char* actor_usecase_cur_xpm[] = {
/* width height ncolors cpp [x_hot y_hot] */
"32 32 3 1 0 0",
/* colors */
".	m none	c none",
"X	m #000000	c #000000",
" 	m #ffffff	c #ffffff",
/* pixels */
"XX..............................",
"X X.............................",
"X  X............................",
"X   X...........................",
"X    X..........................",
"X     X.........................",
"X      X........................",
"X       X.......................",
"X        X......................",
"X         X.....................",
"X      XXXXX....................",
"X   X  X........................",
"X  XX  X........................",
"X X..X  X........XX.............",
"XX...X  X.......XXXX............",
"X.....X  X.....XX  XX...........",
"......X  X.....XX  XX...........",
".......X  X.....XXXX............",
".......X  X......XX.............",
"........XX......XXXX............",
"...............XXXXXX...........",
"..............XX.XX.XX..........",
".............XX..XX..XX.........",
".................XX.............",
"................XXXX............",
"...............XX..XX...........",
"..............XX....XX..........",
".............XX......XX.........",
"................................",
"................................",
"................................",
"................................"};
