/* XPM */
static char* actor_collaboration_xpm[] = {
/* width height ncolors cpp [x_hot y_hot] */
"16 16 3 1 0 0",
/* colors */
".	m none	c none",
"X	m #000000	c #000000",
" 	m #ffffff	c #ffffff",
/* pixels */
"XXXXXXXXXXXXX...",
"X           X ..",
"X ..........X ..",
"X ..........X ..",
"X ..........X ..",
"X ..........X ..",
"X ........... ..",
"X .........X....",
"X ........X X...",
"X .........X. ..",
"XXXXXXX...XXX...",
".       .X.X.X..",
".......... X.. .",
"..........X.X...",
".........X. .X..",
".......... ... ."};
