#define asyn0_width 13
#define asyn0_height 13
static char asyn0_bits[] = {
   0x00, 0x00, 0x30, 0x00, 0xc0, 0x00, 0x00, 0x03, 0x00, 0x0c, 0xff, 0x1f,
   0x00, 0x00, 0x00, 0x00, 0x00, 0x00, 0x00, 0x00, 0x00, 0x00, 0x00, 0x00,
   0x00, 0x00};
