#define asyn1_width 11
#define asyn1_height 11
static char asyn1_bits[] = {
   0x00, 0x00, 0x30, 0x00, 0xc0, 0x00, 0x00, 0x03, 0xff, 0x07, 0x00, 0x00,
   0x00, 0x00, 0x00, 0x00, 0x00, 0x00, 0x00, 0x00, 0x00, 0x00};
