#define balk1_width 11
#define balk1_height 11
static char balk1_bits[] = {
   0x10, 0x00, 0x1c, 0x00, 0x7e, 0x00, 0x9c, 0x00, 0x10, 0x01, 0x00, 0x02,
   0x00, 0x02, 0x00, 0x02, 0x00, 0x01, 0x80, 0x00, 0x7f, 0x00};
