#define balk0_width 13
#define balk0_height 13
static char balk0_bits[] = {
   0x10, 0x00, 0x1c, 0x00, 0x3e, 0x00, 0xdc, 0x00, 0x10, 0x01, 0x00, 0x01,
   0x00, 0x02, 0x00, 0x02, 0x00, 0x02, 0x00, 0x01, 0x00, 0x01, 0xc0, 0x00,
   0x3e, 0x00};
