/* XPM */
static char *boochmodule_32[] = {
/* width height ncolors chars_per_pixel */
"32 32 5 1",
/* colors */
"` c #000000",
"a c #808080",
"b c #2A5FFF",
"c c #FFFFFF",
"d c #FFFF00",
/* pixels */
"cccccccccccccccccccccccccccccccc",
"cccccccccccccccccccccccccccccccc",
"ccccccccccc`aacccccccccccccccccc",
"cccccccccc`d`aaccccccccccccccccc",
"ccccccccc`ddd`aacccccccccccccccc",
"cccccccc`ddddd`aaccccccccccccccc",
"ccccccc`ddddddd`aacccccccccccccc",
"cccccc`ddddddddd`aaccccccccccccc",
"ccccc`ddddddddddd`aacccccccccccc",
"cccc`ddddddddddddd`aaccccccccccc",
"ccc`ddd```adddddddd`aacccccccccc",
"cc`ddd`bbb`adddddddd`aaccccccccc",
"c``dd`bbbb`addddddddd`aacccccccc",
"cc```bbbbb`adddddddddd`aaccccccc",
"ccc`bbbbb`add`adddddddd`aacccccc",
"cc`bbbbb`add`b`adddddddd`aaccccc",
"c`bbbbb`add`bbb`adddddddd`aacccc",
"`bbbbb``dd`bbb`adddddddddd`aaccc",
"`bbbb`ac``bbb`add`adddddddd`aacc",
"`bbb`acc`bbb`add`b`adddddd`aaccc",
"c```acc`bbb`add`bbb`adddd`aacccc",
"cccccc`bbb``dd`bbb`adddd`aaccccc",
"ccccc`bbb`ac``bbb`adddd`aacccccc",
"cccc`bbb`acc`bbb`adddd`aaccccccc",
"ccccc`b`acc`bbb`adddd`aacccccccc",
"cccccc`acc`bbb`adddd`aaccccccccc",
"ccccccccc`bbb`a``dd`aacccccccccc",
"cccccccc`bbb`acc`d`aaccccccccccc",
"ccccccccc`b`acccc`aacccccccccccc",
"cccccccccc`acccccccccccccccccccc",
"cccccccccccccccccccccccccccccccc",
"cccccccccccccccccccccccccccccccc"
};
