/* XPM */
static char *boochcategories_32[] = {
/* width height ncolors chars_per_pixel */
"32 32 5 1",
/* colors */
"` c #000000",
"a c #2A00FF",
"b c #553FFF",
"c c #2A5FFF",
"d c #FFFFFF",
/* pixels */
"dddddddddddddddddddddddddddddddd",
"dddddddddddddddddddddddddddddddd",
"dddddddddddddddddddddddddddddddd",
"dddddddddddd```````ddddddddddddd",
"ddddddddddd`a`a`a`a`dddddddddddd",
"dddddddddd`aaa`a`a`a`ddddddddddd",
"ddddddddd`aaaaa`a`a`a`dddddddddd",
"dddddddd`aaaaaaa`a`a`a`ddddddddd",
"ddddddd`aaaaaaa`c`c`c`c`dddddddd",
"dddddd`aaaaaaa`ccc`c`c`c`ddddddd",
"ddddd`aaaaaaa`ccccc`c`c`c`dddddd",
"dddd`aaaaaaa`ccccccc`c`c`c`ddddd",
"ddd`aaaaaaa`ccccccc`b`b`b`b`dddd",
"dd`aaaaaaa`ccccccc`bbb`b`b`b`ddd",
"d`aaaaaaa`ccccccc`bbbbb`b`b`b`dd",
"dd`aaaaa`ccccccc`bbbbbbb`b`b`b`d",
"ddd`aaa`ccccccc`bbbbbbbbb`b`b`b`",
"dddd`a`ccccccc`bbbbbbbbb`b`b`b`d",
"ddddd`ccccccc`bbbbbbbbb`b`b`b`dd",
"dddddd`ccccc`bbbbbbbbb`b`b`b`ddd",
"ddddddd`ccc`bbbbbbbbb`b`b`b`dddd",
"dddddddd`c`bbbbbbbbb`b`b`b`ddddd",
"ddddddddd`bbbbbbbbb`b`b`b`dddddd",
"dddddddddd`bbbbbbb`b`b`b`ddddddd",
"ddddddddddd`bbbbb`b`b`b`dddddddd",
"dddddddddddd`bbb`b`b`b`ddddddddd",
"ddddddddddddd`b`b`b`b`dddddddddd",
"dddddddddddddd```````ddddddddddd",
"dddddddddddddddddddddddddddddddd",
"dddddddddddddddddddddddddddddddd",
"dddddddddddddddddddddddddddddddd",
"dddddddddddddddddddddddddddddddd"
};
