/* XPM */
static char* class_diagrams_xpm[] = {
/* width height ncolors cpp [x_hot y_hot] */
"16 16 5 1 0 0",
/* colors */
".	m none	c none",
"X	m #000000	c #000000",
" 	m #ffffff	c #ffffff",
"O	m #000000	c #00ffff",
"o	m #ffffff	c #c0c0c0",
/* pixels */
"....XXXXXXX.....",
"....XOOOOOXo....",
"....XOOOOOXo....",
"....X o o Xo....",
"....Xo o oXo....",
"....XXXXXXXo....",
".....oXooXoo....",
".....X....X.....",
"....X......X....",
"XXXXXXX.XXXXXXX.",
"XOOOOOXoXOOOOOXo",
"XOOOOOXoXOOOOOXo",
"X o o XoX o o Xo",
"Xo o oXoXo o oXo",
"XXXXXXXoXXXXXXXo",
".ooooooo.ooooooo"};
