/* XPM */
static char* collaboration_diagrams_xpm[] = {
/* width height ncolors cpp [x_hot y_hot] */
"16 16 5 1 0 0",
/* colors */
".	m none	c none",
"X	m #000000	c #000000",
" 	m #ffffff	c #ffffff",
"O	m #000000	c #00ffff",
"o	m #ffffff	c #c0c0c0",
/* pixels */
"XXXXXXX.........",
"XOOOOOX.........",
"X o o Xo........",
"Xo o oXo........",
"XXXXXXXo........",
".ooXoooo........",
"...X............",
"..XXX...........",
"...Xoo..........",
"...oo...........",
"XXXXXXX.....XXXX",
"XOOOOOX..X..XOOO",
"X o o XXXXX.X o ",
"Xo o oXo.X..Xo o",
"XXXXXXXo....XXXX",
"oooooooo.....ooo"};
