/* XPM */
static char* component_diagrams_xpm[] = {
/* width height ncolors cpp [x_hot y_hot] */
"16 16 5 1 0 0",
/* colors */
".	m none	c none",
"X	m #000000	c #000000",
" 	m #ffffff	c #ffffff",
"O	m #000000	c #00ffff",
"o	m #ffffff	c #c0c0c0",
/* pixels */
".XXXXXXXX.......",
".XOOOOOOX.......",
"XOXOOOOOX.......",
".X o o oXX......",
"XOX o o X.......",
".X o o oX..X....",
".XXXXXXXX.......",
".............X.X",
".XXXXXXXX.....XX",
".XOOOOOOX....XXX",
"XOXOOOOOX.......",
".X o o oX.....X.",
"XOX o o XXXXXX.X",
".X o o oX.....X.",
".XXXXXXXX.......",
"................"};
