/* XPM */
static char* constraint_l_cur_xpm[] = {
/* width height ncolors cpp [x_hot y_hot] */
"32 32 3 1 0 0",
/* colors */
".	m none	c none",
"X	m #000000	c #000000",
" 	m #ffffff	c #ffffff",
/* pixels */
"XX..............................",
"XXX.............................",
"XXXX............................",
"XXXXX...........................",
"XXXXXX..........................",
"XXXXXXX.........................",
"XXXXXXXX........................",
"XXXXXXXXX.......................",
"XXXXXXXXXX......................",
"XXXXXXXXXXX.....................",
"XXXXXXXXXXXX....................",
"XXXXXXXX........................",
"XXXXXXXX........................",
"XXX..XXXX......XX........XX.....",
"XX...XXXX.....XX..........XX....",
"X.....XXXX....XX..........XX....",
"......XXXX....XX...XXXX...XX....",
".......XXXX...XX......XX..XX....",
".......XXXX..XX....XXXXX...XX...",
"........XX....XX..XX  XX..XX....",
"..............XX..XX  XX..XX....",
"..............XX...XXXXX..XX....",
"..............XX..........XX....",
"...............XX........XX.....",
"................................",
"................................",
"................................",
"................................",
"................................",
"................................",
"................................",
"................................"};
