/* XPM */
static char* deep_history_xpm[] = {
/* width height ncolors cpp [x_hot y_hot] */
"16 16 3 1 0 0",
/* colors */
".	m none	c none",
"X	m #000000	c #000000",
" 	m #ffffff	c #ffffff",
/* pixels */
"................",
".....XXXXXX.....",
"....X......X....",
"...X........X...",
"..X..XX..XXXXX..",
".X...XX .XXXX.X.",
".X...XX .XX ..X ",
".X...XXXXXX ..X ",
".X...XX  XX ..X ",
".X...XX .XX ..X ",
".X...XX .XX ..X ",
"..X...  ..  .X. ",
"...X........X. .",
"....X......X. ..",
".....XXXXXX. ...",
"......      ...."};
