/* XPM */
static char* deployment_diagrams_xpm[] = {
/* width height ncolors cpp [x_hot y_hot] */
"16 16 7 1 0 0",
/* colors */
".	m none	c none",
"X	m #000000	c #000000",
" 	m #ffffff	c #ffffff",
"O	m #ffffff	c #c0c0c0",
"o	m #000000	c #808080",
"x	m #000000	c #0000ff",
"+	m #000000	c #00ffff",
/* pixels */
"XXXXXXXXXXXXXX..",
"XOOXOOOOXOXOOXO.",
"XOOoOOOOoOoOOXO.",
"XOOxxxxxxxxOOXO.",
"XOOx++++++xOOXO.",
"XOx+xOOOOOxOOXO.",
"XOOx      xOOXO.",
"XOx+x     xOOXO.",
"XOOx      xOOXO.",
"XOOxxxxxxxxOOXO.",
"XOOOOOOOOOOOOXO.",
"XXXXXXXoXXXXXXO.",
".OOOOOOXOOOOOOO.",
".......X........",
"......XXX.......",
".......X........"};
