/* XPM */
static char* end_time_xpm[] = {
/* width height ncolors cpp [x_hot y_hot] */
"16 16 3 1 0 0",
/* colors */
".	m none	c none",
"X	m #000000	c #000000",
" 	m #ffffff	c #ffffff",
/* pixels */
"................",
"............XXX.",
".XXXX...X...XXX ",
"..  XX..X ..XXX ",
".XXXXX .X ..XXX ",
"XX  XX .. ..XXX ",
"XX .XX .....XXX ",
".XXXXX .....XXX ",
"..     X....XXX ",
".......XX...XXX ",
"XXXXXXXXXX .XXX ",
".      XX ..XXX ",
".......X ...XXX ",
"............XXX ",
".............   ",
"................"};
