/* XPM */
static char* executable_component_l_cur_xpm[] = {
/* width height ncolors cpp [x_hot y_hot] */
"32 32 3 1 0 0",
/* colors */
".	m none	c none",
"X	m #000000	c #000000",
" 	m #ffffff	c #ffffff",
/* pixels */
"XX..............................",
"XXX.............................",
"XXXX............................",
"XXXXX...........................",
"XXXXXX..........................",
"XXXXXXX.........................",
"XXXXXXXX........................",
"XXXXXXXXX.......................",
"XXXXXXXXXX......................",
"XXXXXXXXXXX.....................",
"XXXXXXXXXXXX....................",
"XXXXXXXX........................",
"XXXXXXXX........................",
"XXX..XXXX.......XXXXXXXXXXXX....",
"XX...XXXX.......X          X....",
"X.....XXXX......X    XXXX  X....",
"......XXXX......X    XX    X....",
".......XXXX.....X    XX    X....",
".......XXXX.....X    XXXX  X....",
"........XX...XXXXXXX XX    X....",
".............X     X XX    X....",
".............XXXXXXX XXXX  X....",
"................X          X....",
".............XXXXXXX       X....",
".............X     X       X....",
".............XXXXXXX       X....",
"................X          X....",
"................XXXXXXXXXXXX....",
"................................",
"................................",
"................................",
"................................"};
