/* XPM */
static char* extension_point_l_cur_xpm[] = {
/* width height ncolors cpp [x_hot y_hot] */
"32 32 3 1 0 0",
/* colors */
".	m none	c none",
"X	m #000000	c #000000",
" 	m #ffffff	c #ffffff",
/* pixels */
"XX..............................",
"XXX.............................",
"XXXX............................",
"XXXXX...........................",
"XXXXXX..........................",
"XXXXXXX.........................",
"XXXXXXXX........................",
"XXXXXXXXX.......................",
"XXXXXXXXXX......................",
"XXXXXXXXXXX.....................",
"XXXXXXXXXXXX....................",
"XXXXXXXX........................",
"XXXXXXXX........................",
"XXX..XXXX.......................",
"XX...XXXX.......................",
"X.....XXXX......................",
"......XXXX......................",
".......XXXX.....................",
".......XXXX.....................",
"........XX......................",
"................................",
"...............X...X..X...X.....",
"..............XX..X....X..XX....",
".............XXXXX..XX..XXXXX...",
"..............XX..X....X..XX....",
"...............X...X..X...X.....",
"................................",
"................................",
"................................",
"................................",
"................................",
"................................"};
