/* XPM */
static char* final_state_cur_xpm[] = {
/* width height ncolors cpp [x_hot y_hot] */
"32 32 3 1 0 0",
/* colors */
".	m none	c none",
"X	m #000000	c #000000",
" 	m #ffffff	c #ffffff",
/* pixels */
"XX..............................",
"X X.............................",
"X  X............................",
"X   X...........................",
"X    X..........................",
"X     X.........................",
"X      X........................",
"X       X.......................",
"X        X......................",
"X         X.....................",
"X      XXXXX....................",
"X   X  X........................",
"X  XX  X........................",
"X X..X  X........XXXXXX.........",
"XX...X  X.......X......X........",
"X.....X  X.....X..XXXX..X.......",
"......X  X....X..XXXXXX..X......",
".......X  X..X..XXXXXXXX..X.....",
".......X  X..X.XXXXXXXXXX.X.....",
"........XX...X.XXXXXXXXXX.X.....",
".............X.XXXXXXXXXX.X.....",
".............X.XXXXXXXXXX.X.....",
".............X..XXXXXXXX..X.....",
"..............X..XXXXXX..X......",
"...............X..XXXX..X.......",
"................X......X........",
".................XXXXXX.........",
"................................",
"................................",
"................................",
"................................",
"................................"};
