/* XPM */
static char* final_state_xpm[] = {
/* width height ncolors cpp [x_hot y_hot] */
"16 16 3 1 0 0",
/* colors */
".	m none	c none",
"X	m #000000	c #000000",
" 	m #ffffff	c #ffffff",
/* pixels */
"................",
".....XXXXXX.....",
"....X......X....",
"...X..XXXX..X...",
"..X..XXXXXX..X..",
".X..XXXXXXXX..X.",
".X.XXXXXXXXXX.X ",
".X.XXXXXXXXXX.X ",
".X.XXXXXXXXXX.X ",
".X.XXXXXXXXXX.X ",
".X..XXXXXXXX..X ",
"..X..XXXXXX..X. ",
"...X..XXXX..X. .",
"....X......X. ..",
".....XXXXXX. ...",
"......      ...."};
