/* XPM */
static char* package_xpm[] = {
/* width height ncolors cpp [x_hot y_hot] */
"16 16 4 1 0 0",
/* colors */
".	m none	c none",
"X	m #000000	c #000000",
" 	m #ffffff	c #ffffff",
"O	m #000000	c #808080",
/* pixels */
"XXXXXXXXXXX.....",
"X         X ....",
"X ........X ....",
"X .OOOOOO.X ....",
"X ........X ....",
"XXXXXXXXXXXXXXX.",
"X             X ",
"X ............X ",
"X .OOOOOOOO...X ",
"X ............X ",
"X ............X ",
"X .OOOOOOOO...X ",
"X ............X ",
"X ............X ",
"XXXXXXXXXXXXXXX ",
".               "};
