/* XPM */
static char* passive_object_cur_xpm[] = {
/* width height ncolors cpp [x_hot y_hot] */
"32 32 3 1 0 0",
/* colors */
".	m none	c none",
"X	m #000000	c #000000",
" 	m #ffffff	c #ffffff",
/* pixels */
"XX..............................",
"X X.............................",
"X  X............................",
"X   X...........................",
"X    X..........................",
"X     X.........................",
"X      X........................",
"X       X.......................",
"X        X......................",
"X         X.....................",
"X      XXXXX....................",
"X   X  X.....XXXXXXXXXXXXXX.....",
"X  XX  X.....X            X.....",
"X X..X  X....X XXX X XXXX X.....",
"XX...X  X....X            X.....",
"X.....X  X...X XXXXXXXXXX X.....",
"......X  X...X     XX     X.....",
".......X  X..XXXXXXXXXXXXXX.....",
".......X  X........XX...........",
"........XX.........XX...........",
"................X..XX...........",
"...XXXXXXXXXXXXXXXX  X..........",
"................X.X  X..........",
"..................X  X..........",
"....X.............X  X..........",
"...XXXXXXXXXXXXXXXX  X..........",
"....X..............XX...........",
"...................XX...........",
"...................XX...........",
"................................",
"................................",
"................................"};
