/* XPM */
static char* passive_object_xpm[] = {
/* width height ncolors cpp [x_hot y_hot] */
"16 16 3 1 0 0",
/* colors */
".	m none	c none",
"X	m #000000	c #000000",
" 	m #ffffff	c #ffffff",
/* pixels */
"XXXXXXXXXXXXXX..",
"X            X .",
"X XXX.X.XXXX.X .",
"X ...........X .",
"X XXXXXXXXXX.X .",
"X ....XX.....X .",
"XXXXXXXXXXXXXX .",
".     XX       .",
"......XX........",
"......XX........",
".....X  X.......",
".....X  X.......",
".....X  X.......",
".....X  X.......",
"......XX........",
"......XX........"};
