/* XPM */
static char* source_component_xpm[] = {
/* width height ncolors cpp [x_hot y_hot] */
"16 16 4 1 0 0",
/* colors */
".	m none	c none",
"X	m #000000	c #000000",
" 	m #ffffff	c #ffffff",
"O	m #000000	c #848284",
/* pixels */
"...XXXXXXXXXXXX.",
"...X          X ",
"...X.....XXX..X ",
"...X....XX.XX.X ",
"...X....XX....X ",
"...X.....XXX..X ",
"XXXXXXX....XX.X ",
"X.....X XX.XX.X ",
"XXXXXXX .XXX..X ",
".  O    ......X ",
"XXXXXXX.......X ",
"X.....X.......X ",
"XXXXXXX ......X ",
".  O    ......X ",
"...XXXXXXXXXXXX ",
"....            "};
