/* XPM */
static char* splitcontrol_xpm[] = {
/* width height ncolors cpp [x_hot y_hot] */
"16 16 3 1 0 0",
/* colors */
".	m none	c none",
"X	m #000000	c #000000",
" 	m #ffffff	c #ffffff",
/* pixels */
"................",
".......X........",
".......X........",
".......X........",
".......X........",
"......XXX.......",
".......X........",
".XXXXXXXXXXXXXX.",
".XXXXXXXXXXXXXX.",
".  X       X  ..",
"...X.......X....",
"...X.......X....",
"..XXX.....XXX...",
"...X.......X....",
"................",
"................"};
