/* XPM */
static char* state_machine_xpm[] = {
/* width height ncolors cpp [x_hot y_hot] */
"16 16 3 1 0 0",
/* colors */
".	m none	c none",
"X	m #000000	c #000000",
" 	m #ffffff	c #ffffff",
/* pixels */
"...XXX..XX ..XX.",
"..XX XX.XXX XXX ",
"..XX..  XXXXXXX ",
"...XXX..XX X XX ",
".....XX.XX ..XX ",
"..XX XX XX ..XX ",
"...XXX  XX ..XX ",
"....   ..  ...  ",
"........XXXXXXX.",
".......X.      .",
"......X. .......",
"......X ........",
"......X ........",
"......X ........",
"......X ........",
"......X ........"};
