/* XPM */
static char* state_diagrams_xpm[] = {
/* width height ncolors cpp [x_hot y_hot] */
"16 16 5 1 0 0",
/* colors */
".	m none	c none",
"X	m #000000	c #000000",
" 	m #ffffff	c #ffffff",
"O	m #000000	c #00ffff",
"o	m #ffffff	c #c0c0c0",
/* pixels */
"................",
"XXXX.....XXXXX..",
"OOOXo.X.XOOOOOX.",
" o XXXXXX o o Xo",
"o oXo.XoXo o oXo",
"XXXXo..o.XXXXX.o",
"ooooo.....oXooo.",
"...........X....",
"..........XXXo..",
"...........Xo...",
".........XXXXX..",
"........XOOOOOX.",
"........X o o Xo",
"........Xo o oXo",
".........XXXXX.o",
"..........ooooo."};
