/* XPM */
static char* stereotype_diagrams_xpm[] = {
/* width height ncolors cpp [x_hot y_hot] */
"16 16 5 1 0 0",
/* colors */
".	m none	c none",
"X	m #000000	c #000000",
" 	m #ffffff	c #ffffff",
"O	m #ffffff	c #c0c0c0",
"o	m #000000	c #0000ff",
/* pixels */
"..........OOOOOO",
".........ooooooO",
".............ooO",
"........OOOOO.oO",
".......oooooO.oO",
"..........ooO.oO",
"...........oO.oO",
"....O......oO.o.",
"...oO......oO...",
".O.oO......o....",
"oO.oOO..........",
"oO.ooOOOO.......",
"oO.ooooo........",
"oOO.............",
"ooOOOOO.........",
"oooooo.........."};
