/* XPM */
static char* StP_UML_32x32_xpm[] = {
/* width height ncolors cpp [x_hot y_hot] */
"32 32 6 1 0 0",
/* colors */
".	m none	c none",
"X	m #000000	c #000000",
" 	m #ffffff	c #ffffff",
"O	m #000000	c #008080",
"o	m #000000	c #808080",
"x	m #000000	c #00ffff",
/* pixels */
".OOOOOOOOOOOOOOOOOOOOOOOOOOOOOO.",
"OOOOOOOOOOOOOOOOOOOOOOOOOOOOOOOO",
"OOOOOOOOOOOOOOOOOOOOOOOOOOOOOOOO",
"OOOOOOOOOOOOOOOOOOOOOOOOOOOOOOOO",
"OOOOOOOOOOOOOOOOOOOOOOOOOOOOOOOO",
"OOOOOOOOOOOOOOOOOOOOOOOOOOOOOOOO",
"OOOOOOOOOOOOO      oOOOOOOOOOOOO",
"OOOOOOOOOO            oOOOOOOOOO",
"OOOOOOOO                OOOOOOOO",
"OOOOOO      ooOOOoo      oOOOOOO",
"OOOO     OOOOOOOOOOOOo     OOOOO",
"OOo   oOOOOOOOOOOOOOOOO     OOOO",
"O   OOOOOOOOOOxxxxOOOOOOO   OOOO",
"  OOOOOOOOOOOxxxxxxOOOOOOO OOOOO",
"OOOOOOOOOOOOxxxxxxxxOOOOOOOOOOOO",
"OOOOOOOOOOOOxxxxxxxxOOOOOOOOOOOO",
"OOOOOOOOOOOOxxxxxxxxOOOOOOOOOOOO",
"OOOOOOOOOOOOxxxxxxxxOOOOOOOOOOOO",
"OOOOO OOOOOOOxxxxxxOOOOOOOOOOO  ",
"OOOO   OOOOOOOxxxxOOOOOOOOOO   O",
"OOOO     OOOOOOOOOOOOOOOOo   oOO",
"OOOOO     oOOOOOOOOOOOO     OOOO",
"OOOOOOo      ooOOOoo      OOOOOO",
"OOOOOOOO                OOOOOOOO",
"OOOOOOOOOo            OOOOOOOOOO",
"OOOOOOOOOOOOo      OOOOOOOOOOOOO",
"OOOOOOOOOOOOOOOOOOOOOOOOOOOOOOOO",
"OOOOOOOOOOOOOOOOOOOOOOOOOOOOOOOO",
"OOOOOOOOOOOOOOOOOOOOOOOOOOOOOOOO",
"OOOOOOOOOOOOOOOOOOOOOOOOOOOOOOOO",
"OOOOOOOOOOOOOOOOOOOOOOOOOOOOOOOO",
".OOOOOOOOOOOOOOOOOOOOOOOOOOOOOO."};
