/* Made with Gimp */
#define substate1_width 12
#define substate1_height 12
static char substate1_bits[] = {
   0x00, 0x00, 0xc0, 0x03, 0x20, 0x04, 0x20, 0x04, 0xc0, 0x03, 0x40, 0x00,
   0x20, 0x00, 0x1e, 0x00, 0x21, 0x00, 0x21, 0x00, 0x1e, 0x00, 0x00, 0x00 };
