#define sync2_width 9
#define sync2_height 9
static char sync2_bits[] = {
   0x01, 0x01, 0x82, 0x00, 0x44, 0x00, 0x28, 0x00, 0x10, 0x00, 0x28, 0x00,
   0x44, 0x00, 0x82, 0x00, 0x01, 0x01};
