/* XPM */
static char* this_system_l_cur_xpm[] = {
/* width height ncolors cpp [x_hot y_hot] */
"32 32 3 1 0 0",
/* colors */
".	m none	c none",
"X	m #000000	c #000000",
" 	m #ffffff	c #ffffff",
/* pixels */
"XX..............................",
"XXX.............................",
"XXXX............................",
"XXXXX...........................",
"XXXXXX..........................",
"XXXXXXX.........................",
"XXXXXXXX........................",
"XXXXXXXXX.......................",
"XXXXXXXXXX......................",
"XXXXXXXXXXX.....................",
"XXXXXXXXXXXX....................",
"XXXXXXXX........................",
"XXXXXXXX........................",
"XXX..XXXX..........XXXXX.X......",
"XX...XXXX..........XXXXX.X......",
"X.....XXXX......................",
"......XXXX...XXXXXXXXXXXXXXX....",
".......XXXX..X             X....",
".......XXXX..X     XXXXX X X....",
"........XX...X     XXXXX X X....",
".............X             X....",
".............X   X   XXX X X....",
".............X   XX  XXX X X....",
".............XXXXXXX       X....",
".............X   XX        X....",
".............X   X         X....",
".............X             X....",
".............XXXXXXXXXXXXXXX....",
"................................",
"................................",
"................................",
"................................"};
