#define time1_width 11
#define time1_height 11
static char time1_bits[] = {
   0x20, 0x00, 0xfc, 0x01, 0x22, 0x02, 0x22, 0x02, 0x22, 0x02, 0x21, 0x04,
   0x12, 0x02, 0x0a, 0x02, 0x06, 0x02, 0xdc, 0x01, 0x20, 0x00};
