#define time2_width 9
#define time2_height 9
static char time2_bits[] = {
   0x7c, 0x00, 0x92, 0x00, 0x11, 0x01, 0x11, 0x01, 0x11, 0x01, 0x09, 0x01,
   0x05, 0x01, 0x82, 0x00, 0x7c, 0x00};
