#define uae_width 48
#define uae_height 48
static char uae_bits[] = {
   0x00, 0x00, 0x00, 0x00, 0x00, 0x00, 0x00, 0x00, 0x00, 0x00, 0x00, 0x00,
   0x00, 0x00, 0x00, 0x00, 0x00, 0x00, 0x00, 0x00, 0x00, 0x00, 0x00, 0x00,
   0x00, 0x00, 0x00, 0x00, 0x00, 0x00, 0x00, 0x00, 0x00, 0x00, 0x00, 0x00,
   0x00, 0x08, 0x00, 0x00, 0x00, 0x00, 0x00, 0x14, 0x00, 0x00, 0x00, 0x00,
   0x00, 0x22, 0x00, 0x00, 0x00, 0x00, 0xff, 0xc1, 0x0f, 0x00, 0x00, 0x00,
   0x00, 0x22, 0x10, 0x00, 0x00, 0x00, 0x00, 0x14, 0x20, 0x00, 0x00, 0x00,
   0x00, 0x08, 0x40, 0x00, 0x00, 0x00, 0x00, 0x00, 0x80, 0x00, 0x00, 0x00,
   0x00, 0x00, 0x00, 0x01, 0x07, 0x00, 0x00, 0x00, 0x00, 0x92, 0x08, 0x00,
   0x00, 0x00, 0x00, 0x54, 0x10, 0x00, 0x00, 0x00, 0x00, 0x38, 0x20, 0x00,
   0x00, 0x00, 0x00, 0x1e, 0x40, 0x00, 0x00, 0x00, 0x00, 0x08, 0x40, 0x00,
   0x00, 0x00, 0x00, 0x04, 0x40, 0x00, 0x00, 0x00, 0x00, 0x02, 0x20, 0x00,
   0x00, 0x00, 0x00, 0x01, 0x10, 0x00, 0x00, 0x00, 0x00, 0x01, 0x08, 0x00,
   0x00, 0x00, 0x00, 0x01, 0x04, 0x00, 0x00, 0x04, 0x00, 0x02, 0x02, 0x00,
   0x00, 0x0e, 0xc0, 0x07, 0x01, 0x00, 0x00, 0x1c, 0x00, 0x8e, 0x00, 0x00,
   0x00, 0x3f, 0x00, 0x75, 0x00, 0x00, 0x00, 0x7c, 0x80, 0x04, 0x00, 0x00,
   0x00, 0xea, 0x40, 0x04, 0x00, 0x00, 0x00, 0xc9, 0x21, 0x00, 0x00, 0x00,
   0x80, 0x80, 0x13, 0x00, 0x00, 0x00, 0x40, 0x00, 0x0f, 0x00, 0x00, 0x00,
   0x20, 0x00, 0x0e, 0x00, 0x00, 0x00, 0x00, 0x00, 0x1c, 0x00, 0x00, 0x00,
   0x00, 0x00, 0x38, 0x00, 0x00, 0x00, 0x00, 0x00, 0x70, 0x00, 0x00, 0x00,
   0x00, 0x00, 0xe0, 0x00, 0x00, 0x00, 0x00, 0x00, 0xc0, 0x01, 0x00, 0x00,
   0x00, 0x00, 0xf0, 0x03, 0x00, 0x00, 0x00, 0x00, 0x60, 0x07, 0x00, 0x00,
   0x00, 0x00, 0x50, 0x02, 0x00, 0x00, 0x00, 0x00, 0x08, 0x00, 0x00, 0x00,
   0x00, 0x00, 0x04, 0x00, 0x00, 0x00, 0x00, 0x00, 0x02, 0x00, 0x00, 0x00,
   0x00, 0x00, 0x01, 0x00, 0x00, 0x00, 0x00, 0x00, 0x00, 0x00, 0x00, 0x00};
