/* XPM */
static char * uactivityd_32_xpm[] = {
/* width height ncolors cpp [x_hot y_hot] */
"32 32 4 1 -1 -1",
/* colors */
" 	s iconColor2	m white	c white",
".	s iconColor1	m black	c black",
"X	s iconColor5	m black	c blue",
"o	s iconColor7	m white	c cyan",
/* pixels */
"                                ",
"                                ",
"                                ",
"                                ",
"                                ",
"                                ",
"                   .XX          ",
"                    .XX         ",
"                     .XX        ",
"     XX               .XX       ",
"    XXXX           .....XX      ",
"    XXXX             .. .XX     ",
"     XX.            . .  .XX    ",
"        .     .XXX .  .   .XX   ",
"         .   .oooXX             ",
"          . .oooooXX            ",
"           .ooooooXX            ",
"          .oooooooXX            ",
"         .oooooooXXX            ",
"        .oooooooXXX             ",
"        .ooooooXXX              ",
"        .oooooXXX               ",
"         .oooXXX .              ",
"          ..XXX   .             ",
"                   .            ",
"                    .  .        ",
"                     . .        ",
"                      ..        ",
"                    ....        ",
"                                ",
"                                ",
"                                "};
