#define uclasst_32.xbm_width 32
#define uclasst_32.xbm_height 32
static unsigned char uclasst_32.xbm_bits[] = {
   0x00, 0x00, 0x00, 0x00, 0x00, 0x00, 0x00, 0x00, 0x00, 0x00, 0x00, 0x00,
   0x00, 0x70, 0x00, 0x00, 0x00, 0xa4, 0x00, 0x00, 0x00, 0x40, 0x01, 0x00,
   0x00, 0xc1, 0x02, 0x00, 0x00, 0x20, 0x05, 0x00, 0x40, 0x10, 0x0a, 0x00,
   0x00, 0x08, 0x14, 0x00, 0x10, 0xc4, 0x28, 0x00, 0x00, 0xa2, 0x51, 0x00,
   0x04, 0x11, 0xa3, 0x00, 0x80, 0x88, 0x46, 0x01, 0x41, 0x44, 0x8c, 0x02,
   0x20, 0x22, 0x18, 0x05, 0x14, 0x11, 0x34, 0x0a, 0x00, 0x0a, 0x62, 0x14,
   0x10, 0x04, 0xc1, 0x28, 0x00, 0x88, 0x60, 0x28, 0x40, 0x50, 0x30, 0x14,
   0x00, 0x20, 0x18, 0x0a, 0x00, 0x41, 0x0c, 0x05, 0x00, 0x80, 0x86, 0x02,
   0x00, 0x04, 0x43, 0x01, 0x00, 0x00, 0xa0, 0x00, 0x00, 0x10, 0x50, 0x00,
   0x00, 0x00, 0x28, 0x00, 0x00, 0x40, 0x14, 0x00, 0x00, 0x00, 0x0a, 0x00,
   0x00, 0x00, 0x07, 0x00, 0x00, 0x00, 0x00, 0x00};
