/* XPM */
static char * uclasst_32_xpm[] = {
/* width height ncolors cpp [x_hot y_hot] */
"32 32 6 1 0 0",
/* colors */
" 	s iconColor2	m white	c white",
".	s iconGray1	m white	c #dededededede",
"X	s iconGray5	m black	c #737373737373",
"o	s iconColor1	m black	c black",
"O	s iconColor5	m black	c blue",
"+	s iconColor7	m white	c cyan",
/* pixels */
"                                ",
"                                ",
"                                ",
"           .XXo                 ",
"          ...XXo                ",
"         .....XXo               ",
"        ......oXXo              ",
"       ......o..XXo             ",
"      ......o....XXo            ",
"     ......o......XXo           ",
"    ......o...OO...XXo          ",
"   ......o...o+OO...XXo         ",
"  ......o...o+++OO...XXo        ",
" ......o...o+++O+OO...XXo       ",
"......o...o+++O+++OO...XXo      ",
" ....o...o+++O+++++OO...XXo     ",
"  ..o...o+++O+++++O+OO...XXo    ",
"   o...o+++O+++++O+++OO...XXo   ",
"    ....o+O+++++O+++++OO...XXo  ",
"     ....o+++++O+++++OO....XXo  ",
"      ....o+++O+++++OO....XXo   ",
"       ....o+O+++++OO....XXo    ",
"        ....o+++++OO....XXo     ",
"         ....o+++OO....XXo      ",
"          ....o+OO....XXo       ",
"           ....OO....XXo        ",
"            ........XXo         ",
"             ......XXo          ",
"              ....XXo           ",
"               ..XXo            ",
"                XXo             ",
"                                "};
