#define ucollaborationd.xbm_width 48
#define ucollaborationd.xbm_height 48
static unsigned char ucollaborationd.xbm_bits[] = {
   0x00, 0x82, 0x02, 0x00, 0x00, 0x00, 0x00, 0x01, 0x05, 0x00, 0x38, 0x00,
   0x80, 0x00, 0x0a, 0x00, 0x54, 0x00, 0x40, 0x00, 0x14, 0x00, 0xa2, 0x00,
   0x20, 0x00, 0x14, 0x00, 0x41, 0x01, 0x10, 0x00, 0x0a, 0x80, 0x80, 0x02,
   0x08, 0x00, 0x05, 0x40, 0x00, 0x05, 0x04, 0x80, 0x02, 0x20, 0x0e, 0x0a,
   0x02, 0x40, 0x01, 0x10, 0x15, 0x14, 0x01, 0xa0, 0x00, 0x88, 0x28, 0x28,
   0x00, 0x50, 0x00, 0x44, 0x50, 0x50, 0x00, 0x28, 0x00, 0x22, 0xa0, 0xa0,
   0x00, 0x34, 0x00, 0x11, 0x40, 0x41, 0x01, 0x4a, 0x84, 0x08, 0x40, 0x81,
   0x02, 0x85, 0x44, 0x04, 0xa0, 0x00, 0x84, 0x02, 0x25, 0x02, 0x50, 0x00,
   0x48, 0x01, 0x16, 0x01, 0x28, 0x00, 0xb0, 0xc0, 0x8f, 0x00, 0x14, 0x00,
   0x60, 0x00, 0x44, 0x00, 0x0a, 0x00, 0x00, 0x00, 0x42, 0x00, 0x05, 0x00,
   0x00, 0x00, 0x81, 0x80, 0x02, 0x00, 0x00, 0x80, 0x00, 0x41, 0x01, 0x00,
   0x00, 0x40, 0x1c, 0xa2, 0x00, 0x00, 0x00, 0x20, 0x2a, 0x54, 0x00, 0x00,
   0x00, 0x10, 0x51, 0xa8, 0x04, 0x00, 0x00, 0x88, 0xa0, 0x10, 0x05, 0x00,
   0x00, 0x44, 0x40, 0x01, 0x76, 0x00, 0x00, 0x22, 0x80, 0x82, 0xaf, 0x00,
   0x00, 0x11, 0x80, 0x02, 0x44, 0x01, 0x80, 0x08, 0x40, 0x01, 0x82, 0x02,
   0x40, 0x04, 0xa0, 0x00, 0x01, 0x05, 0x20, 0x02, 0x50, 0x80, 0x00, 0x8a,
   0x10, 0x01, 0xa8, 0x44, 0x00, 0x4a, 0x88, 0x00, 0x14, 0x25, 0x00, 0xa5,
   0x44, 0x00, 0x0a, 0x16, 0x80, 0x52, 0x82, 0x00, 0x85, 0x0f, 0x40, 0x29,
   0x04, 0x81, 0x02, 0x04, 0xa0, 0x14, 0x08, 0x42, 0x01, 0x02, 0x50, 0x0a,
   0x10, 0xa4, 0x00, 0x04, 0x28, 0x05, 0x20, 0x58, 0x00, 0x08, 0x94, 0x02,
   0x40, 0x30, 0x00, 0x10, 0x4a, 0x01, 0x80, 0x00, 0x00, 0x20, 0xa5, 0x00,
   0x00, 0x01, 0x00, 0xc0, 0x52, 0x00, 0x00, 0x02, 0x00, 0x80, 0x29, 0x00,
   0x00, 0x04, 0x00, 0x00, 0x14, 0x00, 0x00, 0x08, 0x00, 0x00, 0x0a, 0x00,
   0x00, 0x10, 0x00, 0x00, 0x05, 0x00, 0x00, 0x20, 0x00, 0x80, 0x02, 0x00};
