/* XPM */
static char * ucomponentd_32_xpm[] = {
/* width height ncolors cpp [x_hot y_hot] */
"32 32 4 1 -1 -1",
/* colors */
" 	s iconColor2	m white	c white",
".	s iconColor5	m black	c blue",
"X	s iconColor1	m black	c black",
"o	s iconColor7	m white	c cyan",
/* pixels */
"            ...                 ",
"           Xo...                ",
"          Xooo...               ",
"         Xooooo...              ",
"        Xooooooo...             ",
"       Xooooooooo...            ",
"      Xooooooooooo...           ",
"     Xooooooooooo...            ",
"    XoXXoooooooo...             ",
"   XoXoXooooooo...      X       ",
"    XoXoXooooo...        X      ",
"   XoXoXoXooo... XX XX XX X ..  ",
"   XXoXoXoXo...          X  ..  ",
"     XoXoXo...          X  X    ",
"      XoXo...             X     ",
"       X ...         ... X      ",
"                    Xo...       ",
"                   Xooo...      ",
"                  Xooooo...     ",
"                 Xooooooo...    ",
"                Xooooooooo...   ",
"               Xooooooooooo...  ",
"              Xooooooooooo...   ",
"             XoXXoooooooo...    ",
"            XoXoXooooooo...     ",
"             XoXoXooooo...      ",
"            XoXoXoXooo...       ",
"            XXoXoXoXo...        ",
"              XoXoXo...         ",
"               XoXo...          ",
"                X ...           ",
"                                "};
