/* XPM */
static char * udeploymentd_32_xpm[] = {
/* width height ncolors cpp [x_hot y_hot] */
"32 32 4 1 -1 -1",
/* colors */
" 	s iconColor2	m white	c white",
".	s iconColor1	m black	c black",
"X	s iconColor5	m black	c blue",
"o	s iconColor7	m white	c cyan",
/* pixels */
"                                ",
"                 .XX            ",
"                .o.XX           ",
"               .ooo.XX          ",
"              .ooooo.XX         ",
"             .ooooooo.XX        ",
"            .oooo.oooo.XX       ",
"           .oo.o.oooooo.XX      ",
"          .oo...oooooooo.XX     ",
"         .oooo.ooXXoooooo.XX    ",
"        .ooo..oo.oXXoooooo.XX   ",
"       .oo...oo.oooXXoooooo.XX  ",
"      .oooo.oo.oooooXXoooooo.XX ",
"     .oo.oooo.oooooooXXoooooo.XX",
"    .oooo.oo.oooooooooXXoooo.XX ",
"   .ooooooo.oooooooooooXXoo.XX  ",
"  .ooo..oo.oooooooooooXXoo.XX   ",
" .oo...oo.o..ooooooooXXoo.XX    ",
".oo...oo.o.o.oooooooXXoo.XX     ",
" .oo.oooo.o.o.oooooXXoo.XX      ",
"  .ooooo.o.o.o.oooXXoo.XX       ",
"   .oooo..o.o.o.oXX.o.XX        ",
"    .ooooo.o.o.oXXoo.XX         ",
"     .ooooo.o.oXXoo.XX          ",
"      .ooooo.oXXoo.XX .         ",
"       .ooooooooo.XX   .  .     ",
"        .ooooooo.XX     . .     ",
"         .ooooo.XX        .     ",
"          .ooo.XX      ....     ",
"           .o.XX                ",
"            .XX                 ",
"                                "};
