/* XPM */
static char *ooclasses_32[] = {
/* width height ncolors chars_per_pixel */
"32 32 6 1",
/* colors */
"` c #000000",
"a c #808080",
"b c #2A1FFF",
"c c #FFFFFF",
"d c #FFFF00",
"e c #2A7FAA",
/* pixels */
"cccccccccccccccccccccccccccccccc",
"cccccccccccccccccccccccccccccccc",
"cccccccccccccccccccccccccccccccc",
"cccccccccccccccccccccccccccccccc",
"cccccccccccccccccccccccccccccccc",
"cccccccccccccccccccccccccccccccc",
"cccccccccccccccccccccccccccccccc",
"cccccccccccccccccc`aaccccccccccc",
"ccccccccccccccccc`b`aacccccccccc",
"cccccccc`aaccccc`bbb`aaccccccccc",
"ccccccc`b`aaccc`bbbbb`aacccccccc",
"cccccc`bbb`aac`bbbbbbb`aaccccccc",
"ccccc`bbbbb`a`bbbbbbbbb`aacccccc",
"cccc`bbbbbbb`bbbbbbbbbbb`aaccccc",
"ccc`bbbbbbb`bbbbbbbbbbbbb`aacccc",
"cccc`bbbbb`bbbbbbbbbbbbbbb`aaccc",
"ccccc`bbb`bbbbbbbbbbbbbbbbb`aacc",
"cccccc`b`bbbbbbbbbbbbbbbbb`aaccc",
"ccccccc`bbbbbbbbbbbbbbbbb`aacccc",
"cccccccc`bbbbbbbbbbbbbbb`aaccccc",
"ccccccccc`bbbbbbbbbbbbb`aacccccc",
"cccccccccc`bbbbbbbbbbb`aaccccccc",
"ccccccccccc`bbbbbbbbb`aacccccccc",
"cccccccccccc`bbbbbbb`aaccccccccc",
"ccccccccccccc`bbbbb`aacccccccccc",
"cccccccccccccc`bbb`aaccccccccccc",
"ccccccccccccccc`b`aacccccccccccc",
"cccccccccccccccc`aaccccccccccccc",
"cccccccccccccccccccccccccccccccc",
"cccccccccccccccccccccccccccccccc",
"cccccccccccccccccccccccccccccccc",
"cccccccccccccccccccccccccccccccc"
};
