/* XPM */
static char* use_case_diagrams_xpm[] = {
/* width height ncolors cpp [x_hot y_hot] */
"16 16 5 1 0 0",
/* colors */
".	m none	c none",
"X	m #000000	c #000000",
" 	m #ffffff	c #ffffff",
"O	m #ffffff	c #c0c0c0",
"o	m #000000	c #00ffff",
/* pixels */
"................",
"..........XXXXO.",
".........XooooX.",
"........XX O OXO",
"..X....X.XO O XO",
".XoX...X..XXXX.O",
"..X....X...OOOO.",
".XXX..X.........",
"X.X.X..X........",
"..X....X..XXXX..",
".X.X...X.XooooX.",
"X...X...XX O OXO",
".........XO O XO",
"..........XXXX.O",
"...........OOOO.",
"................"};
