/* XPM */
static char * usequenced_32_xpm[] = {
/* width height ncolors cpp [x_hot y_hot] */
"32 32 3 1 -1 -1",
/* colors */
" 	s iconColor2	m white	c white",
".	s iconColor1	m black	c black",
"X	s iconColor5	m black	c blue",
/* pixels */
"                                ",
"                                ",
"                                ",
"                   .XX          ",
"                    .XX         ",
"                     .XX        ",
"                      .XX       ",
"                       .XX      ",
"                        .XX     ",
"                    .... .XX    ",
"                      X.  .XX   ",
"                     . .   .XX  ",
"          .XX       .  .    .XX ",
"           .XX     .         .XX",
"            .XX   .         .   ",
"        .... .XX .         .    ",
"          X.  .XX         .     ",
"         . .   .XX       .      ",
"        .  .    .XX     .       ",
"       .               .        ",
"      .               .         ",
" .XX .               .          ",
"  .XX               .           ",
"   .XX             .            ",
"    .XX           .             ",
"     .XX         .              ",
"      .XX    .  .               ",
"       .XX   . .                ",
"        .XX  .X                 ",
"         .XX ....               ",
"          .XX                   ",
"           .XX                  "};
