#define usequenced.xbm_width 48
#define usequenced.xbm_height 48
static unsigned char usequenced.xbm_bits[] = {
   0x00, 0x00, 0x00, 0x00, 0x00, 0x00, 0x00, 0x00, 0x00, 0x00, 0x00, 0x00,
   0x00, 0x00, 0x00, 0x00, 0x00, 0x00, 0x00, 0x00, 0x00, 0x00, 0x00, 0x00,
   0x00, 0x00, 0x00, 0x00, 0x00, 0x00, 0x00, 0x00, 0xa0, 0x00, 0xc0, 0x03,
   0x00, 0x00, 0x40, 0x01, 0x00, 0x03, 0x00, 0x00, 0x80, 0x02, 0x80, 0x02,
   0x00, 0x00, 0x00, 0x05, 0x40, 0x02, 0x00, 0x00, 0x00, 0x0a, 0x20, 0x00,
   0x00, 0x00, 0x00, 0x14, 0x10, 0x00, 0x00, 0x00, 0x00, 0x28, 0x08, 0x00,
   0x00, 0x00, 0x80, 0x57, 0x04, 0x00, 0x00, 0x00, 0x00, 0xa6, 0x02, 0x00,
   0x00, 0x00, 0x00, 0x45, 0x01, 0x00, 0x00, 0x28, 0x80, 0x84, 0x02, 0x00,
   0x00, 0x50, 0x40, 0x00, 0x05, 0x00, 0x00, 0xa0, 0x20, 0x00, 0x0a, 0x00,
   0x00, 0x5e, 0x11, 0x00, 0x14, 0x02, 0x00, 0x98, 0x0a, 0x00, 0x28, 0x0a,
   0x00, 0x14, 0x05, 0x80, 0x57, 0x06, 0x00, 0x12, 0x0a, 0x00, 0xa6, 0x1e,
   0x00, 0x01, 0x14, 0x00, 0x45, 0x01, 0x80, 0x00, 0x28, 0x80, 0x84, 0x02,
   0x40, 0x00, 0x50, 0x40, 0x00, 0x05, 0x2a, 0x00, 0xa0, 0x20, 0x00, 0x0a,
   0x14, 0x00, 0x50, 0x11, 0x00, 0x14, 0x28, 0x00, 0x88, 0x0a, 0x00, 0x02,
   0x50, 0x00, 0x04, 0x05, 0x00, 0x01, 0xa0, 0x00, 0x02, 0x10, 0x80, 0x00,
   0x40, 0x21, 0x01, 0x10, 0x40, 0x00, 0x80, 0xa2, 0x00, 0x7c, 0x20, 0x00,
   0x00, 0x65, 0x00, 0x10, 0x10, 0x00, 0x00, 0xea, 0x01, 0x10, 0x08, 0x00,
   0x00, 0x14, 0x00, 0x00, 0x04, 0x00, 0x00, 0x28, 0x00, 0x00, 0x02, 0x00,
   0x00, 0x50, 0x00, 0x00, 0x01, 0x00, 0x00, 0xa0, 0x00, 0x80, 0x00, 0x00,
   0x00, 0x40, 0x01, 0x40, 0x00, 0x00, 0x00, 0x80, 0x02, 0x20, 0x00, 0x00,
   0x00, 0x00, 0x05, 0x10, 0x00, 0x00, 0x00, 0x00, 0x0a, 0x09, 0x00, 0x00,
   0x00, 0x00, 0x14, 0x05, 0x00, 0x00, 0x00, 0x00, 0x28, 0x03, 0x00, 0x00,
   0x00, 0x00, 0x50, 0x0f, 0x00, 0x00, 0x00, 0x00, 0xa0, 0x00, 0x00, 0x00,
   0x00, 0x00, 0x40, 0x01, 0x00, 0x00, 0x00, 0x00, 0x00, 0x00, 0x00, 0x00};
