#define ustated.xbm_width 48
#define ustated.xbm_height 48
static unsigned char ustated.xbm_bits[] = {
   0x00, 0x00, 0x00, 0x00, 0x00, 0x00, 0x00, 0x00, 0x80, 0x3f, 0x00, 0x00,
   0x00, 0x00, 0x40, 0x50, 0x00, 0x00, 0x00, 0x00, 0x20, 0xa0, 0x00, 0x00,
   0x00, 0x00, 0x10, 0x40, 0x01, 0x00, 0x00, 0x00, 0x08, 0xa0, 0x02, 0x00,
   0x00, 0x00, 0x04, 0x10, 0x05, 0x00, 0x00, 0x00, 0x02, 0x08, 0x0a, 0x00,
   0x00, 0x00, 0x01, 0x04, 0x14, 0x00, 0x00, 0x80, 0x00, 0x02, 0x28, 0x00,
   0x00, 0x40, 0x00, 0x01, 0x50, 0x00, 0x00, 0x20, 0x80, 0x00, 0xa0, 0x00,
   0x00, 0x10, 0x40, 0x00, 0x4e, 0x01, 0x00, 0x08, 0x20, 0x00, 0x91, 0x02,
   0x00, 0x04, 0x10, 0x80, 0x20, 0x05, 0x00, 0x02, 0x08, 0x40, 0x40, 0x0a,
   0x00, 0x01, 0x04, 0x20, 0x80, 0x14, 0x80, 0x00, 0x02, 0x10, 0x00, 0x29,
   0x40, 0x00, 0x01, 0x08, 0x00, 0x51, 0x20, 0x80, 0x00, 0x04, 0x00, 0xa1,
   0x10, 0x40, 0x00, 0x02, 0x80, 0xa0, 0x08, 0x20, 0x00, 0x02, 0x40, 0xa0,
   0x04, 0x10, 0x00, 0x02, 0x20, 0xa0, 0x02, 0x08, 0x00, 0x04, 0x10, 0xa0,
   0x02, 0x04, 0x00, 0x08, 0x08, 0x50, 0x02, 0x02, 0x00, 0x10, 0x04, 0x28,
   0x02, 0x01, 0xc0, 0x27, 0x02, 0x14, 0x82, 0x00, 0x00, 0xc6, 0x01, 0x0a,
   0x44, 0x00, 0x00, 0x05, 0x00, 0x05, 0x28, 0x00, 0x80, 0x04, 0x80, 0x02,
   0x10, 0x00, 0x40, 0x04, 0x40, 0x01, 0x20, 0x00, 0x20, 0x00, 0xa0, 0x00,
   0x40, 0x00, 0x10, 0x00, 0x50, 0x00, 0x80, 0x00, 0x08, 0x00, 0x28, 0x00,
   0x00, 0x81, 0x07, 0x00, 0x14, 0x00, 0x00, 0x82, 0x07, 0x00, 0x0a, 0x00,
   0x00, 0x84, 0x07, 0x00, 0x05, 0x00, 0x00, 0x88, 0x07, 0x80, 0x02, 0x00,
   0x00, 0x10, 0x00, 0x40, 0x01, 0x00, 0x00, 0x20, 0x00, 0xa0, 0x00, 0x00,
   0x00, 0x40, 0x00, 0x50, 0x00, 0x00, 0x00, 0x80, 0x00, 0x28, 0x00, 0x00,
   0x00, 0x00, 0x01, 0x14, 0x00, 0x00, 0x00, 0x00, 0x02, 0x0a, 0x00, 0x00,
   0x00, 0x00, 0x04, 0x05, 0x00, 0x00, 0x00, 0x00, 0xf8, 0x03, 0x00, 0x00,
   0x00, 0x00, 0x00, 0x00, 0x00, 0x00, 0x00, 0x00, 0x00, 0x00, 0x00, 0x00};
