#define uusecased_32.xbm_width 32
#define uusecased_32.xbm_height 32
static unsigned char uusecased_32.xbm_bits[] = {
   0x00, 0x00, 0x00, 0x00, 0x00, 0x00, 0x00, 0x00, 0x00, 0x00, 0x00, 0x00,
   0x00, 0x00, 0x17, 0x00, 0x00, 0x80, 0x28, 0x00, 0x00, 0x40, 0x50, 0x00,
   0x00, 0x20, 0x50, 0x00, 0x00, 0x10, 0x50, 0x00, 0x00, 0x08, 0x28, 0x00,
   0x00, 0x04, 0x14, 0x00, 0x00, 0x04, 0x0a, 0x00, 0x00, 0x04, 0x05, 0x00,
   0x00, 0x88, 0x02, 0x2e, 0x00, 0x70, 0x01, 0x51, 0x1c, 0x20, 0x80, 0xa0,
   0x22, 0x21, 0x40, 0xa0, 0x41, 0x21, 0x20, 0xa0, 0x41, 0x21, 0x10, 0x50,
   0x41, 0x21, 0x08, 0x28, 0x22, 0xe1, 0x0f, 0x14, 0x5c, 0x11, 0x08, 0x0a,
   0x80, 0x08, 0x10, 0x05, 0x7e, 0x05, 0xe0, 0x02, 0x00, 0x02, 0x00, 0x00,
   0x00, 0xfc, 0x01, 0x00, 0x00, 0x04, 0x00, 0x00, 0x00, 0x04, 0x00, 0x00,
   0x00, 0x04, 0x00, 0x00, 0x00, 0x04, 0x00, 0x00, 0x00, 0x04, 0x00, 0x00,
   0x00, 0x04, 0x00, 0x00, 0x00, 0x00, 0x00, 0x00};
