#define cse_50.xbm_width 48
#define cse_50.xbm_height 48
static unsigned char cse_50.xbm_bits[] = {
   0x00, 0x00, 0x00, 0x00, 0x00, 0x00, 0x00, 0x00, 0x00, 0x00, 0x00, 0x00,
   0x00, 0x00, 0xfc, 0x01, 0x00, 0x00, 0x00, 0x00, 0xa8, 0x02, 0x00, 0x00,
   0x00, 0x00, 0x51, 0x05, 0x00, 0x00, 0x00, 0x00, 0xa0, 0x0a, 0x00, 0x00,
   0x00, 0x40, 0x40, 0x15, 0x00, 0x00, 0x00, 0x00, 0xa0, 0x2a, 0x00, 0x00,
   0x00, 0x10, 0x10, 0x55, 0x00, 0x00, 0x00, 0x00, 0x08, 0xaa, 0x00, 0x00,
   0x00, 0x04, 0x04, 0x54, 0x01, 0x00, 0x00, 0x00, 0x02, 0xa8, 0x02, 0x00,
   0x00, 0x01, 0x01, 0x54, 0x05, 0x00, 0x00, 0x80, 0x00, 0xa2, 0x0a, 0x00,
   0x40, 0x40, 0x00, 0x41, 0x15, 0x00, 0x00, 0xa0, 0x80, 0x80, 0x2a, 0x00,
   0x10, 0x10, 0x41, 0x00, 0x55, 0x00, 0x00, 0x08, 0x22, 0x80, 0xaa, 0x00,
   0x14, 0x04, 0x14, 0x40, 0x54, 0x01, 0x20, 0x02, 0x08, 0x20, 0xa8, 0x02,
   0x41, 0x01, 0x14, 0x10, 0x50, 0x05, 0x80, 0x00, 0x22, 0x08, 0xa0, 0x0a,
   0x44, 0x01, 0x41, 0x04, 0x50, 0x15, 0x20, 0x82, 0x80, 0x02, 0x88, 0x2a,
   0x10, 0x44, 0x00, 0x01, 0x04, 0x55, 0x00, 0x28, 0x80, 0x02, 0x82, 0x2a,
   0x40, 0x10, 0x40, 0x04, 0x41, 0x15, 0x00, 0x20, 0x20, 0x88, 0xa0, 0x0a,
   0x00, 0x41, 0x10, 0x50, 0x50, 0x05, 0x00, 0x80, 0x08, 0x20, 0xa8, 0x02,
   0x00, 0x04, 0x05, 0x10, 0x54, 0x01, 0x00, 0x00, 0x02, 0x08, 0xaa, 0x00,
   0x00, 0x10, 0x04, 0x04, 0x55, 0x00, 0x00, 0x00, 0x08, 0x82, 0x2a, 0x00,
   0x00, 0x40, 0x10, 0x41, 0x15, 0x00, 0x00, 0x00, 0xa0, 0xa0, 0x0a, 0x00,
   0x00, 0x00, 0x41, 0x50, 0x05, 0x00, 0x00, 0x00, 0x80, 0xa8, 0x02, 0x00,
   0x00, 0x00, 0x04, 0x55, 0x01, 0x00, 0x00, 0x00, 0x00, 0xaa, 0x00, 0x00,
   0x00, 0x00, 0x10, 0x55, 0x00, 0x00, 0x00, 0x00, 0x80, 0x2a, 0x00, 0x00,
   0x00, 0x00, 0xc0, 0x1f, 0x00, 0x00, 0x00, 0x00, 0x00, 0x00, 0x00, 0x00,
   0x00, 0x00, 0x00, 0x00, 0x00, 0x00, 0x00, 0x00, 0x00, 0x00, 0x00, 0x00,
   0x00, 0x00, 0x00, 0x00, 0x00, 0x00, 0x00, 0x00, 0x00, 0x00, 0x00, 0x00};
