/* XPM */
static char *cse_32[] = {
/* width height ncolors chars_per_pixel */
"32 32 7 1",
/* colors */
"` c #000000",
"a c #D45F00",
"b c #AA0000",
"c c #2A7FFF",
"d c #808080",
"e c #FFFFFF",
"f c #FFFF00",
/* pixels */
"eeeeeeeeeeeeeeeeeeeeeeeeeeeeeeee",
"eeeeeeeeeee`dd``ddeeeeeeeeeeeeee",
"eeeeeeeeeeff`dd``ddeeeeeeeeeeeee",
"eeeeeeeeeffff`dd``ddeeeeeeeeeeee",
"eeeeeeeeffffff`dd``ddeeeeeeeeeee",
"eeeeeeeffffff`b`dd``ddeeeeeeeeee",
"eeeeeeffffff`bbb`dd``ddeeeeeeeee",
"eeeeeffffff`bbbbb`dd``ddeeeeeeee",
"eeeeffffff`bbbbb`c`dd``ddeeeeeee",
"eee`fffff`c`bbb`ccc`dd``ddeeeeee",
"eeff`fff`ccc`b`ccccc`dd``ddeeeee",
"effff`f`ccccc`ccccc`a`dd``ddeeee",
"ffffff`ccccc`a`ccc`aaa`dd``ddeee",
"effff`f`ccc`aaa`c`aaaaa`dd``ddee",
"eeff`fff`c`aaaaa`aaaaa`c`dd``dde",
"eee`fffff`aaaaa`b`aaa`ccc`dd``dd",
"eeeeffffff`aaa`bbb`a`ccc`dd``dde",
"eeeeeffffff`a`bbbbb`ccc`dd``ddee",
"eeeeeeffffff`bbbbb`ccc`dd``ddeee",
"eeeeeeeffffff`bbb`ccc`dd``ddeeee",
"eeeeeeeeffffff`b`ccc`dd``ddeeeee",
"eeeeeeeeeffffff`ccc`dd``ddeeeeee",
"eeeeeeeeeeffffff`c`dd``ddeeeeeee",
"eeeeeeeeeeeffffff`dd``ddeeeeeeee",
"eeeeeeeeeeeeffff`dd``ddeeeeeeeee",
"eeeeeeeeeeeeeff`dd``ddeeeeeeeeee",
"eeeeeeeeeeeeee`dd``ddeeeeeeeeeee",
"eeeeeeeeeeeeeeeeeeeeeeeeeeeeeeee",
"eeeeeeeeeeeeeeeeeeeeeeeeeeeeeeee",
"eeeeeeeeeeeeeeeeeeeeeeeeeeeeeeee",
"eeeeeeeeeeeeeeeeeeeeeeeeeeeeeeee",
"eeeeeeeeeeeeeeeeeeeeeeeeeeeeeeee"
};
