/* XPM */
static char *dfe_32[] = {
/* width height ncolors chars_per_pixel */
"32 32 6 1",
/* colors */
"` c #000000",
"a c #AA0000",
"b c #2A7FFF",
"c c #808080",
"d c #FFFFFF",
"e c #FFFF00",
/* pixels */
"ddddddd`ccdddddddddddddddddddddd",
"dddddd`b`ccddddddddddddddddddddd",
"ddddd`bbb`ccdddddddddddddddddddd",
"dddd`bb`bb`ccddddddddddddddddddd",
"ddd`bb`d`bb`ccdddddddddddddddddd",
"dd`bb`ddd`bb`ccddddddddddddddddd",
"d`bb`ddddd`bb`ccdddddddddddddddd",
"dd`bb`ddd`bb`ccddddddddddddddddd",
"ddd`bb`d`bb`ccdddddddddddddddddd",
"dddd`bb`bb`ccddddddddddddddddddd",
"ddddd`bbb`cadddddddddddddddddddd",
"dddddd`b`ccdaddddddddddddddddddd",
"ddddddd`ccdddadddddddddddddddddd",
"ddddddddddddddaddddddddddddddddd",
"dddddddddddddddadddadddddddddddd",
"ddddddddddddddddaddadddddddddddd",
"dddddddddddddddddadadd`````ddddd",
"ddddddddddddddddddaa``eeeee``ddd",
"dddddddddddddddaaaaaeeeeeeeee`dd",
"dddddddddddddddddd`eeeeeeeeeee`d",
"dddddddddddddddddd`eeeeeeeeeee`d",
"ddddddddddddddddd`eeeeeeeeeeeee`",
"ddddddddddddddddd`eeeeeeeeeeeee`",
"ddddddddddddddddd`eeeeeeeeeeeee`",
"ddddddddddddddddd`eeeeeeeeeeeee`",
"ddddddddddddddddd`eeeeeeeeeeeee`",
"dddddddddddddddddd`eeeeeeeeeee`d",
"dddddddddddddddddd`eeeeeeeeeee`d",
"ddddddddddddddddddd`eeeeeeeee`dd",
"dddddddddddddddddddd``eeeee``ddd",
"dddddddddddddddddddddd`````ddddd",
"dddddddddddddddddddddddddddddddd"
};
