/* XPM */
static char* do_while_statement_l_cur_xpm[] = {
/* width height ncolors cpp [x_hot y_hot] */
"32 32 3 1 0 0",
/* colors */
".	m none	c none",
"X	m #000000	c #000000",
" 	m #ffffff	c #ffffff",
/* pixels */
"XX..............................",
"XXX.............................",
"XXXX............................",
"XXXXX...........................",
"XXXXXX..........................",
"XXXXXXX.........................",
"XXXXXXXX........................",
"XXXXXXXXX.......................",
"XXXXXXXXXX......................",
"XXXXXXXXXXX.....................",
"XXXXXXXXXXXX....................",
"XXXXXXXX........................",
"XXXXXXXX.......X................",
"XXX..XXXX......X..X.............",
"XX...XXXX.....XX.X.X............",
"X.....XXXX...X.X.X.X............",
"......XXXX....XX..X.............",
".......XXXX........XXX..........",
".......XXXX......XX   XX........",
"........XX.....XX       XX......",
".............XX           XX....",
"...............XX       XX......",
".................XX   XX........",
"...................XXX..........",
".................X.....X........",
".............X.X.X...X.X..X.....",
".............X.X.XXX...X.X.X....",
".............XXX.X.X.X.X.X......",
".............X.X.X.X.X.X..XX....",
"................................",
"................................",
"................................"};
