#define dse_50.xbm_width 48
#define dse_50.xbm_height 48
static unsigned char dse_50.xbm_bits[] = {
   0x00, 0x00, 0x00, 0x00, 0x00, 0x00, 0x00, 0x00, 0x00, 0x00, 0x00, 0x00,
   0x00, 0x00, 0x00, 0x00, 0x00, 0x00, 0x00, 0xc0, 0x03, 0x00, 0x00, 0x00,
   0x00, 0xa0, 0x04, 0x00, 0x00, 0x00, 0x00, 0x10, 0x09, 0x00, 0x00, 0x00,
   0x00, 0x08, 0x12, 0x00, 0x00, 0x00, 0x00, 0x04, 0x24, 0x00, 0x3c, 0x00,
   0x00, 0x02, 0x78, 0x00, 0x4a, 0x00, 0x00, 0x01, 0x24, 0x00, 0x91, 0x00,
   0x80, 0x00, 0x12, 0x80, 0x20, 0x01, 0x40, 0x00, 0x09, 0x40, 0x40, 0x02,
   0x20, 0x80, 0x04, 0x20, 0x80, 0x07, 0x10, 0x40, 0x02, 0x10, 0x40, 0x02,
   0x08, 0xa0, 0xff, 0x0f, 0x20, 0x01, 0x10, 0x90, 0x01, 0x04, 0x90, 0x00,
   0x20, 0x48, 0x01, 0x02, 0x48, 0x00, 0x40, 0x64, 0x02, 0x01, 0x24, 0x00,
   0x80, 0x52, 0x84, 0x00, 0x12, 0x00, 0x00, 0x2f, 0x08, 0x01, 0x09, 0x00,
   0x00, 0x20, 0x08, 0x82, 0x04, 0x00, 0x00, 0x20, 0x10, 0x44, 0x02, 0x00,
   0x00, 0x20, 0x20, 0x28, 0x01, 0x00, 0x00, 0x10, 0x40, 0xf0, 0x00, 0x00,
   0x00, 0x10, 0x40, 0x00, 0x00, 0x00, 0x00, 0x10, 0x8f, 0x00, 0x00, 0x00,
   0x00, 0x88, 0x12, 0x01, 0x00, 0x00, 0x00, 0x48, 0x24, 0x01, 0x1e, 0x00,
   0x00, 0x28, 0x48, 0x02, 0x25, 0x00, 0x00, 0x14, 0x90, 0x84, 0x48, 0x00,
   0x00, 0x0c, 0xe0, 0x49, 0x90, 0x00, 0x00, 0x04, 0x90, 0x28, 0x20, 0x01,
   0x00, 0x02, 0x48, 0x10, 0xc0, 0x03, 0x00, 0x01, 0x24, 0x08, 0x20, 0x01,
   0x80, 0x00, 0x12, 0x04, 0x90, 0x00, 0x40, 0x00, 0x09, 0x02, 0x48, 0x00,
   0x20, 0x80, 0x04, 0x01, 0x24, 0x00, 0x40, 0x40, 0x82, 0x00, 0x12, 0x00,
   0x80, 0x20, 0x41, 0x00, 0x09, 0x00, 0x00, 0x91, 0x80, 0x80, 0x04, 0x00,
   0x00, 0x4a, 0x00, 0x41, 0x02, 0x00, 0x00, 0x3c, 0x00, 0x22, 0x01, 0x00,
   0x00, 0x00, 0x00, 0x94, 0x00, 0x00, 0x00, 0x00, 0x00, 0x78, 0x00, 0x00,
   0x00, 0x00, 0x00, 0x00, 0x00, 0x00, 0x00, 0x00, 0x00, 0x00, 0x00, 0x00,
   0x00, 0x00, 0x00, 0x00, 0x00, 0x00, 0x00, 0x00, 0x00, 0x00, 0x00, 0x00};
