#define dse_32.xbm_width 32
#define dse_32.xbm_height 32
static unsigned char dse_32.xbm_bits[] = {
   0x00, 0x00, 0x00, 0x00, 0x00, 0x00, 0x00, 0x00, 0x00, 0x1c, 0x00, 0x00,
   0x00, 0x2a, 0x00, 0x00, 0x00, 0x51, 0x00, 0x00, 0x80, 0xa0, 0x80, 0x03,
   0x40, 0x50, 0x40, 0x05, 0x20, 0x28, 0x20, 0x0a, 0x10, 0x14, 0x10, 0x14,
   0x08, 0xfa, 0x0f, 0x0a, 0x10, 0x1d, 0x04, 0x05, 0xa0, 0x16, 0x82, 0x02,
   0xc0, 0x25, 0x41, 0x01, 0x00, 0x22, 0xa2, 0x00, 0x00, 0x42, 0x54, 0x00,
   0x00, 0x42, 0x38, 0x00, 0x00, 0x81, 0x00, 0x00, 0x00, 0x81, 0x00, 0x00,
   0x00, 0x1d, 0x01, 0x00, 0x80, 0x2a, 0xe1, 0x00, 0x80, 0x51, 0x52, 0x01,
   0xc0, 0xa0, 0x8a, 0x02, 0x40, 0x50, 0x04, 0x05, 0x20, 0x28, 0x82, 0x02,
   0x10, 0x14, 0x41, 0x01, 0x08, 0x8a, 0xa0, 0x00, 0x10, 0x45, 0x50, 0x00,
   0xa0, 0x83, 0x28, 0x00, 0xc0, 0x01, 0x15, 0x00, 0x00, 0x00, 0x0e, 0x00,
   0x00, 0x00, 0x00, 0x00, 0x00, 0x00, 0x00, 0x00};
