#define noname_width 32
#define noname_height 32
static char noname_bits[] = {
 0x00,0x00,0x00,0xe6,0x00,0x00,0x00,0x06,0x00,0x00,0x00,0xc6,0xe0,0xc7,0x07,
 0x06,0x30,0x88,0x04,0xe6,0x18,0x90,0x00,0x00,0x08,0xb0,0x07,0x00,0x08,0xa0,
 0xf4,0x00,0x08,0xa0,0x90,0x01,0x08,0xa0,0x98,0x01,0x08,0xd0,0xff,0x3e,0x10,
 0x18,0xf0,0x24,0x60,0x0c,0xd0,0x05,0xc0,0x03,0xb8,0x3f,0x00,0x01,0x00,0x24,
 0x00,0x01,0x00,0x04,0x00,0x01,0x00,0x44,0x00,0x01,0x00,0x7e,0x00,0x01,0x00,
 0x00,0x00,0x01,0x00,0x00,0x00,0x01,0xc0,0x00,0xfc,0x3f,0x70,0x03,0x04,0x20,
 0x1c,0x0c,0x04,0xe0,0x07,0x30,0x04,0x20,0x0e,0x18,0x04,0x20,0x38,0x06,0xfc,
 0x3f,0xe0,0x01,0x00,0x00,0x00,0x00,0x00,0x00,0x00,0x00,0x00,0x00,0x00,0x00,
 0x00,0x00,0x00,0x00,0x00,0x00,0x00,0x00};
