/* XPM */
static char *pat_32[] = {
/* width height ncolors chars_per_pixel */
"32 32 8 1",
/* colors */
"` c #000000",
"a c #2A1FAA",
"b c #AA0000",
"c c #2A7FFF",
"d c #808080",
"e c #2A1FFF",
"f c #FFFFFF",
"g c #FFBF00",
/* pixels */
"ffffffffffffffffffffffffffffffff",
"ffffffffffffffffffffffffffffffff",
"ffffffffffffffffffffffffffffffff",
"ffffffffffffffffffffffffffffffff",
"fffffffffffff`ddffffffffffffffff",
"ffffffffffffcc`ddfffffffffffffff",
"fffffffffffcccc`ddffffffffffffff",
"ffffffffffcccccc`ddfffffffffffff",
"fffffffffcccccc`b`ddffffffffffff",
"ffffffffcccccc`b`g`ddfffffffffff",
"fffffffcccccc`b`g`a`ddffffffffff",
"ffffffcccccc`b`g`a`b`ddfffffffff",
"fffff`ccccc`g`g`a`bbb`ddffffffff",
"ffffcc`ccc`ggg`a`bbbbb`ddfffffff",
"fffcccc`c`ggggg`bbbbb`b`ddffffff",
"ffcccccc`ggggg`b`bbb`bbb`ddfffff",
"fffcccc`c`ggg`bbb`b`bbbbb`ddffff",
"ffffcc`ccc`g`bbbbb`bbbbb`e`ddfff",
"fffff`ccccc`bbbbb`g`bbb`eee`ddff",
"ffffffcccccc`bbb`ggg`b`eee`ddfff",
"fffffffcccccc`b`ggggg`eee`ddffff",
"ffffffffcccccc`ggggg`eee`ddfffff",
"fffffffffcccccc`ggg`eee`ddffffff",
"ffffffffffcccccc`g`eee`ddfffffff",
"fffffffffffcccccc`eee`ddffffffff",
"ffffffffffffcccccc`e`ddfffffffff",
"fffffffffffffcccccc`ddffffffffff",
"ffffffffffffffcccc`ddfffffffffff",
"fffffffffffffffcc`ddffffffffffff",
"ffffffffffffffff`ddfffffffffffff",
"ffffffffffffffffffffffffffffffff",
"ffffffffffffffffffffffffffffffff"
};
