/* XPM */
static char* process_activation_matrix_tables_xpm[] = {
/* width height ncolors cpp [x_hot y_hot] */
"16 16 7 1 0 0",
/* colors */
".	m none	c none",
"X	m #000000	c #000000",
" 	m #ffffff	c #ffffff",
"O	m #000000	c #808080",
"o	m #ffffff	c #c0c0c0",
"x	m #000000	c #ffff00",
"+	m #000000	c #800000",
/* pixels */
"XXXXXXXXXXXXXXX.",
"XOoXoOOOOOOOOOXo",
"XXXXXXXXXXXXXXXo",
"XOoX          Xo",
"XOoXXXXXXXXXXoXo",
"XOoXXxxxxxxxXOXo",
"XOoXXxxx+xxxXOXo",
"XOoXXxx++xxxXOXo",
"XOoXXxxx+xxxXOXo",
"XOoXXxxx+xxxXOXo",
"XOoXXxx+++xxXOXo",
"XOoXXxxxxxxxXOXo",
"XOoXXXXXXXXX+OXo",
"XOoXoOOOOOOOOOXo",
"XXXXXXXXXXXXXXXo",
".ooooooooooooooo"};
