#define sce_32.xbm_width 32
#define sce_32.xbm_height 32
static unsigned char sce_32.xbm_bits[] = {
   0x19, 0x00, 0x00, 0x00, 0x1a, 0x00, 0x00, 0x00, 0x24, 0x0e, 0x00, 0x00,
   0x08, 0x15, 0x00, 0x00, 0x90, 0x28, 0x00, 0x00, 0x60, 0x50, 0xe0, 0x03,
   0x20, 0x28, 0x10, 0x05, 0x10, 0x14, 0x0e, 0x05, 0x08, 0xea, 0x05, 0x05,
   0x04, 0x1d, 0x82, 0x02, 0x88, 0x06, 0x41, 0x01, 0x50, 0x05, 0xa1, 0x00,
   0xe0, 0x04, 0x51, 0x00, 0x00, 0xe4, 0x3e, 0x00, 0x00, 0x55, 0x01, 0x00,
   0x80, 0x8d, 0x02, 0x00, 0x80, 0x05, 0x05, 0x00, 0x00, 0x82, 0x02, 0x00,
   0x00, 0x41, 0x01, 0x00, 0x80, 0xa0, 0x00, 0x00, 0x40, 0x50, 0x00, 0x00,
   0x80, 0x68, 0xf8, 0x00, 0x00, 0x95, 0x44, 0x01, 0x00, 0x0e, 0x43, 0x01,
   0x00, 0x00, 0x41, 0x01, 0x00, 0x80, 0xa0, 0x00, 0x00, 0x40, 0x50, 0x00,
   0x00, 0x40, 0x28, 0x00, 0x00, 0x40, 0x14, 0x00, 0x00, 0x80, 0x0f, 0x00,
   0x00, 0x00, 0x00, 0x00, 0x00, 0x00, 0x00, 0x00};
