/* XPM */
static char *sce_32[] = {
/* width height ncolors chars_per_pixel */
"32 32 8 1",
/* colors */
"` c #000000",
"a c #AA0000",
"b c #808080",
"c c #2A1FFF",
"d c #FFFFFF",
"e c #FFFF00",
"f c #FFBF00",
"g c #2A7FAA",
/* pixels */
"add``ddddddddddddddddddddddddddd",
"dad``ddddddddddddddddddddddddddd",
"ddadd`ddd`bbdddddddddddddddddddd",
"dddadddd`g`bbddddddddddddddddddd",
"ddddadd`ggg`bbdddddddddddddddddd",
"ddddda`ggggg`bbdddddd```bbdddddd",
"ddddd`ggggg`bbdddddd`eee`bbddddd",
"dddd`ggggg`bbddddaa`eeee`bbddddd",
"ddd`ggggg`bbdaaaad`eeeee`bbddddd",
"dd`ggggg`baaadddd`eeeee`bbdddddd",
"ddd`ggg`bbaddddd`eeeee`bbddddddd",
"dddd`g`bbdaddddd`eeee`bbdddddddd",
"ddddd`bbddaddddd`eee`bbddddddddd",
"ddddddddddadd`bbd```bbdddddddddd",
"dddddddd`dad`f`bbddddddddddddddd",
"ddddddd``da`fff`bbdddddddddddddd",
"ddddddd``d`fffff`bbddddddddddddd",
"ddddddddd`fffff`bbdddddddddddddd",
"dddddddd`fffff`bbddddddddddddddd",
"ddddddd`fffff`bbdddddddddddddddd",
"dddddd`fffff`abddddddddddddddddd",
"ddddddd`fff`bbadddd```bbdddddddd",
"dddddddd`f`bbddadd`ccc`bbddddddd",
"ddddddddd`bbdddda`cccc`bbddddddd",
"dddddddddddddddd`ccccc`bbddddddd",
"ddddddddddddddd`ccccc`bbdddddddd",
"dddddddddddddd`ccccc`bbddddddddd",
"dddddddddddddd`cccc`bbdddddddddd",
"dddddddddddddd`ccc`bbddddddddddd",
"ddddddddddddddd```bbdddddddddddd",
"dddddddddddddddddddddddddddddddd",
"dddddddddddddddddddddddddddddddd"
};
