#define sedir_32.xbm_width 32
#define sedir_32.xbm_height 32
static unsigned char sedir_32.xbm_bits[] = {
   0x00, 0x00, 0x00, 0x00, 0x00, 0x00, 0x00, 0x00, 0x00, 0x00, 0x00, 0x00,
   0x00, 0x00, 0x00, 0x00, 0x00, 0x00, 0x00, 0x00, 0x00, 0x00, 0x00, 0x00,
   0xc0, 0xff, 0x1f, 0x00, 0xa0, 0x80, 0x2a, 0x00, 0x10, 0x41, 0x55, 0x00,
   0x08, 0x22, 0xaa, 0x00, 0x04, 0x14, 0x54, 0x01, 0x02, 0x08, 0xa8, 0x02,
   0x01, 0x00, 0x50, 0x05, 0x02, 0x00, 0xa0, 0x0a, 0x04, 0x00, 0x40, 0x15,
   0x08, 0x00, 0x80, 0x2a, 0x10, 0x00, 0x00, 0x55, 0x20, 0x00, 0x00, 0xaa,
   0x40, 0x00, 0x00, 0x55, 0x80, 0x00, 0x80, 0x2a, 0x00, 0x01, 0x40, 0x15,
   0x00, 0x02, 0xa0, 0x0a, 0x00, 0x04, 0x50, 0x05, 0x00, 0x08, 0xa8, 0x02,
   0x00, 0x10, 0x54, 0x01, 0x00, 0x20, 0xaa, 0x00, 0x00, 0x40, 0x55, 0x00,
   0x00, 0x80, 0x3f, 0x00, 0x00, 0x00, 0x00, 0x00, 0x00, 0x00, 0x00, 0x00,
   0x00, 0x00, 0x00, 0x00, 0x00, 0x00, 0x00, 0x00};
