/* XPM */
static char * selection [] = {
"16 16 3 1",
"0 m none c none",
"1 m #000000 c #000000",
"2 m #ffffff c #ffffff",
"0000000000000000",
"0000000000000000",
"1111111111111110",
"1222222222222212",
"1200000000000012",
"1200000000110012",
"1200000001021212",
"1200000001201212",
"1200000001201212",
"1200000000110012",
"1200000000220012",
"1200000000000012",
"1111111111111112",
"0222222222222222",
"0000000000000000",
"0000000000000000"};
