/* XPM */
static char* state_transition_diagrams_xpm[] = {
/* width height ncolors cpp [x_hot y_hot] */
"16 16 6 1 0 0",
/* colors */
".	m none	c none",
"X	m #000000	c #000000",
" 	m #ffffff	c #ffffff",
"O	m #ffffff	c #c0c0c0",
"o	m #000000	c #ffff00",
"x	m #000000	c #808080",
/* pixels */
"...O...XXXXXXXX.",
"...OX..XooooooXx",
".XXXXX.X O O OXx",
".X.OX..XO O O Xx",
".X.O...XXXXXXXXx",
".X......xxxXxxxx",
".X.........X....",
".X.........X....",
".X........XXX...",
".X.......O.X....",
".X.....XXXXXXXX.",
".X.....XooooooXx",
".XXXXXXX O O OXx",
".......XO O O Xx",
".......XXXXXXXXx",
"........xxxxxxxx"};
