#define ste_32.xbm_width 32
#define ste_32.xbm_height 32
static unsigned char ste_32.xbm_bits[] = {
   0x00, 0x00, 0x00, 0x00, 0x00, 0x00, 0x00, 0x00, 0x00, 0x00, 0x00, 0x00,
   0x00, 0xe0, 0x00, 0x00, 0x00, 0x50, 0x01, 0x00, 0x00, 0x88, 0x02, 0x00,
   0x00, 0x04, 0x05, 0x00, 0x00, 0x82, 0x02, 0x00, 0x00, 0x41, 0x01, 0x00,
   0x80, 0xa0, 0x00, 0x00, 0x40, 0x50, 0x00, 0x00, 0x80, 0x68, 0x00, 0x00,
   0xf0, 0x95, 0x00, 0x00, 0xc0, 0x0e, 0x01, 0x00, 0xa0, 0x00, 0x12, 0x07,
   0x90, 0x00, 0x94, 0x0a, 0x08, 0x00, 0x58, 0x14, 0x10, 0x00, 0x3e, 0x28,
   0x20, 0x00, 0x10, 0x14, 0x40, 0x00, 0x08, 0x0a, 0x80, 0x00, 0x04, 0x05,
   0x00, 0x01, 0x82, 0x02, 0x00, 0x02, 0x44, 0x01, 0x00, 0x04, 0xac, 0x00,
   0x00, 0x08, 0x72, 0x00, 0x00, 0x10, 0x01, 0x00, 0x00, 0xa0, 0x00, 0x00,
   0x00, 0x40, 0x00, 0x00, 0x00, 0x00, 0x00, 0x00, 0x00, 0x00, 0x00, 0x00,
   0x00, 0x00, 0x00, 0x00, 0x00, 0x00, 0x00, 0x00};
