/* XPM */
static char* structure_chart_diagrams_xpm[] = {
/* width height ncolors cpp [x_hot y_hot] */
"16 16 6 1 0 0",
/* colors */
".	m none	c none",
"X	m #000000	c #000000",
" 	m #ffffff	c #ffffff",
"O	m #000000	c #ffff00",
"o	m #000000	c #808080",
"x	m #ffffff	c #c0c0c0",
/* pixels */
".....X..X.......",
".....X.XXX......",
".....X..X.......",
".....X..X.......",
".....X..........",
"....XXXXXX......",
"....XOOOOXo.....",
"....X x xXo.....",
"....XXXXXXo.....",
".....XooXoo.....",
"....X....X......",
".XXXX....XXXX...",
"XOOOOX..XOOOOX..",
"X x xXo.X x xXo.",
".XXXXoo..XXXXoo.",
"..oooo....oooo.."};
