/* XPM */
static char *stt_32[] = {
/* width height ncolors chars_per_pixel */
"32 32 8 1",
/* colors */
"` c #000000",
"a c #AA0000",
"b c #2A7FFF",
"c c #808080",
"d c #2A1FFF",
"e c #FFFFFF",
"f c #FFFF00",
"g c #2A7FAA",
/* pixels */
"eeeeeeeeeeeeeeeeeeeeeeeeeeeeeeee",
"eeeeeeeeeeeeeeeeeeeeeeeeeeeeeeee",
"eeeeeeeeeeeeeeeeeeeeeeeeeeeeeeee",
"eeeeeeeeeeeeeeeeeeeeeeeeeeeeeeee",
"eeeeeeeeeeeee`cceeeeeeeeeeeeeeee",
"eeeeeeeeeeeeff`cceeeeeeeeeeeeeee",
"eeeeeeeeeeeffff`cceeeeeeeeeeeeee",
"eeeeeeeeeeffffff`cceeeeeeeeeeeee",
"eeeeeeeeeffffff`d`cceeeeeeeeeeee",
"eeeeeeeeffffff`ddd`cceeeeeeeeeee",
"eeeeeeeffffff`ddddd`cceeeeeeeeee",
"eeeeeeffffff`ddddd`f`cceeeeeeeee",
"eeeee`fffff`g`ddd`f`d`cceeeeeeee",
"eeeeff`fff`ggg`d`f`d`b`cceeeeeee",
"eeeffff`f`ggggg`f`d`b`a`cceeeeee",
"eeffffff`ggggg`a`d`b`aaa`cceeeee",
"eeeffff`f`ggg`aaa`b`aaaaa`cceeee",
"eeeeff`fff`g`aaaaa`aaaaa`g`cceee",
"eeeee`fffff`aaaaa`d`aaa`ggg`ccee",
"eeeeeeffffff`aaa`ddd`a`ggg`cceee",
"eeeeeeeffffff`a`ddddd`ggg`cceeee",
"eeeeeeeeffffff`ddddd`ggg`cceeeee",
"eeeeeeeeeffffff`ddd`ggg`cceeeeee",
"eeeeeeeeeeffffff`d`ggg`cceeeeeee",
"eeeeeeeeeeeffffff`ggg`cceeeeeeee",
"eeeeeeeeeeeeffffff`g`cceeeeeeeee",
"eeeeeeeeeeeeeffffff`cceeeeeeeeee",
"eeeeeeeeeeeeeeffff`cceeeeeeeeeee",
"eeeeeeeeeeeeeeeff`cceeeeeeeeeeee",
"eeeeeeeeeeeeeeee`cceeeeeeeeeeeee",
"eeeeeeeeeeeeeeeeeeeeeeeeeeeeeeee",
"eeeeeeeeeeeeeeeeeeeeeeeeeeeeeeee"
};
