#define ted_32.xbm_width 32
#define ted_32.xbm_height 32
static unsigned char ted_32.xbm_bits[] = {
   0x00, 0x00, 0x00, 0x00, 0x00, 0x00, 0x00, 0x00, 0x00, 0x00, 0x00, 0x00,
   0x00, 0x00, 0x00, 0x00, 0x00, 0xc0, 0x01, 0x00, 0x00, 0x80, 0x02, 0x00,
   0x00, 0x10, 0x05, 0x00, 0x00, 0x00, 0x0a, 0x00, 0x00, 0x04, 0x15, 0x00,
   0x00, 0x80, 0x28, 0x00, 0x00, 0x41, 0x50, 0x00, 0x00, 0x20, 0xa8, 0x00,
   0x00, 0x50, 0x44, 0x01, 0xa0, 0x88, 0x82, 0x02, 0x00, 0x05, 0x41, 0x05,
   0x08, 0x82, 0x22, 0x0a, 0x00, 0x45, 0x14, 0x14, 0xa0, 0x28, 0x08, 0x2a,
   0x00, 0x10, 0x14, 0x51, 0x80, 0x20, 0xa2, 0x28, 0x00, 0x40, 0x41, 0x14,
   0x00, 0x82, 0x20, 0x0a, 0x00, 0x00, 0x11, 0x05, 0x00, 0x08, 0x8a, 0x02,
   0x00, 0x00, 0x44, 0x01, 0x00, 0x20, 0xa8, 0x00, 0x00, 0x00, 0x50, 0x00,
   0x00, 0x80, 0x28, 0x00, 0x00, 0x00, 0x14, 0x00, 0x00, 0x00, 0x0e, 0x00,
   0x00, 0x00, 0x00, 0x00, 0x00, 0x00, 0x00, 0x00};
