/* XPM */
static char *ted_32[] = {
/* width height ncolors chars_per_pixel */
"32 32 6 1",
/* colors */
"` c #000000",
"a c #2A1FAA",
"b c #2A7FFF",
"c c #808080",
"d c #FFFFFF",
"e c #FFFF00",
/* pixels */
"dddddddddddddddddddddddddddddddd",
"dddddddddddddddddddddddddddddddd",
"dddddddddddddddddddddddddddddddd",
"dddddddddddddddddddddddddddddddd",
"dddddddddddddd`ccddddddddddddddd",
"dddddddddddddaa`ccdddddddddddddd",
"ddddddddddddaaaa`ccddddddddddddd",
"dddddddddddaaaaaa`ccdddddddddddd",
"ddddddddddaaaaaa`b`ccddddddddddd",
"dddddddddaaaaaa`bbb`ccdddddddddd",
"ddddddddaaaaaa`bbbbb`ccddddddddd",
"dddddddaaaaaa`bbbbb`e`ccdddddddd",
"dddddd`aaaaa`e`bbb`eee`ccddddddd",
"dddddaa`aaa`eee`b`eeeee`ccdddddd",
"ddddaaaa`a`eeeee`eeeee`b`ccddddd",
"dddaaaaaa`eeeee`b`eee`bbb`ccdddd",
"ddddaaaa`a`eee`bbb`e`bbbbb`ccddd",
"dddddaa`aaa`e`bbbbb`bbbbb`e`ccdd",
"dddddd`aaaaa`bbbbb`e`bbb`eee`ccd",
"dddddddaaaaaa`bbb`eee`b`eee`ccdd",
"ddddddddaaaaaa`b`eeeee`eee`ccddd",
"dddddddddaaaaaa`eeeee`eee`ccdddd",
"ddddddddddaaaaaa`eee`eee`ccddddd",
"dddddddddddaaaaaa`e`eee`ccdddddd",
"ddddddddddddaaaaaa`eee`ccddddddd",
"dddddddddddddaaaaaa`e`ccdddddddd",
"ddddddddddddddaaaaaa`ccddddddddd",
"dddddddddddddddaaaa`ccdddddddddd",
"ddddddddddddddddaa`ccddddddddddd",
"ddddddddddddddddd`ccdddddddddddd",
"dddddddddddddddddddddddddddddddd",
"dddddddddddddddddddddddddddddddd"
};
