/* XPM */
static char* void_terminal_l_cur_xpm[] = {
/* width height ncolors cpp [x_hot y_hot] */
"32 32 3 1 0 0",
/* colors */
".	m none	c none",
"X	m #000000	c #000000",
" 	m #ffffff	c #ffffff",
/* pixels */
"XX..............................",
"XXX.............................",
"XXXX............................",
"XXXXX...........................",
"XXXXXX..........................",
"XXXXXXX.........................",
"XXXXXXXX........................",
"XXXXXXXXX.................X.....",
"XXXXXXXXXX....X.X..X..X...X.....",
"XXXXXXXXXXX...X.X.X.X....XX.....",
"XXXXXXXXXXXX..X.X.X.X.X.X.X.....",
"XXXXXXXX.......X...X..X..XX.....",
"XXXXXXXX........................",
"XXX..XXXX........XXXXXX.........",
"XX...XXXX.......X      X........",
"X.....XXXX.....X        X.......",
"......XXXX....X          X......",
".......XXXX..X            X.....",
".......XXXX..X            X.....",
"........XX...X            X.....",
".............X            X.....",
".............X            X.....",
".............X            X.....",
"..............X          X......",
"...............X        X.......",
"................X      X........",
".................XXXXXX.........",
"................................",
"................................",
"................................",
"................................",
"................................"};
