#define actor0_width 16
#define actor0_height 16
static char actor0_bits[] = {
   0xc0, 0x01, 0x20, 0x02, 0x20, 0x02, 0x20, 0x02, 0xc0, 0x01, 0x80, 0x00,
   0x80, 0x00, 0xfc, 0x1f, 0x80, 0x00, 0x80, 0x00, 0x80, 0x00, 0x40, 0x01,
   0x20, 0x02, 0x10, 0x04, 0x08, 0x08, 0x04, 0x10};
