#define actor1_width 12
#define actor1_height 12
static char actor1_bits[] = {
   0x70, 0x00, 0x88, 0x00, 0x88, 0x00, 0x70, 0x00, 0x20, 0x00, 0xfe, 0x03,
   0x20, 0x00, 0x20, 0x00, 0x50, 0x00, 0x88, 0x00, 0x04, 0x01, 0x02, 0x02};
