#define asyn2_width 9
#define asyn2_height 9
static char asyn2_bits[] = {
   0x00, 0x00, 0x0c, 0x00, 0x30, 0x00, 0xc0, 0x00, 0xff, 0x01, 0x00, 0x00,
   0x00, 0x00, 0x00, 0x00, 0x00, 0x00};
