/* XPM */
static char* attribute_l_cur_xpm[] = {
/* width height ncolors cpp [x_hot y_hot] */
"32 32 3 1 0 0",
/* colors */
".	m none	c none",
"X	m #000000	c #000000",
" 	m #ffffff	c #ffffff",
/* pixels */
"XX..............................",
"XXX.............................",
"XXXX............................",
"XXXXX...........................",
"XXXXXX..........................",
"XXXXXXX.........................",
"XXXXXXXX........................",
"XXXXXXXXX.......................",
"XXXXXXXXXX......................",
"XXXXXXXXXXX.....................",
"XXXXXXXXXXXX....................",
"XXXXXXXX........................",
"XXXXXXXX........................",
"XXX..XXXX....XXXXXXXXXXXXX......",
"XX...XXXX....X           X......",
"X.....XXXX...X           X......",
"......XXXX...XXXXXXXXXXXXX......",
".......XXXX..X           X......",
".......XXXX..X            ......",
"........XX...X         XX ......",
".............X         XX ......",
".............X        XXXX......",
".............X        XXXX......",
".............XXXXXXX  X  XX.....",
".....................XX  XX.....",
".....................XXXXXX.....",
"....................XX....XX....",
"....................XX....XX....",
"................................",
"................................",
"................................",
"................................"};
