#define balk2_width 9
#define balk2_height 9
static char balk2_bits[] = {
   0x10, 0x00, 0x1c, 0x00, 0x3e, 0x00, 0x5c, 0x00, 0x90, 0x00, 0x80, 0x00,
   0x80, 0x00, 0x40, 0x00, 0x3f, 0x00};
