/* XPM */
static char* dependency_xpm[] = {
/* width height ncolors cpp [x_hot y_hot] */
"16 16 3 1 0 0",
/* colors */
".	m none	c none",
"X	m #000000	c #000000",
" 	m #ffffff	c #ffffff",
/* pixels */
"................",
".....X..........",
"....X...........",
"...XXX.XX.XXX...",
"....X.......X...",
".....X..........",
"............X...",
"............X...",
"................",
"............X...",
"............X...",
"................",
"............X...",
"................",
"................",
"................"};
