/* XPM */
static char* end_time_l_cur_xpm[] = {
/* width height ncolors cpp [x_hot y_hot] */
"32 32 3 1 0 0",
/* colors */
".	m none	c none",
"X	m #000000	c #000000",
" 	m #ffffff	c #ffffff",
/* pixels */
"XX..............................",
"XXX.............................",
"XXXX............................",
"XXXXX...........................",
"XXXXXX..........................",
"XXXXXXX.........................",
"XXXXXXXX........................",
"XXXXXXXXX.......................",
"XXXXXXXXXX......................",
"XXXXXXXXXXX.....................",
"XXXXXXXXXXXX....................",
"XXXXXXXX........................",
"XXXXXXXX........................",
"XXX..XXXX................XXX....",
"XX...XXXX.....XXXX...X...XXX....",
"X.....XXXX.......XX..X...XXX....",
"......XXXX....XXXXX..X...XXX....",
".......XXXX..XX  XX......XXX....",
".......XXXX..XX  XX......XXX....",
"........XX....XXXXX......XXX....",
"....................X....XXX....",
"....................XX...XXX....",
".............XXXXXXXXXX..XXX....",
"....................XX...XXX....",
"....................X....XXX....",
".........................XXX....",
"................................",
"................................",
"................................",
"................................",
"................................",
"................................"};
