/* XPM */
static char* foreign_parameterized_class_xpm[] = {
/* width height ncolors cpp [x_hot y_hot] */
"16 16 4 1 0 0",
/* colors */
".	m none	c none",
"X	m #000000	c #000000",
" 	m #ffffff	c #ffffff",
"O	m #000000	c #808080",
/* pixels */
"....XX.XX.XX.XX.",
"....X  .  .  .X ",
"XXXX. .OOOOO... ",
"X   X.........X.",
"X ..XX.XX.XX.XX ",
"X ...  .  .  X  ",
"X ...........X .",
"X ...........X .",
"X .OOOO.XXXX.X .",
"X ......X....X .",
"X ......XXX..X .",
"X .OOOO.X....X .",
"X ......XXXX.X .",
"X ...........X .",
"XXXXXXXXXXXXXX .",
".              ."};
