/* XPM */
static char *oousecase_32[] = {
/* width height ncolors chars_per_pixel */
"32 32 7 1",
/* colors */
"` c #000000",
"a c #AA0000",
"b c #2A7FFF",
"c c #808080",
"d c #AA7F00",
"e c #FFFFFF",
"f c #FFFF00",
/* pixels */
"eeeeeeeeeeeeeeeeeeeeeeeeeeeeeeee",
"eeeeeeeeeeeeee```cceeeeeeeeeeeee",
"eeeeeeeeeeeee`bbb`cceeeeeeeeeeee",
"eeeeeeeeeeee`bbbb`cceeeeeeeeeeee",
"eeeeeeeeeee`bbbbb`cceeeeeeeeeeee",
"eeeeeeeeee`bbbbb`cceeeeeeeeeeeee",
"eeeeeeeee`bbbbb`ccee```cceeeeeee",
"eeeeeeeee`bbbb`ccee`aaa`cceeeeee",
"eeeeeeeee`bbb`ccee`aaaa`cceeeeee",
"eeeeeeeeee```ccee`aaaaa`cceeeeee",
"eeeeeeeeeee`eeee`aaaaa`cceeeeeee",
"eeeeeeeeeee`eee`aaaaa`ccee```cce",
"eeeeeeeeeee`eee`aaaa`ccee`fff`cc",
"eeeeeeeeeee`eee`aaa`ccee`ffff`cc",
"ee````eeeee`eeee```ccee`fffff`cc",
"e`dddd`eeee`eee`eeeeee`fffff`cce",
"`dddddd`eee`ee`eeeeee`fffff`ccee",
"`dddddd`eeeee`eeeeeee`ffff`cceee",
"`dddddd`eeeeeeeeeeeee`fff`cceeee",
"`dddddd`eee`ee```````````cceeeee",
"e`dddd`eee`eeeeeeeeeeeeeeeeeeeee",
"ee````e`e`eeeeeeeeeeeeeeeeeeeeee",
"eeeeeeee`eeeeeeeeeeeeeeeeeeeeeee",
"eeeeeee`e`eeeeeeeeeeeeeeeeeeeeee",
"eeeeee`eee`eeeeeeeeeeeeeeeeeeeee",
"eeeee`eeeee```````eeeeeeeeeeeeee",
"eeeeeeeeeee`eeeeeeeeeeeeeeeeeeee",
"eeeeeeeeeee`eeeeeeeeeeeeeeeeeeee",
"eeeeeeeeeee`eeeeeeeeeeeeeeeeeeee",
"eeeeeeeeeee`eeeeeeeeeeeeeeeeeeee",
"eeeeeeeeeee`eeeeeeeeeeeeeeeeeeee",
"eeeeeeeeeee`eeeeeeeeeeeeeeeeeeee"
};
