/* XPM */
static char* state_machine_l_cur_xpm[] = {
/* width height ncolors cpp [x_hot y_hot] */
"32 32 3 1 0 0",
/* colors */
".	m none	c none",
"X	m #000000	c #000000",
" 	m #ffffff	c #ffffff",
/* pixels */
"XX..............................",
"XXX.............................",
"XXXX............................",
"XXXXX...........................",
"XXXXXX..........................",
"XXXXXXX.........................",
"XXXXXXXX........................",
"XXXXXXXXX.......................",
"XXXXXXXXXX......................",
"XXXXXXXXXXX.....................",
"XXXXXXXXXXXX....................",
"XXXXXXXX........................",
"XXXXXXXX........................",
"XXX..XXXX.....XXX..XX...XX......",
"XX...XXXX....XX.XX.XXX.XXX......",
"X.....XXXX...XX....XXXXXXX......",
"......XXXX....XXX..XX.X.XX......",
".......XXXX.....XX.XX...XX......",
".......XXXX..XX.XX.XX...XX......",
"........XX....XXX..XX...XX......",
"................................",
"...................XXXXXXX......",
"..................X.............",
".................X..............",
".................X..............",
".................X..............",
".................X..............",
".................X..............",
".................X..............",
"................................",
"................................",
"................................"};
