/* Made with Gimp */
#define lock0_width 16
#define lock0_height 16
static char lock0_bits[] = {
   0x00, 0x00, 0x00, 0x00, 0x00, 0x3e, 0x00, 0x41, 0x00, 0x41, 0x00, 0x3e,
   0x80, 0x03, 0x00, 0x03, 0x80, 0x02, 0x40, 0x00, 0x7c, 0x00, 0x82, 0x00,
   0x82, 0x00, 0x7c, 0x00, 0x00, 0x00, 0x00, 0x00 };
