#define sync1_width 11
#define sync1_height 11
static char sync1_bits[] = {
   0x01, 0x04, 0x02, 0x02, 0x04, 0x01, 0x88, 0x00, 0x50, 0x00, 0x20, 0x00,
   0x50, 0x00, 0x88, 0x00, 0x04, 0x01, 0x02, 0x02, 0x01, 0x04};
