#define time0_width 13
#define time0_height 13
static char time0_bits[] = {
   0xf0, 0x01, 0x48, 0x02, 0x44, 0x04, 0x42, 0x08, 0x41, 0x10, 0x41, 0x10,
   0x41, 0x10, 0x21, 0x10, 0x11, 0x10, 0x0a, 0x08, 0x04, 0x04, 0x08, 0x02,
   0xf0, 0x01};
