#define uactivityd_32.xbm_width 32
#define uactivityd_32.xbm_height 32
static unsigned char uactivityd_32.xbm_bits[] = {
   0x00, 0x00, 0x00, 0x00, 0x00, 0x00, 0x00, 0x00, 0x00, 0x00, 0x00, 0x00,
   0x00, 0x00, 0x00, 0x00, 0x00, 0x00, 0x20, 0x00, 0x00, 0x00, 0x40, 0x00,
   0x00, 0x00, 0x80, 0x00, 0x00, 0x00, 0x00, 0x01, 0x00, 0x00, 0xe0, 0x03,
   0x60, 0x00, 0x80, 0x05, 0xf0, 0x00, 0x40, 0x09, 0xf0, 0x00, 0x20, 0x11,
   0xe0, 0x00, 0x10, 0x00, 0x00, 0xc1, 0x0b, 0x00, 0x00, 0x22, 0x06, 0x00,
   0x00, 0x14, 0x0c, 0x00, 0x00, 0x08, 0x0c, 0x00, 0x00, 0x04, 0x0c, 0x00,
   0x00, 0x02, 0x0a, 0x00, 0x00, 0x01, 0x05, 0x00, 0x00, 0x81, 0x02, 0x00,
   0x00, 0x41, 0x01, 0x00, 0x00, 0xa2, 0x02, 0x00, 0x00, 0x5c, 0x04, 0x00,
   0x00, 0x00, 0x08, 0x00, 0x00, 0x00, 0x90, 0x00, 0x00, 0x00, 0xa0, 0x00,
   0x00, 0x00, 0xc0, 0x00, 0x00, 0x00, 0xf0, 0x00, 0x00, 0x00, 0x00, 0x00,
   0x00, 0x00, 0x00, 0x00, 0x00, 0x00, 0x00, 0x00};
