/* XPM */
static char *uae_32[] = {
/* width height ncolors chars_per_pixel */
"32 32 3 1",
/* colors */
"` c #000000",
"a c #FFFFFF",
"b c #FFFF00",
/* pixels */
"aaaaaa`aaaaaaaaaaaaaaaaaaaaaaaaa",
"aaaaa`a`aaaaaaaaaaaaaaaaaaaaaaaa",
"aaaa`aaa`aaaaaaaaaaaaaaaaaaaaaaa",
"a```aaaaa``````aaaaaaaaaaaaaaaaa",
"aaaa`aaa`aaaaaa`aaaaaaaaaaaaaaaa",
"aaaaa`a`aaaaaaaa`aaaaaaaaaaaaaaa",
"aaaaaa`aaaaaaaaaa`aaaaaaaaaaaaaa",
"aaaaaaaaaaaaaaaaaa`aaaaaaaaaaaaa",
"aaaaaaaaaaaaaaaaaaa`aaaaaaa```aa",
"aaaaaaaaaaaaaaaaaaaa`aa`aa`bbb`a",
"aaaaaaaaaaaaaaaaaaaaa`a`a`bbbbb`",
"aaaaaaaaaaaaaaaaaaaaaa```bbbbbbb",
"aaaaaaaaaaaaaaaaaaaa````bbbbbbbb",
"aaaaaaaaaaaaaaaaaaaaaa`bbbbbbbbb",
"aaaaaaaaaaaaaaaaaaaaa`bbbbbbbbbb",
"aaaaaaaaaaaaaaaaaaaa`bbbbbbbbbbb",
"aaaaaaaaaaaaaaaaaaa`bbbbbbbbbbb`",
"aaaaaaaaaaaaaaaaaaa`bbbbbbbbbb`a",
"aaaaaaaaaaaaaaaaaaa`bbbbbbbbb`aa",
"aaaaa`aaaaaaaaaaaaaa`bbbbbbb`aaa",
"aaaa```aaaaaaaaaa`````bbbbb`aaaa",
"aaaaa```aaaaaaaaaaaa```bbb`aaaaa",
"aaa``````aaaaaaaaaa`a`a```aaaaaa",
"aaaaa`````aaaaaaaa`aa`aaaaaaaaaa",
"aaaa`a`a```aaaaaa`aaa`aaaaaaaaaa",
"aaa`aa`aa```aaaa`aaaaaaaaaaaaaaa",
"aaaaaaaaaa```aa`aaaaaaaaaaaaaaaa",
"aaaaaaaaaaa````aaaaaaaaaaaaaaaaa",
"aaaaaaaaaaaa```aaaaaaaaaaaaaaaaa",
"aaaaaaaaaaaaa```aaaaaaaaaaaaaaaa",
"aaaaaaaaaaaaaa```aaaaaaaaaaaaaaa",
"aaaaaaaaaaaaaaa```aaaaaaaaaaaaaa"
};
