#define ooclasstable_50.xbm_width 48
#define ooclasstable_50.xbm_height 48
static unsigned char ooclasstable_50.xbm_bits[] = {
   0x00, 0x00, 0x00, 0x00, 0x00, 0x00, 0x00, 0x00, 0x00, 0x00, 0x00, 0x00,
   0x00, 0x00, 0x3c, 0x00, 0x00, 0x00, 0x00, 0x00, 0x48, 0x00, 0x00, 0x00,
   0x00, 0x00, 0x91, 0x00, 0x00, 0x00, 0x00, 0x00, 0x20, 0x01, 0x00, 0x00,
   0x00, 0x40, 0x40, 0x02, 0x00, 0x00, 0x00, 0x00, 0xa0, 0x04, 0x00, 0x00,
   0x00, 0x10, 0x10, 0x09, 0x00, 0x00, 0x00, 0x00, 0x08, 0x12, 0x00, 0x00,
   0x00, 0x04, 0x04, 0x24, 0x00, 0x00, 0x00, 0x00, 0x02, 0x48, 0x00, 0x00,
   0x00, 0x01, 0x01, 0x90, 0x00, 0x00, 0x00, 0x80, 0x00, 0x20, 0x01, 0x00,
   0x40, 0x40, 0xc0, 0x40, 0x02, 0x00, 0x00, 0x20, 0xa0, 0x81, 0x04, 0x00,
   0x10, 0x10, 0x10, 0x03, 0x09, 0x00, 0x00, 0x08, 0x08, 0x06, 0x12, 0x00,
   0x04, 0x04, 0x04, 0x0c, 0x24, 0x00, 0x00, 0x02, 0x02, 0x1a, 0x48, 0x00,
   0x01, 0x01, 0x01, 0x31, 0x90, 0x00, 0x80, 0x80, 0x80, 0x60, 0x20, 0x01,
   0x44, 0x40, 0x40, 0xc0, 0x40, 0x02, 0x20, 0x20, 0x20, 0x80, 0x81, 0x04,
   0x10, 0x10, 0x10, 0x40, 0x03, 0x09, 0x00, 0x20, 0x08, 0x20, 0x06, 0x12,
   0x40, 0x40, 0x04, 0x10, 0x0c, 0x24, 0x00, 0x80, 0x02, 0x08, 0x18, 0x48,
   0x00, 0x01, 0x01, 0x04, 0x30, 0x90, 0x00, 0x00, 0x02, 0x02, 0x18, 0x48,
   0x00, 0x04, 0x04, 0x01, 0x0c, 0x24, 0x00, 0x00, 0x88, 0x00, 0x06, 0x12,
   0x00, 0x10, 0x50, 0x00, 0x03, 0x09, 0x00, 0x00, 0x20, 0x80, 0x81, 0x04,
   0x00, 0x40, 0x40, 0xc0, 0x40, 0x02, 0x00, 0x00, 0x80, 0x60, 0x20, 0x01,
   0x00, 0x00, 0x01, 0x31, 0x90, 0x00, 0x00, 0x00, 0x00, 0x1a, 0x48, 0x00,
   0x00, 0x00, 0x04, 0x0c, 0x24, 0x00, 0x00, 0x00, 0x00, 0x00, 0x12, 0x00,
   0x00, 0x00, 0x10, 0x00, 0x09, 0x00, 0x00, 0x00, 0x00, 0x80, 0x04, 0x00,
   0x00, 0x00, 0x40, 0x40, 0x02, 0x00, 0x00, 0x00, 0x00, 0x20, 0x01, 0x00,
   0x00, 0x00, 0x00, 0x91, 0x00, 0x00, 0x00, 0x00, 0x00, 0x48, 0x00, 0x00,
   0x00, 0x00, 0x00, 0x3c, 0x00, 0x00, 0x00, 0x00, 0x00, 0x00, 0x00, 0x00};
