#define omtobject_32.xbm_width 32
#define omtobject_32.xbm_height 32
static unsigned char omtobject_32.xbm_bits[] = {
   0x00, 0x00, 0x00, 0x00, 0x00, 0x0e, 0x00, 0x00, 0x00, 0x15, 0x00, 0x00,
   0x80, 0x28, 0x00, 0x00, 0x40, 0x54, 0x00, 0x00, 0x20, 0xaa, 0x00, 0x00,
   0x10, 0x45, 0x01, 0x00, 0x88, 0x82, 0x02, 0x00, 0x44, 0x01, 0x05, 0x00,
   0xa2, 0x00, 0x0a, 0x00, 0x51, 0x00, 0x05, 0x00, 0x2a, 0x80, 0x02, 0x00,
   0x14, 0x40, 0x01, 0x00, 0x08, 0xa0, 0x00, 0x00, 0x10, 0xd0, 0x01, 0x00,
   0x20, 0x28, 0x01, 0x00, 0x40, 0x34, 0x01, 0x00, 0x80, 0xea, 0x01, 0x00,
   0x00, 0x07, 0x02, 0x0e, 0x00, 0x00, 0x04, 0x15, 0x00, 0x00, 0x88, 0x28,
   0x00, 0x00, 0x50, 0x50, 0x00, 0x00, 0x20, 0xa0, 0x00, 0x00, 0x10, 0x50,
   0x00, 0x00, 0x08, 0x28, 0x00, 0x00, 0x04, 0x14, 0x00, 0x00, 0x02, 0x0a,
   0x00, 0x00, 0x04, 0x05, 0x00, 0x00, 0x88, 0x02, 0x00, 0x00, 0x50, 0x01,
   0x00, 0x00, 0xe0, 0x00, 0x00, 0x00, 0x00, 0x00};
