/* XPM */
static char * uclassd_32_xpm[] = {
/* width height ncolors cpp [x_hot y_hot] */
"32 32 4 1 -1 -1",
/* colors */
" 	s iconColor2	m white	c white",
".	s iconColor1	m black	c black",
"X	s iconColor7	m white	c cyan",
"o	s iconColor5	m black	c blue",
/* pixels */
"                                ",
"         ...                    ",
"        .Xoo.                   ",
"       .XXXoo.                  ",
"      .XXXoXoo.                 ",
"     .XXXoXoXoo.                ",
"    .XXXoXoXXXoo.               ",
"   .XXXoXoXXXXXoo.              ",
"  .XXXoXoXXXXXXXoo.             ",
" .XXXoXoXXXXXXXXXoo.            ",
".XXXoXoXXXXXXXXXoo.             ",
" .XoXoXXXXXXXXXoo.              ",
"  .XoXXXXXXXXXoo.               ",
"   .XXXXXXXXXoo.                ",
"    .XXXXXXXo.....              ",
"     .XXXXXoo.oo.               ",
"      .XXXoo..o.                ",
"       .Xoo. .. .               ",
"        ...  .   .       ...    ",
"                  .     .Xoo.   ",
"                   .   .XXXoo.  ",
"                    . .XXXXXoo. ",
"                     .XXXXXXXoo.",
"                    .XXXXXXXoo. ",
"                   .XXXXXXXoo.  ",
"                  .XXXXXXXoo.   ",
"                 .XXXXXXXoo.    ",
"                  .XXXXXoo.     ",
"                   .XXXoo.      ",
"                    .Xoo.       ",
"                     ...        ",
"                                "};
