#define ucomponentd.xbm_width 48
#define ucomponentd.xbm_height 48
static unsigned char ucomponentd.xbm_bits[] = {
   0x00, 0x00, 0x00, 0x00, 0x00, 0x00, 0x00, 0x00, 0x00, 0x00, 0x00, 0x00,
   0x00, 0x00, 0x00, 0x80, 0x01, 0x00, 0x00, 0x00, 0x0a, 0x40, 0x02, 0x00,
   0x00, 0x00, 0x15, 0x40, 0x02, 0x00, 0x00, 0x80, 0x28, 0xc0, 0x01, 0x00,
   0x00, 0x40, 0x50, 0x20, 0x01, 0x00, 0x00, 0x20, 0xa0, 0x90, 0x02, 0x00,
   0x00, 0x10, 0x40, 0x49, 0x05, 0x00, 0x00, 0x08, 0x80, 0x26, 0x09, 0x00,
   0x00, 0x04, 0x00, 0x05, 0x00, 0x00, 0x00, 0x02, 0x00, 0x0a, 0x01, 0x00,
   0x00, 0x01, 0x00, 0x14, 0x01, 0x00, 0x80, 0x00, 0x00, 0x28, 0x00, 0x00,
   0x40, 0x07, 0x00, 0x14, 0x01, 0x00, 0xa0, 0x04, 0x00, 0x0a, 0x01, 0x00,
   0x50, 0x14, 0x00, 0x05, 0x00, 0x00, 0x28, 0x2a, 0x80, 0x02, 0x01, 0x00,
   0x10, 0x45, 0x40, 0x01, 0x01, 0x00, 0x88, 0xa2, 0xa0, 0x00, 0x14, 0x00,
   0x48, 0x51, 0x51, 0x00, 0x2b, 0x00, 0xb8, 0x28, 0x2a, 0x00, 0x51, 0x00,
   0x40, 0x14, 0x15, 0x80, 0xa0, 0x00, 0x20, 0x8a, 0x0a, 0x40, 0x40, 0x01,
   0x40, 0x45, 0x05, 0x20, 0x80, 0x02, 0x80, 0xa2, 0x02, 0x10, 0x00, 0x05,
   0x00, 0x51, 0x01, 0x08, 0x00, 0x0a, 0x00, 0xaa, 0x00, 0x04, 0x00, 0x14,
   0x00, 0x04, 0x00, 0x02, 0x00, 0x28, 0x00, 0x00, 0x00, 0x01, 0x00, 0x50,
   0x00, 0x00, 0x80, 0x0e, 0x00, 0x28, 0x00, 0x00, 0x40, 0x09, 0x00, 0x14,
   0x00, 0x00, 0xa0, 0x28, 0x00, 0x0a, 0x00, 0x00, 0x50, 0x54, 0x00, 0x05,
   0x00, 0x00, 0x20, 0x8a, 0x80, 0x02, 0x00, 0x00, 0x10, 0x45, 0x41, 0x01,
   0x00, 0x00, 0x90, 0xa2, 0xa2, 0x00, 0x00, 0x00, 0x70, 0x51, 0x54, 0x00,
   0x00, 0x00, 0x80, 0x28, 0x2a, 0x00, 0x00, 0x00, 0x40, 0x14, 0x15, 0x00,
   0x00, 0x00, 0x80, 0x8a, 0x0a, 0x00, 0x00, 0x00, 0x00, 0x45, 0x05, 0x00,
   0x00, 0x00, 0x00, 0xa2, 0x02, 0x00, 0x00, 0x00, 0x00, 0x54, 0x01, 0x00,
   0x00, 0x00, 0x00, 0x08, 0x00, 0x00, 0x00, 0x00, 0x00, 0x00, 0x00, 0x00,
   0x00, 0x00, 0x00, 0x00, 0x00, 0x00, 0x00, 0x00, 0x00, 0x00, 0x00, 0x00};
