#define udeploymentd.xbm_width 48
#define udeploymentd.xbm_height 48
static unsigned char udeploymentd.xbm_bits[] = {
   0x00, 0x00, 0x00, 0x00, 0x00, 0x00, 0x00, 0x00, 0x00, 0x00, 0x00, 0x00,
   0x00, 0x00, 0x00, 0x14, 0x00, 0x00, 0x00, 0x00, 0x00, 0x2a, 0x00, 0x00,
   0x00, 0x00, 0x00, 0x51, 0x00, 0x00, 0x00, 0x00, 0x80, 0xa0, 0x00, 0x00,
   0x00, 0x00, 0x40, 0x40, 0x01, 0x00, 0x00, 0x00, 0x20, 0x80, 0x02, 0x00,
   0x00, 0x00, 0x10, 0x00, 0x05, 0x00, 0x00, 0x00, 0x08, 0x00, 0x0a, 0x00,
   0x00, 0x00, 0x04, 0x00, 0x14, 0x00, 0x00, 0x00, 0x02, 0x00, 0x28, 0x00,
   0x00, 0x00, 0x29, 0x50, 0x50, 0x00, 0x00, 0x80, 0x50, 0xa8, 0xa0, 0x00,
   0x00, 0x40, 0x2a, 0x44, 0x41, 0x01, 0x00, 0x20, 0x15, 0x82, 0x82, 0x02,
   0x00, 0x10, 0x0a, 0x01, 0x05, 0x05, 0x00, 0x48, 0x85, 0x00, 0x0a, 0x0a,
   0x00, 0x84, 0x42, 0x00, 0x14, 0x14, 0x00, 0x12, 0x21, 0x00, 0x28, 0x28,
   0x00, 0x01, 0x10, 0x00, 0x50, 0x50, 0x80, 0x40, 0x08, 0x00, 0xa0, 0xa0,
   0x40, 0x08, 0x04, 0x00, 0x40, 0x51, 0x20, 0x14, 0x3a, 0x00, 0xa0, 0x28,
   0x90, 0x0a, 0x25, 0x00, 0x50, 0x14, 0x48, 0x85, 0xa2, 0x00, 0x28, 0x0a,
   0x90, 0x42, 0x51, 0x01, 0x14, 0x05, 0x20, 0x81, 0x28, 0x02, 0x7a, 0x02,
   0x40, 0x40, 0x14, 0x05, 0x0d, 0x01, 0x80, 0x40, 0x8a, 0x8a, 0x2a, 0x00,
   0x00, 0xc1, 0x45, 0x51, 0x49, 0x00, 0x00, 0x02, 0xa2, 0xa8, 0x00, 0x00,
   0x00, 0x04, 0x51, 0x54, 0x14, 0x01, 0x00, 0x08, 0x2a, 0x2a, 0x0a, 0x02,
   0x00, 0x10, 0x14, 0x15, 0x05, 0x00, 0x00, 0x20, 0x88, 0x8a, 0x02, 0x08,
   0x00, 0x40, 0x50, 0x45, 0x01, 0x10, 0x00, 0x80, 0x20, 0xa0, 0x00, 0x00,
   0x00, 0x00, 0x01, 0x50, 0x00, 0x00, 0x00, 0x00, 0x02, 0x28, 0x00, 0x00,
   0x00, 0x00, 0x04, 0x14, 0x00, 0x00, 0x00, 0x00, 0x08, 0x0a, 0x00, 0x00,
   0x00, 0x00, 0x10, 0x05, 0x00, 0x00, 0x00, 0x00, 0xa0, 0x02, 0x00, 0x00,
   0x00, 0x00, 0x40, 0x01, 0x00, 0x00, 0x00, 0x00, 0x00, 0x00, 0x00, 0x00,
   0x00, 0x00, 0x00, 0x00, 0x00, 0x00, 0x00, 0x00, 0x00, 0x00, 0x00, 0x00};
