#define noname_width 32
#define noname_height 32
static char noname_bits[] = {
 0x00,0x00,0x00,0x00,0x00,0x00,0x00,0x00,0x00,0x00,0x00,0x00,0x00,0x00,0x00,
 0x00,0x00,0x00,0x00,0x00,0x00,0x00,0x00,0x00,0x00,0x00,0x00,0x00,0x00,0x00,
 0x1c,0x00,0x00,0x00,0x2a,0x00,0x00,0x07,0x51,0x00,0x80,0x8a,0xa0,0x00,0x40,
 0x54,0x40,0x01,0x20,0x28,0x80,0x02,0x10,0x10,0x00,0x05,0x08,0x08,0x00,0x0a,
 0x10,0x04,0x00,0x14,0x20,0x02,0x00,0x28,0x40,0x01,0x00,0x14,0x80,0x00,0x00,
 0x0a,0x00,0x01,0x00,0x05,0x00,0x02,0x80,0x02,0x00,0x04,0x40,0x01,0x00,0x08,
 0xa0,0x00,0x00,0x10,0x50,0x00,0x00,0x20,0x28,0x00,0x00,0x40,0x14,0x00,0x00,
 0x80,0x0a,0x00,0x00,0x00,0x07,0x00,0x00,0x00,0x00,0x00,0x00,0x00,0x00,0x00,
 0x00,0x00,0x00,0x00,0x00,0x00,0x00,0x00};
