/* XPM */
static char *ooclasses_32[] = {
/* width height ncolors chars_per_pixel */
"32 32 6 1",
/* colors */
"` c #000000",
"a c #808080",
"b c #2A1FFF",
"c c #FFFFFF",
"d c #FFFF00",
"e c #2A7FAA",
/* pixels */
"cccccccccccccccccccccccccccccccc",
"cccccccccccccccccccccccccccccccc",
"cccccccccccccccccccccccccccccccc",
"cccccccccccccc`aaccccccccccccccc",
"ccccccccccccc`e`aacccccccccccccc",
"cccccccccccc`eee`aaccccccccccccc",
"ccccccccccc`eeeee`aacccccccccccc",
"cccccccccc`eeeeeee`aaccccccccccc",
"ccccccccc`eeeeeee`d`aacccccccccc",
"cccccccc`eeeeeee`ddd`aaccccccccc",
"ccccccc`eeeeeee`ddddd`aacccccccc",
"cccccc`eeeeeee`ddddddd`aaccccccc",
"ccccc`eeeeeee`ddddddd`b`aacccccc",
"cccc`eeeeeee`ddddddd`bbb`aaccccc",
"ccc`eeeeeee`ddddddd`bbbbb`aacccc",
"cccc`eeeee`ddddddd`bbbbbbb`aaccc",
"ccccc`eee`ddddddd`bbbbbbbbb`aacc",
"cccccc`e`ddddddd`bbbbbbbbb`aaccc",
"ccccccc`ddddddd`bbbbbbbbb`aacccc",
"cccccccc`ddddd`bbbbbbbbb`aaccccc",
"ccccccccc`ddd`bbbbbbbbb`aacccccc",
"cccccccccc`d`bbbbbbbbb`aaccccccc",
"ccccccccccc`bbbbbbbbb`aacccccccc",
"cccccccccccc`bbbbbbb`aaccccccccc",
"ccccccccccccc`bbbbb`aacccccccccc",
"cccccccccccccc`bbb`aaccccccccccc",
"ccccccccccccccc`b`aacccccccccccc",
"cccccccccccccccc`aaccccccccccccc",
"cccccccccccccccccccccccccccccccc",
"cccccccccccccccccccccccccccccccc",
"cccccccccccccccccccccccccccccccc",
"cccccccccccccccccccccccccccccccc"
};
