#define usequenced_32.xbm_width 32
#define usequenced_32.xbm_height 32
static unsigned char usequenced_32.xbm_bits[] = {
   0x00, 0x00, 0x00, 0x00, 0x00, 0x00, 0x00, 0x00, 0x00, 0x00, 0x00, 0x00,
   0x00, 0x00, 0x28, 0x00, 0x00, 0x00, 0x50, 0x00, 0x00, 0x00, 0xa0, 0x00,
   0x00, 0x00, 0x40, 0x01, 0x00, 0x00, 0x80, 0x02, 0x00, 0x00, 0x00, 0x05,
   0x00, 0x00, 0xf0, 0x0a, 0x00, 0x00, 0xc0, 0x14, 0x00, 0x00, 0xa0, 0x28,
   0x00, 0x14, 0x90, 0x50, 0x00, 0x28, 0x08, 0xa0, 0x00, 0x50, 0x04, 0x10,
   0x00, 0xaf, 0x02, 0x08, 0x00, 0x4c, 0x01, 0x04, 0x00, 0x0a, 0x04, 0x02,
   0x00, 0x09, 0x04, 0x01, 0x80, 0x00, 0x9f, 0x00, 0x40, 0x00, 0x44, 0x00,
   0x2a, 0x00, 0x24, 0x00, 0x14, 0x00, 0x10, 0x00, 0x28, 0x00, 0x08, 0x00,
   0x50, 0x00, 0x04, 0x00, 0xa0, 0x00, 0x02, 0x00, 0x40, 0x21, 0x01, 0x00,
   0x80, 0xa2, 0x00, 0x00, 0x00, 0x65, 0x00, 0x00, 0x00, 0xea, 0x01, 0x00,
   0x00, 0x14, 0x00, 0x00, 0x00, 0x28, 0x00, 0x00};
