#define oostatetable_50.xbm_width 48
#define oostatetable_50.xbm_height 48
static unsigned char oostatetable_50.xbm_bits[] = {
   0x00, 0x00, 0x00, 0x00, 0x00, 0x00, 0x00, 0x00, 0x00, 0x00, 0x00, 0x00,
   0x00, 0x00, 0x3c, 0x00, 0x00, 0x00, 0x00, 0x00, 0x48, 0x00, 0x00, 0x00,
   0x00, 0x00, 0x91, 0x00, 0x00, 0x00, 0x00, 0x00, 0x20, 0x01, 0x00, 0x00,
   0x00, 0x40, 0x40, 0x02, 0x00, 0x00, 0x00, 0x00, 0xa0, 0x04, 0x00, 0x00,
   0x00, 0x10, 0x10, 0x09, 0x00, 0x00, 0x00, 0x00, 0x08, 0x12, 0x00, 0x00,
   0x00, 0x04, 0x04, 0x24, 0x00, 0x00, 0x00, 0x00, 0x02, 0x48, 0x00, 0x00,
   0x00, 0x01, 0x01, 0x90, 0x00, 0x00, 0x00, 0x80, 0x00, 0x20, 0x01, 0x00,
   0x40, 0x40, 0xc0, 0x43, 0x02, 0x00, 0x00, 0x20, 0x20, 0x86, 0x04, 0x00,
   0x10, 0x10, 0x10, 0x0e, 0x09, 0x00, 0x00, 0x08, 0x08, 0x19, 0x12, 0x00,
   0x04, 0x04, 0x84, 0x30, 0x24, 0x00, 0x00, 0x02, 0x42, 0x60, 0x48, 0x00,
   0x01, 0x01, 0x21, 0xc0, 0x90, 0x00, 0x80, 0x80, 0x10, 0x80, 0x21, 0x01,
   0x44, 0x40, 0x08, 0x00, 0x43, 0x02, 0x20, 0x20, 0x04, 0x00, 0x83, 0x04,
   0x10, 0x10, 0x02, 0x00, 0x03, 0x09, 0x00, 0x08, 0x01, 0x80, 0x01, 0x12,
   0x40, 0x88, 0x00, 0xc0, 0x00, 0x24, 0x00, 0x48, 0x00, 0x60, 0x00, 0x48,
   0x00, 0x31, 0x00, 0x30, 0x00, 0x90, 0x00, 0x20, 0x00, 0x18, 0x00, 0x48,
   0x00, 0x44, 0x00, 0x0c, 0x00, 0x24, 0x00, 0x80, 0x00, 0x06, 0x00, 0x12,
   0x00, 0x10, 0x01, 0x03, 0x00, 0x09, 0x00, 0x00, 0x82, 0x01, 0x80, 0x04,
   0x00, 0x40, 0xc4, 0x00, 0x40, 0x02, 0x00, 0x00, 0x78, 0x00, 0x20, 0x01,
   0x00, 0x00, 0x01, 0x00, 0x90, 0x00, 0x00, 0x00, 0x00, 0x00, 0x48, 0x00,
   0x00, 0x00, 0x04, 0x00, 0x24, 0x00, 0x00, 0x00, 0x00, 0x00, 0x12, 0x00,
   0x00, 0x00, 0x10, 0x00, 0x09, 0x00, 0x00, 0x00, 0x00, 0x80, 0x04, 0x00,
   0x00, 0x00, 0x40, 0x40, 0x02, 0x00, 0x00, 0x00, 0x00, 0x20, 0x01, 0x00,
   0x00, 0x00, 0x00, 0x91, 0x00, 0x00, 0x00, 0x00, 0x00, 0x48, 0x00, 0x00,
   0x00, 0x00, 0x00, 0x3c, 0x00, 0x00, 0x00, 0x00, 0x00, 0x00, 0x00, 0x00};
