#define ustated_32.xbm_width 32
#define ustated_32.xbm_height 32
static unsigned char ustated_32.xbm_bits[] = {
   0x00, 0x00, 0x00, 0x0f, 0x00, 0x00, 0x80, 0x18, 0x00, 0x00, 0x40, 0x30,
   0x00, 0x00, 0x20, 0x30, 0x00, 0x00, 0x10, 0x30, 0x00, 0x00, 0x08, 0x28,
   0x00, 0x00, 0x04, 0x14, 0x00, 0x00, 0x04, 0x0a, 0x0c, 0x00, 0x04, 0x05,
   0x1e, 0x00, 0x88, 0x02, 0x1e, 0x80, 0x77, 0x01, 0x8c, 0x00, 0x06, 0x00,
   0xa0, 0x78, 0x05, 0x00, 0xc0, 0xc4, 0x04, 0x00, 0xf0, 0x82, 0x01, 0x00,
   0x00, 0x81, 0x01, 0x00, 0x80, 0x80, 0x01, 0x00, 0x40, 0x40, 0x01, 0x00,
   0x20, 0xa0, 0x00, 0x00, 0x20, 0x50, 0x00, 0x00, 0x20, 0x28, 0x01, 0x00,
   0x40, 0x54, 0xf1, 0x00, 0x80, 0x8b, 0x89, 0x01, 0x00, 0xe0, 0x05, 0x03,
   0x00, 0x00, 0x02, 0x03, 0x00, 0x00, 0x01, 0x03, 0x00, 0x80, 0x80, 0x02,
   0x00, 0x40, 0x40, 0x01, 0x00, 0x40, 0xa0, 0x00, 0x00, 0x40, 0x50, 0x00,
   0x00, 0x80, 0x28, 0x00, 0x00, 0x00, 0x17, 0x00};
