/* XPM */
static char * ustereotyped_32_xpm[] = {
/* width height ncolors cpp [x_hot y_hot] */
"32 32 2 1 -1 -1",
/* colors */
" 	s iconColor2	m white	c white",
".	s iconColor5	m black	c blue",
/* pixels */
"                                ",
"                                ",
"                                ",
"                                ",
"                                ",
"                    .......     ",
"                        ...     ",
"                         ..     ",
"                 .......  .     ",
"                     ...  .     ",
"                      ..  .     ",
"                       .  .     ",
"                       .        ",
"                       .        ",
"                       .        ",
"                                ",
"        .                       ",
"        .                       ",
"        .                       ",
"     .  .                       ",
"     .  ..                      ",
"     .  ...                     ",
"     .  .......                 ",
"     ..                         ",
"     ...                        ",
"     .......                    ",
"                                ",
"                                ",
"                                ",
"                                ",
"                                ",
"                                "};
