#define oousecase_50.xbm_width 48
#define oousecase_50.xbm_height 48
static unsigned char oousecase_50.xbm_bits[] = {
   0x00, 0x00, 0x00, 0x00, 0x00, 0x00, 0x00, 0x00, 0x00, 0x00, 0x00, 0x00,
   0x00, 0x00, 0xe0, 0x07, 0x00, 0x00, 0x00, 0x00, 0x10, 0x0a, 0x00, 0x00,
   0x00, 0x00, 0x08, 0x14, 0x00, 0x00, 0x00, 0x00, 0x04, 0x14, 0x00, 0x00,
   0x00, 0x00, 0x02, 0x14, 0x00, 0x00, 0x00, 0x00, 0x01, 0x14, 0x00, 0x00,
   0x00, 0x80, 0x00, 0x0a, 0x00, 0x00, 0x00, 0x40, 0x00, 0x05, 0x00, 0x00,
   0x00, 0x40, 0x80, 0x02, 0x00, 0x00, 0x00, 0x40, 0x40, 0xe1, 0x07, 0x00,
   0x00, 0x40, 0xa0, 0x10, 0x0a, 0x00, 0x00, 0x80, 0x50, 0x08, 0x14, 0x00,
   0x00, 0x00, 0x3f, 0x04, 0x14, 0x00, 0x00, 0x00, 0x01, 0x02, 0x14, 0x00,
   0x00, 0x00, 0x01, 0x01, 0x14, 0x00, 0x00, 0x00, 0x81, 0x00, 0x0a, 0x00,
   0x00, 0x00, 0x41, 0x00, 0x05, 0x00, 0x00, 0x00, 0x41, 0x80, 0x02, 0x00,
   0x00, 0x00, 0x41, 0x40, 0xc1, 0x0f, 0xf0, 0x00, 0x41, 0xa0, 0x20, 0x14,
   0x0c, 0x03, 0x81, 0x50, 0x10, 0x28, 0x02, 0x04, 0x41, 0x3f, 0x08, 0x28,
   0x02, 0x04, 0x21, 0x00, 0x04, 0x28, 0x01, 0x08, 0x11, 0x00, 0x02, 0x28,
   0x01, 0x08, 0x09, 0x00, 0x01, 0x14, 0x01, 0x08, 0x00, 0x80, 0x00, 0x0a,
   0x01, 0x08, 0x00, 0x80, 0x00, 0x05, 0x02, 0x04, 0xf9, 0xff, 0x80, 0x02,
   0x02, 0x84, 0x00, 0x80, 0x40, 0x01, 0x0c, 0x47, 0x00, 0x00, 0xa1, 0x00,
   0xf0, 0x28, 0x00, 0x00, 0x7e, 0x00, 0x00, 0x10, 0x00, 0x00, 0x00, 0x00,
   0x00, 0x28, 0x00, 0x00, 0x00, 0x00, 0x00, 0x44, 0x00, 0x00, 0x00, 0x00,
   0x00, 0x82, 0x00, 0x00, 0x00, 0x00, 0x00, 0x01, 0xff, 0x01, 0x00, 0x00,
   0x00, 0x00, 0x01, 0x00, 0x00, 0x00, 0x00, 0x00, 0x01, 0x00, 0x00, 0x00,
   0x00, 0x00, 0x01, 0x00, 0x00, 0x00, 0x00, 0x00, 0x01, 0x00, 0x00, 0x00,
   0x00, 0x00, 0x01, 0x00, 0x00, 0x00, 0x00, 0x00, 0x01, 0x00, 0x00, 0x00,
   0x00, 0x00, 0x01, 0x00, 0x00, 0x00, 0x00, 0x00, 0x01, 0x00, 0x00, 0x00,
   0x00, 0x00, 0x00, 0x00, 0x00, 0x00, 0x00, 0x00, 0x00, 0x00, 0x00, 0x00};
