/* XPM */
static char* align_vert_center_xpm[] = {
/* width height ncolors cpp [x_hot y_hot] */
"32 32 3 1 0 0",
/* colors */
".	m none	c none",
"X	m #000000	c #000000",
" 	m #ffffff	c #ffffff",
/* pixels */
"................................",
"................................",
"................................",
"..XXXXXXXXXXXX..................",
"..XXXXXXXXXXXX..................",
"..XX........XX..................",
"..XX........XX..................",
"..XX........XX..................",
"..XX........XX....XXXXXXXXXXXX..",
"..XX........XX....XXXXXXXXXXXX..",
"..XX........XX....XX........XX..",
"..XX........XX....XX........XX..",
"..XX........XX....XX........XX..",
"..XX........XX....XX........XX..",
"..XX........XX....XX........XX..",
"..XX........XX....XX........XX..",
"XXXXXXXXXXXXXXXXXXXXXXXXXXXXXXXX",
"..XX........XX....XX........XX..",
"..XX........XX....XX........XX..",
"..XX........XX....XX........XX..",
"..XX........XX....XX........XX..",
"..XX........XX....XX........XX..",
"..XX........XX....XX........XX..",
"..XX........XX....XXXXXXXXXXXX..",
"..XX........XX....XXXXXXXXXXXX..",
"..XX........XX..................",
"..XX........XX..................",
"..XX........XX..................",
"..XXXXXXXXXXXX..................",
"..XXXXXXXXXXXX..................",
"................................",
"................................"};
