/* XPM */
static char* arc_xpm[] = {
/* width height ncolors cpp [x_hot y_hot] */
"16 16 4 1 0 0",
/* colors */
".	m none	c none",
"X	m #000000	c #000000",
" 	m #ffffff	c #ffffff",
"O	m #000000	c #808080",
/* pixels */
".............XX.",
"..........XXX X ",
"........XX   X .",
".....XXX     X .",
"...XX        X..",
"....XX      X ..",
"......X     X ..",
".......X   X ...",
"......XOX  X ...",
".....XO  X X ...",
"....XO ..XX ....",
"...XO ... X ....",
"..XO ..... .....",
".XO ............",
".. .............",
"................"};
