/* XPM */
static char* arc_l_cur_xpm[] = {
/* width height ncolors cpp [x_hot y_hot] */
"32 32 3 1 14 0",
/* colors */
".	m none	c none",
"X	m #000000	c #000000",
" 	m #ffffff	c #ffffff",
/* pixels */
".............XX.................",
"..........XXXXX ................",
"........XXXXXX .................",
".....XXXXXXXXX .................",
"...XXXXXXXXXXX .................",
"....XXXXXXXXX ..................",
"......XXXXXXX ..................",
".......XXXXX ...................",
"......XXXXXX ...................",
".....XX  XXX ...................",
"....XX ..XX ....................",
"...XX ... X ....................",
"..XX ..... .....................",
".XX ............................",
".. .............................",
"................................",
"................................",
"................................",
"................................",
"................................",
"................................",
"................................",
"................................",
"................................",
"................................",
"................................",
"................................",
"................................",
"................................",
"................................",
"................................",
"................................"};
