#define bad_bm.xbm_width 16
#define bad_bm.xbm_height 12
static unsigned char bad_bm.xbm_bits[] = {
   0x00, 0x00, 0xf8, 0x03, 0x0c, 0x06, 0x06, 0x0e, 0x03, 0x1b, 0x83, 0x19,
   0xc3, 0x18, 0x63, 0x18, 0x33, 0x18, 0x1e, 0x0c, 0x0c, 0x06, 0xf8, 0x03};
