/* XPM */
static char *cat_close_32[] = {
/* width height ncolors chars_per_pixel */
"32 32 5 1",
/* colors */
"` c #000000",
"a c #FFDF55",
"b c #808080",
"c c #FFFFFF",
"d c #FFFF00",
/* pixels */
"cccccccccccccccccccccccccccccccc",
"cccccccccccccccccccccccccccccccc",
"cccccccccccccccccccccccccccccccc",
"cccccccccccccccccccccccccccccccc",
"cccccccccccc```bcccccccccccccccc",
"ccccccccccc`aaa`bccccccccccccccc",
"cccccccccc`addda`bcccccccccccccc",
"ccccccccc`addddda`bccccccccccccc",
"cccccccc`addddddda`bcccccccccccc",
"ccccccc`addddddddda`bccccccccccc",
"cccccc`addddddddddda``````bccccc",
"ccccc`adddddddddddddaaaaaa`bcccc",
"cccc`adddddddddddddddddddda`bccc",
"ccc`adddddddddddddddddddddda`bcc",
"ccc`addddddddddddddddddddddda`bc",
"cccc`adddddddddddddddddddddda`bc",
"ccccc`addddddddddddddddddddda`bc",
"cccccc`adddddddddddddddddddda`bc",
"ccccccc`addddddddddddddddddda`bc",
"cccccccc`adddddddddddddddddda`bc",
"ccccccccc`adddddddddddddddda`bcc",
"cccccccccc`adddddddddddddda`bccc",
"ccccccccccc`adddddddddddda`bcccc",
"cccccccccccc`adddddddddda`bccccc",
"ccccccccccccc`adddddddda`bcccccc",
"cccccccccccccc`adddddda`bccccccc",
"ccccccccccccccc`adddda`bcccccccc",
"cccccccccccccccc`adda`bccccccccc",
"ccccccccccccccccc`aa`bcccccccccc",
"cccccccccccccccccc``bccccccccccc",
"cccccccccccccccccccccccccccccccc",
"cccccccccccccccccccccccccccccccc"
};
