/* XPM */
static char *cat_open_32[] = {
/* width height ncolors chars_per_pixel */
"32 32 5 1",
/* colors */
"` c #000000",
"a c #808080",
"b c #AA7F00",
"c c #FFFFFF",
"d c #FFFF00",
/* pixels */
"cccccccccccccccccccccccccccccccc",
"cccccccccccccccccccccccccccccccc",
"cccccccccccccccccccccccccccccccc",
"cccccccccccccccccccccccccccccccc",
"cccccccccccc```acccccccccccccccc",
"ccc``cccccc`bbb`accccccccccccccc",
"ccc`d`cccc`bbbbb`acccccccccccccc",
"ccc`dd`cc`bbbbbbb`accccccccccccc",
"ccc`ddd``bbbbbbbbb`acccccccccccc",
"ccc`dddd`bbbbbbbbbb`accccccccccc",
"ccc`ddddd`bbbbbbbbbb``````accccc",
"ccc`dddddd`bbbbbbbbbbbbbbb`acccc",
"ccc`ddddddd`bbbbbbbbbbbbbbb`accc",
"ccc`dddddddd`bbbbbbbbbbbbbbb`acc",
"ccc`ddddddddd`bbbbbbbbbbbbbbb`ac",
"ccc`dddddddddd`bbbbbbbbbbbbbb`ac",
"cccc`dddddddddd`bbbbbbbbbbbbb`ac",
"ccccc`dddddddddd`bbbbbbbbbbbb`ac",
"cccccc`dddddddddd`bbbbbbbbbbb`ac",
"ccccccc`dddddddddd`bbbbbbbbbb`ac",
"cccccccc`ddddddddd`bbbbbbbbb`acc",
"ccccccccc`dddddddd`bbbbbbbb`accc",
"cccccccccc`ddddddd`bbbbbbb`acccc",
"ccccccccccc`dddddd`bbbbbb`accccc",
"cccccccccccc`ddddd`bbbbb`acccccc",
"ccccccccccccc`dddd`bbbb`accccccc",
"cccccccccccccc`ddd`bbb`acccccccc",
"ccccccccccccccc`dd`bb`accccccccc",
"cccccccccccccccc`d`b`acccccccccc",
"ccccccccccccccccc```accccccccccc",
"cccccccccccccccccccccccccccccccc",
"cccccccccccccccccccccccccccccccc"
};
