#define check_bm.xbm_width 14
#define check_bm.xbm_height 12
static unsigned char check_bm.xbm_bits[] = {
   0x00, 0x20, 0x00, 0x18, 0x00, 0x0c, 0x00, 0x06, 0x04, 0x03, 0x8e, 0x03,
   0xde, 0x01, 0xfc, 0x01, 0xf8, 0x00, 0xf0, 0x00, 0x60, 0x00, 0x40, 0x00};
