/* XPM */
static char* delete_row_xpm[] = {
/* width height ncolors cpp [x_hot y_hot] */
"16 16 6 1 0 0",
/* colors */
".	m none	c none",
"X	m #000000	c #000000",
" 	m #ffffff	c #ffffff",
"O	m #000000	c #0000ff",
"o	m #000000	c #000080",
"x	m #000000	c #00ffff",
/* pixels */
"................",
".XXXXXXX........",
".      X........",
".      X........",
".      X........",
".XXXXXXX........",
"...OOOOOOO..o...",
"...xxxxxxO..oo..",
"...xxxxxxOooooo.",
"...xxxxxxO..oo..",
"...OOOOOOO..o...",
".XXXXXXX........",
".      X........",
".      X........",
".      X........",
".XXXXXXX........"};
