#define descln1_width 12
#define descln1_height 12
static char descln1_bits[] = {
   0xfe, 0x00, 0x82, 0x01, 0xaa, 0x02, 0x82, 0x07, 0x3a, 0x04, 0x02, 0x04,
   0xba, 0x05, 0x02, 0x04, 0xfa, 0x04, 0x02, 0x04, 0x02, 0x04, 0xfe, 0x07};
