#define descln2_width 8
#define descln2_height 8
static char descln2_bits[] = {
   0x3e, 0x62, 0x4a, 0x42, 0x5a, 0x42, 0x42, 0x7e};
