/* XPM */
static char* dmark_noupdate_xpm[] = {
/* width height ncolors cpp [x_hot y_hot] */
"16 16 4 1 0 0",
/* colors */
".	m none	c none",
"X	m #000000	c #000000",
" 	m #ffffff	c #ffffff",
"O	m #000000	c #ff0000",
/* pixels */
"................",
"................",
"..OO........OO..",
"...OO......OO...",
"....OO....OO....",
".....OO..OO.....",
"......OOOO......",
".......OO.......",
"......OOOO......",
".....OO..OO.....",
"....OO....OO....",
"...OO......OO...",
"..OO........OO..",
"................",
"................",
"................"};
