/* XPM */
static char* edit_diagram_xpm[] = {
/* width height ncolors cpp [x_hot y_hot] */
"16 16 7 1 0 0",
/* colors */
".	m none	c none",
"X	m #000000	c #000000",
" 	m #ffffff	c #ffffff",
"O	m #ffffff	c #c0c0c0",
"o	m #000000	c #ff0000",
"x	m #000000	c #ffff00",
"+	m #000000	c #808080",
/* pixels */
"XXXXXXXXX.......",
"X       XX......",
"X       XOX.....",
"X       XXXX....",
"X          X.XX.",
"X XXXXXXX  OXoX.",
"X X        XxX..",
"X XXXXXX  XxX...",
"X X X    XxX....",
"X X X   XxXO....",
"X X X  X+X X....",
"X XXXX XX  X....",
"X          X....",
"X          X....",
"XXXXXXXXXXXX....",
"................"};
