/* XPM */
static char* execute_query_xpm[] = {
/* width height ncolors cpp [x_hot y_hot] */
"16 16 4 1 0 0",
/* colors */
".	m none	c none",
"X	m #000000	c #000000",
" 	m #ffffff	c #ffffff",
"O	m #000000	c #00ffff",
/* pixels */
"................",
"............OX..",
"...........OOX..",
"...........OX...",
"......OX..OOX...",
"......OX.OOX....",
".....OOOXOOX....",
".....OOOOOX.....",
"....OOXOOOX.....",
"....OOX.OX......",
"...OOX..OX......",
"...OX...........",
"..OOX...........",
"..OX............",
"................",
"................"};
