/* XPM */
static char* fit_to_label_xpm[] = {
/* width height ncolors cpp [x_hot y_hot] */
"16 16 3 1 0 0",
/* colors */
".	m none	c none",
"X	m #000000	c #000000",
" 	m #ffffff	c #ffffff",
/* pixels */
"................",
"XXXXXXXXXXXXXXXX",
"X              X",
"X              X",
".     XXX      .",
".X      XX    X.",
"XXXX  XXXX. XXXX",
".X.. XX.XX. ..X.",
"..   XX.XX.   ..",
"X     XXX .    X",
"X      ...     X",
"X              X",
"XXXXXXXXXXXXXXXX",
"................",
"................",
"................"};
