/* XPM */
static char* frame_32_xpm[] = {
/* width height ncolors cpp [x_hot y_hot] */
"16 16 6 1 0 0",
/* colors */
".	m none	c none",
"X	m #000000	c #000000",
" 	m #ffffff	c #ffffff",
"O	m #000000	c #00ffff",
"o	m #000000	c #ff0000",
"x	m #ffffff	c #c6c3c6",
/* pixels */
"XXXXXXXXXX......",
"XOOOOOOOOXX.....",
"XOOOOOOOOXOX....",
"XOooooooOXOOX...",
"XOooooooOXXXXXx.",
"XOOOOOOOOOOOOXx.",
"XOooOoOOOOOOOXx.",
"XOooOooOOOOOOXx.",
"XOooOoOOOOOOOXx.",
"XOooOOOOOOOOOXx.",
"XOooOOOOOOOOOXx.",
"XOooOOOOOOOOOXx.",
"XOOOOOOOOOOOOXx.",
"XXXXXXXXXXXXXXx.",
"..xxxxxxxxxxxxx.",
"................"};
