/* XPM */
static char* insert_row_xpm[] = {
/* width height ncolors cpp [x_hot y_hot] */
"16 16 6 1 0 0",
/* colors */
".	m none	c none",
"X	m #000000	c #000000",
" 	m #ffffff	c #ffffff",
"O	m #000000	c #800000",
"o	m #000000	c #ff0000",
"x	m #000000	c #ffff00",
/* pixels */
"................",
".XXXXXXX........",
".      X........",
".      X........",
".      X........",
".XXXXXXX........",
"......O...oooooo",
".....OO...oxxxxx",
"....OOOOOOoxxxxx",
".....OO...oxxxxx",
"......O...oooooo",
".XXXXXXX........",
".      X........",
".      X........",
".      X........",
".XXXXXXX........"};
