/* XPM */
static char* kill_script_xpm[] = {
/* width height ncolors cpp [x_hot y_hot] */
"16 16 6 1 0 0",
/* colors */
".	m none	c none",
"X	m #000000	c #000000",
" 	m #ffffff	c #ffffff",
"O	m #000000	c #808080",
"o	m #000000	c #000080",
"x	m #000000	c #800000",
/* pixels */
"OOOOOOOOOOO..ooO",
"O         OOooO.",
"O     oo  OooOO.",
"O XXX OOooooOx..",
"O       OoooOx..",
"O  XXXXXooooox..",
"O      OooOOoo..",
"O  XXXXooOO.ooO.",
"O     OooOO..xoO",
"O   XXooOOO..xoO",
"O     oOO O..x..",
"O  XXXXXX Oxxxxx",
"O         O.xxx.",
"O         O..x..",
"OOOOOOOOOOO.....",
"................"};
