#define left_arrow_bm.xbm_width 16
#define left_arrow_bm.xbm_height 12
static unsigned char left_arrow_bm.xbm_bits[] = {
   0x40, 0x40, 0x60, 0xc0, 0x70, 0xc0, 0x78, 0xc0, 0xfc, 0xdf, 0xfe, 0xdf,
   0xfe, 0xdf, 0xfc, 0xdf, 0x78, 0xc0, 0x70, 0xc0, 0x60, 0x80, 0x40, 0x00};
