#define lock0.xbm_width 16
#define lock0.xbm_height 16
static char lock0.xbm_bits[] = {
   0xf0, 0x0f, 0x08, 0x10, 0xe4, 0x27, 0x14, 0x28, 0x14, 0x28, 0x14, 0x28,
   0xff, 0xff, 0x01, 0x80, 0x01, 0x80, 0x81, 0x81, 0x01, 0x81, 0x01, 0x81,
   0x01, 0x80, 0x01, 0x80, 0x01, 0x80, 0xff, 0xff};