#define lock2.xbm_width 8
#define lock2.xbm_height 8
static char lock2.xbm_bits[] = {
   0x3c, 0x42, 0x42, 0xff, 0x81, 0x99, 0x81, 0xff};