#define mig_32.xbm_width 32
#define mig_32.xbm_height 32
static unsigned char mig_32.xbm_bits[] = {
   0x00, 0x00, 0x00, 0x00, 0x00, 0x00, 0x00, 0x00, 0xf8, 0x1f, 0x00, 0x00,
   0x08, 0x14, 0x00, 0x00, 0x08, 0x0a, 0x00, 0x00, 0x08, 0x05, 0x00, 0x00,
   0x08, 0x0a, 0x00, 0x00, 0x48, 0x14, 0x00, 0x00, 0xa8, 0x28, 0x00, 0x00,
   0x58, 0x51, 0x00, 0x00, 0x38, 0xa2, 0x38, 0x00, 0x00, 0x51, 0x54, 0x00,
   0x80, 0x28, 0xa2, 0x00, 0x40, 0x14, 0x41, 0x01, 0x80, 0xa8, 0x88, 0x02,
   0x00, 0x51, 0x14, 0x05, 0x00, 0x22, 0x2a, 0x0a, 0x00, 0x04, 0x45, 0x14,
   0x00, 0x88, 0x22, 0x0a, 0x00, 0x50, 0x11, 0x05, 0x00, 0xe0, 0x88, 0x02,
   0x00, 0x00, 0x44, 0x01, 0x00, 0x00, 0xa2, 0x00, 0x00, 0x00, 0x51, 0x00,
   0x00, 0x00, 0xa2, 0x00, 0x00, 0x00, 0x44, 0x01, 0x00, 0x00, 0x88, 0x02,
   0x00, 0x00, 0x10, 0x05, 0x00, 0x00, 0xa0, 0x02, 0x00, 0x00, 0xc0, 0x01,
   0x00, 0x00, 0x00, 0x00, 0x00, 0x00, 0x00, 0x00};
