/* XPM */
static char* msg_warning_xpm[] = {
/* width height ncolors cpp [x_hot y_hot] */
"16 16 6 1 0 0",
/* colors */
".	m none	c none",
"X	m #000000	c #000000",
" 	m #ffffff	c #ffffff",
"O	m #000000	c #808080",
"o	m #000000	c #808000",
"x	m #000000	c #ffff00",
/* pixels */
"................",
".......OO.......",
"......OooO......",
"......OoxO......",
".....OoxxxO.....",
".....Oo  xO.....",
"....Oox  oxO....",
"....Oox  oxO....",
"...Ooxx  oxxO...",
"..OOoxxxooxxOO..",
"..Ooxxx  xxxxO..",
".OOoxxx  oxxxOO.",
".OoxxxxxooxxxxO.",
"OoxxxxxxxxxxxxxO",
"OOOOOOOOOOOOOOOO",
"................"};
