/* XPM */
static char* msg_critical_xpm[] = {
/* width height ncolors cpp [x_hot y_hot] */
"16 16 6 1 0 0",
/* colors */
".	m none	c none",
"X	m #000000	c #000000",
" 	m #ffffff	c #ffffff",
"O	m #000000	c #808080",
"o	m #000000	c #000080",
"x	m #000000	c #ff0000",
/* pixels */
"................",
".....OOOOOO.....",
"....OooooooO....",
"...OoxxxxxxxO...",
"..OoxxxxxxxxxO..",
".Ooxxxx  xxxxxO.",
".Ooxxxx  oxxxxO.",
".Ooxxxx  oxxxxO.",
".Ooxxxx  oxxxxO.",
".OoxxxxxooxxxxO.",
".Ooxxxx  xxxxxO.",
"..Ooxxx  oxxxO..",
"...OoxxxooxxO...",
"....OoxxxxxO....",
".....OOOOOO.....",
"................"};
