#define new_row_width 16
#define new_row_height 16
#define new_row_x_hot 8
#define new_row_y_hot 8
static unsigned char new_row_bits[] = {
   0x00, 0x00, 0x80, 0x01, 0xc0, 0x03, 0xe0, 0x07, 0x80, 0x01, 0x80, 0x01,
   0xfe, 0x7f, 0x00, 0x00, 0x00, 0x00, 0xfe, 0x7f, 0x80, 0x01, 0x80, 0x01,
   0xe0, 0x07, 0xc0, 0x03, 0x80, 0x01, 0x00, 0x00};
