/* XPM */
static char* new_table_xpm[] = {
/* width height ncolors cpp [x_hot y_hot] */
"16 16 5 1 0 0",
/* colors */
".	m none	c none",
"X	m #000000	c #000000",
" 	m #ffffff	c #ffffff",
"O	m #000000	c #808080",
"o	m #000000	c #ffff00",
/* pixels */
"..........X.....",
"................",
"..........X.....",
".......X.....X..",
"........X.X.X...",
".........X.X....",
".XXXXXXXXXX.X.X.",
".XO XOo o XX....",
".XXXXXXXXXX.X...",
".XO XO    X..X..",
".XOoXO    X.....",
".XO XO    X.....",
".XOoXO    X.....",
".XO XO    X.....",
".XXXXXXXXXX.....",
"................"};
