#define new_corner_mask_width 16
#define new_corner_mask_height 16
#define new_corner_mask_x_hot 8
#define new_corner_mask_y_hot 8
static unsigned char new_corner_mask_bits[] = {
   0xff, 0xff, 0xff, 0xff, 0xff, 0xff, 0xff, 0xff, 0x0f, 0x00, 0x0f, 0x00,
   0x0f, 0x00, 0x0f, 0x00, 0x0f, 0x00, 0x0f, 0x00, 0x0f, 0x00, 0x0f, 0x00,
   0x0f, 0x00, 0x0f, 0x00, 0x0f, 0x00, 0x0f, 0x00};
