#define new_col_width 16
#define new_col_height 16
#define new_col_x_hot 8
#define new_col_y_hot 8
static unsigned char new_col_bits[] = {
   0x00, 0x00, 0x40, 0x02, 0x40, 0x02, 0x40, 0x02, 0x40, 0x02, 0x48, 0x12,
   0x4c, 0x32, 0x7e, 0x7e, 0x7e, 0x7e, 0x4c, 0x32, 0x48, 0x12, 0x40, 0x02,
   0x40, 0x02, 0x40, 0x02, 0x40, 0x02, 0x00, 0x00};
