/* XPM */
static char* T:\TREE_~R1\source\TEMPL~RU\ct\win32res\OBJEC~6M_xpm[] = {
/* width height ncolors cpp [x_hot y_hot] */
"16 16 4 1 0 0",
/* colors */
".	m none	c none",
"X	m #000000	c #000000",
" 	m #ffffff	c #ffffff",
"O	m #ffffff	c #c0c0c0",
/* pixels */
"................",
".........X......",
"........X.X.....",
"..XXXXXXX.XXX...",
"..X       XOX...",
"..X    X  XOX...",
"..X XX XO XOX...",
"..X    XO XOX...",
"..X XX XO XOX...",
"..X     XX OX...",
"..X XX X OO X...",
"..X         X...",
"..X XX XXXX X...",
"..X         X...",
"..XXXXXXXXXXX...",
"................"};
