#define oms_14x12_width 14
#define oms_14x12_height 12
static char oms_14x12_bits[] = {
   0x80, 0x01, 0x60, 0x03, 0x90, 0x04, 0x88, 0x08, 0x44, 0x10, 0x24, 0x10,
   0x1a, 0x08, 0x06, 0x08, 0x04, 0x04, 0x08, 0x02, 0x90, 0x01, 0x60, 0x00};
