/* XPM */
static char* open_model_xpm[] = {
/* width height ncolors cpp [x_hot y_hot] */
"16 16 5 1 0 0",
/* colors */
".	m none	c none",
"X	m #000000	c #000000",
" 	m #ffffff	c #ffffff",
"O	m #000000	c #00ffff",
"o	m #000000	c #808080",
/* pixels */
"................",
"................",
".........XXX....",
"........X...X.X.",
".............XX.",
"............XXX.",
".XXXX..XXXX.....",
".XO XXXXO Xo....",
".X OXo.X OXo....",
".XXXXo.XXXXo....",
"..Xooo..oXoo....",
".XXXX..XXXX.....",
".XO Xo.XO Xo....",
".X OXXXX OXo....",
".XXXXo.XXXXo....",
"..oooo..oooo...."};
