/* XPM */
static char* open_file_xpm[] = {
/* width height ncolors cpp [x_hot y_hot] */
"16 16 5 1 0 0",
/* colors */
".	m none	c none",
"X	m #000000	c #000000",
" 	m #ffffff	c #ffffff",
"O	m #000000	c #ffff00",
"o	m #000000	c #008080",
/* pixels */
"................",
"................",
".........XXX....",
"........X...X.X.",
".............XX.",
".XXX........XXX.",
"XO OXXXXXXX.....",
"X O O O O X.....",
"XO O O O OX.....",
"X O OXXXXXXXXXXX",
"XO OXoooooooooX.",
"X OXoooooooooX..",
"XOXoooooooooX...",
"XXoooooooooX....",
"XXXXXXXXXXX.....",
"................"};
