/* XPM */
static char* T:\TREE_~R1\source\TEMPL~RU\ct\win32res\ORTHO~M2_xpm[] = {
/* width height ncolors cpp [x_hot y_hot] */
"16 16 3 1 0 0",
/* colors */
".	m none	c none",
"X	m #000000	c #000000",
" 	m #ffffff	c #ffffff",
/* pixels */
"................",
".XXX............",
"...X............",
"...XXXXXXXX.....",
"...X......X.....",
".XXX......X.....",
"..........X.....",
"..........X.....",
"..........X.....",
"..........X.....",
"..........X.....",
"..........X.....",
"......XXXXXXXXX.",
"......X.......X.",
"......X.......X.",
"................"};
