/* XPM */
static char *repos_admin_32[] = {
/* width height ncolors chars_per_pixel */
"32 32 8 1",
/* colors */
"` c #000000",
"a c #2A1FAA",
"b c #2A7FFF",
"c c #808080",
"d c #2A1FFF",
"e c #2A1F00",
"f c #FFFFFF",
"g c #FFFF00",
/* pixels */
"ffffffffffffffffffffffffffffffff",
"ffffe````ccfffffffffffffffffffff",
"fffff`ggg`ccffffffffffff``ffffff",
"ffffff`ggg`ccfffffffff``b``fffff",
"feccfff`ggg`ccfffffff`bb`dd`ffff",
"f``ccfff`gg`ccffffff`bbb`ddd`fff",
"f`g`ccf`ggg`ccfffff`bbb`ddddd`ff",
"f`gg`c`gggg`ccffff`bbb`dddddd`ff",
"f`ggg`ggggg`ccffff`bb`dddddd`fff",
"ff`ggggggggg`ccff`b``adddddd`fff",
"fff`ggggggggg`ccf``aadadada`ffff",
"ffff`````ggggg`ccf`aaaaaaa``ffff",
"fffffffff`ggggg`ccf`aaaaa``d`fff",
"ffffffffff`ggggg`ccf`aa```ddd`ff",
"fffffffffff`ggggg`cf```b`ddddd`f",
"ffffffffffff`ggg```c`bb`dddddd`f",
"fffffffffffff```b`g`bb`dddddd`ff",
"ffffffff``fff`bb`d`b``adddddd`ff",
"ffffff``b`ff`bbb`d``aadadada`fff",
"fffff`bb`d``bbb`ddd`aaaaaaa`ffff",
"ffff`bbb`d`bbb`ddddd`aaaaa`fffff",
"fff`bbb`dd`bb`ddddddd`aa``cfffff",
"ff`bbb`dd`b``adddddd`g``g`ccffff",
"ff`bb`ddd``aadadada``ggggg`ccfff",
"f`b``adddd`aaaaaaa`ff`gggg`ccfff",
"f``aadadada`aaaaa`ffff`ggg`ccfff",
"ff`aaaaaaa`f`aa``ffffff````cffff",
"fff`aaaaa`fff``fffffffffffffffff",
"ffff`aa``fffffffffffffffffffffff",
"fffff``fffffffffffffffffffffffff",
"ffffffffffffffffffffffffffffffff",
"ffffffffffffffffffffffffffffffff"
};
