#define rqtbl_32.xbm_width 32
#define rqtbl_32.xbm_height 32
static unsigned char rqtbl_32.xbm_bits[] = {
   0x00, 0x00, 0x00, 0x00, 0x00, 0x00, 0x00, 0x00, 0x00, 0x00, 0x00, 0x00,
   0x00, 0x70, 0x00, 0x00, 0x00, 0xa4, 0x00, 0x00, 0x00, 0x40, 0x01, 0x00,
   0x00, 0xc1, 0x02, 0x00, 0x00, 0x20, 0x05, 0x00, 0x40, 0x10, 0x0a, 0x00,
   0x00, 0xc8, 0x14, 0x00, 0x10, 0xc4, 0x28, 0x00, 0x00, 0xc2, 0x50, 0x00,
   0x14, 0xc1, 0xb0, 0x00, 0xa0, 0xc0, 0x48, 0x01, 0x41, 0xf0, 0x84, 0x02,
   0xa0, 0xf0, 0x02, 0x05, 0x14, 0x01, 0x61, 0x0a, 0x00, 0x82, 0x60, 0x14,
   0x10, 0x44, 0x60, 0x28, 0x00, 0x28, 0x60, 0x28, 0x40, 0x10, 0x60, 0x14,
   0x00, 0x20, 0x78, 0x0a, 0x00, 0x41, 0x78, 0x05, 0x00, 0x80, 0x80, 0x02,
   0x00, 0x04, 0x41, 0x01, 0x00, 0x00, 0xa2, 0x00, 0x00, 0x10, 0x54, 0x00,
   0x00, 0x00, 0x28, 0x00, 0x00, 0x40, 0x14, 0x00, 0x00, 0x00, 0x0a, 0x00,
   0x00, 0x00, 0x07, 0x00, 0x00, 0x00, 0x00, 0x00};
