#define rqtbl_50.xbm_width 48
#define rqtbl_50.xbm_height 48
static unsigned char rqtbl_50.xbm_bits[] = {
   0x00, 0x00, 0x00, 0x00, 0x00, 0x00, 0x00, 0x00, 0x00, 0x00, 0x00, 0x00,
   0x00, 0x00, 0x3c, 0x00, 0x00, 0x00, 0x00, 0x00, 0x48, 0x00, 0x00, 0x00,
   0x00, 0x00, 0x91, 0x00, 0x00, 0x00, 0x00, 0x00, 0x20, 0x01, 0x00, 0x00,
   0x00, 0x40, 0x40, 0x02, 0x00, 0x00, 0x00, 0x00, 0xa0, 0x04, 0x00, 0x00,
   0x00, 0x10, 0x10, 0x09, 0x00, 0x00, 0x00, 0x00, 0x08, 0x12, 0x00, 0x00,
   0x00, 0x04, 0x04, 0x24, 0x00, 0x00, 0x00, 0x00, 0x02, 0x48, 0x00, 0x00,
   0x00, 0x01, 0x01, 0x90, 0x00, 0x00, 0x00, 0x80, 0xe0, 0x20, 0x01, 0x00,
   0x40, 0x40, 0xe0, 0x40, 0x02, 0x00, 0x00, 0x20, 0xe0, 0x80, 0x04, 0x00,
   0x10, 0x10, 0xe0, 0x00, 0x09, 0x00, 0x00, 0x08, 0xe0, 0x00, 0x12, 0x00,
   0x14, 0x04, 0xe0, 0x00, 0x25, 0x00, 0x20, 0x02, 0xe0, 0x80, 0x48, 0x00,
   0x41, 0x01, 0xe0, 0x40, 0x90, 0x00, 0x80, 0x00, 0xfc, 0x20, 0x20, 0x01,
   0x44, 0x01, 0xfc, 0x10, 0x40, 0x02, 0x20, 0x02, 0xfc, 0x08, 0x87, 0x04,
   0x10, 0x04, 0x00, 0x04, 0x07, 0x09, 0x00, 0x08, 0x00, 0x02, 0x07, 0x12,
   0x40, 0x10, 0x00, 0x01, 0x07, 0x24, 0x00, 0x20, 0x80, 0x00, 0x07, 0x48,
   0x00, 0x41, 0x40, 0x00, 0x07, 0x90, 0x00, 0x80, 0x20, 0x00, 0x07, 0x48,
   0x00, 0x04, 0x11, 0x00, 0x07, 0x24, 0x00, 0x00, 0x0a, 0x00, 0x07, 0x12,
   0x00, 0x10, 0x04, 0xe0, 0x07, 0x09, 0x00, 0x00, 0x08, 0xe0, 0x87, 0x04,
   0x00, 0x40, 0x10, 0xe0, 0x47, 0x02, 0x00, 0x00, 0x20, 0x00, 0x20, 0x01,
   0x00, 0x00, 0x41, 0x00, 0x90, 0x00, 0x00, 0x00, 0x80, 0x00, 0x48, 0x00,
   0x00, 0x00, 0x04, 0x01, 0x24, 0x00, 0x00, 0x00, 0x00, 0x02, 0x12, 0x00,
   0x00, 0x00, 0x10, 0x04, 0x09, 0x00, 0x00, 0x00, 0x00, 0x88, 0x04, 0x00,
   0x00, 0x00, 0x40, 0x50, 0x02, 0x00, 0x00, 0x00, 0x00, 0x20, 0x01, 0x00,
   0x00, 0x00, 0x00, 0x91, 0x00, 0x00, 0x00, 0x00, 0x00, 0x48, 0x00, 0x00,
   0x00, 0x00, 0x00, 0x3c, 0x00, 0x00, 0x00, 0x00, 0x00, 0x00, 0x00, 0x00};
