/* XPM */
static char* run_script_xpm[] = {
/* width height ncolors cpp [x_hot y_hot] */
"16 16 5 1 0 0",
/* colors */
".	m none	c none",
"X	m #000000	c #000000",
" 	m #ffffff	c #ffffff",
"O	m #000000	c #808080",
"o	m #000000	c #800000",
/* pixels */
"OOOOOOOOOOO.....",
"O         O.....",
"O         O..o..",
"O XXX     O..o..",
"O         O..o..",
"O  XXXXXX O..o..",
"O         O..o..",
"O  XXXXXX O..o..",
"O         O..o..",
"O   XXXX  O..o..",
"O         O..o..",
"O  XXXXXX Oooooo",
"O         O.ooo.",
"O         O..o..",
"OOOOOOOOOOO.....",
"................"};
