/* XPM */
static char *scriptman_32[] = {
/* width height ncolors chars_per_pixel */
"32 32 8 1",
/* colors */
"` c #000000",
"a c #AA0000",
"b c #2A7FFF",
"c c #808080",
"d c #2A1FFF",
"e c #AA7F00",
"f c #FFFFFF",
"g c #FFFF00",
/* pixels */
"ffffffffffffffffffffffffffffffff",
"ffffffffffffffffffffffffffffffff",
"ffffffffffffffffffffffffffffffff",
"ffff```````ccfffffffffffffffffff",
"fff``eeeee``ccffffffffffffffffff",
"ff`gg`eee`gg`ccfffffffffffffffff",
"f`gggg`e`gggg`ccffffffffffffffff",
"`gggggg`gggggg`ccfffffffffffffff",
"f`ggggggggggggg`ccffffffffffffff",
"ff`ggggggggggggg`ccfffffffffffff",
"fff`ggggggggggggg`ccffffffffffff",
"ffff`ggggggggggg`ccfffffffffffff",
"fffff`ggggggggg`ccffffffffffffff",
"ffffff`ggggggg`ccfffffffffffffff",
"fffffff`ggggg`ccffffffffffffffff",
"ffffffff`ggg`ccfaaaaffffffffffff",
"fffffffff`g`ccffaaffffffffffffff",
"ffffffffff`ccfffafaffffff``fffff",
"ffffffffffffffffaffafff``b``ffff",
"ffffffffffffffffffffaf`bb`dd`fff",
"fffffffffffffffffffffabbb`ddd`ff",
"ffffffffffffffffffff`bab`ddddd`f",
"fffffffffffffffffff`bbb`dddddd`f",
"fffffffffffffffffff`bb`dddddd`ff",
"ffffffffffffffffff`b``ddddddd`ff",
"ffffffffffffffffff``dddddddd`fff",
"fffffffffffffffffff`ddddddd`ffff",
"ffffffffffffffffffff`ddddd`fffff",
"fffffffffffffffffffff`dd``ffffff",
"ffffffffffffffffffffff``ffffffff",
"ffffffffffffffffffffffffffffffff",
"ffffffffffffffffffffffffffffffff"
};
