/* XPM */
static char* space_horz_edge_xpm[] = {
/* width height ncolors cpp [x_hot y_hot] */
"32 32 3 1 0 0",
/* colors */
".	m none	c none",
"X	m #000000	c #000000",
" 	m #ffffff	c #ffffff",
/* pixels */
"................................",
"................................",
"................................",
"................................",
"................................",
"................................",
"XXXXXXXXXX............XXXXXXXXXX",
"XXXXXXXXXX............XXXXXXXXXX",
"XX......XX............XX......XX",
"XX......XX............XX......XX",
"XX......XX............XX......XX",
"XX......XX............XX......XX",
"XX......XX...X....X...XX......XX",
"XX......XX..X......X..XX......XX",
"XX......XX.X........X.XX......XX",
"XX......XXXXXXXXXXXXXXXX......XX",
"XX......XX.X........X.XX......XX",
"XX......XX..X......X..XX......XX",
"XX......XX...X....X...XX......XX",
"XX......XX............XX......XX",
"XX......XX............XX......XX",
"XX......XX............XX......XX",
"XX......XX............XX......XX",
"XX......XX............XX......XX",
"XXXXXXXXXX............XXXXXXXXXX",
"XXXXXXXXXX............XXXXXXXXXX",
"................................",
"................................",
"................................",
"................................",
"................................",
"................................"};
