/* XPM */
static char* space_horz_center_xpm[] = {
/* width height ncolors cpp [x_hot y_hot] */
"32 32 3 1 0 0",
/* colors */
".	m none	c none",
"X	m #000000	c #000000",
" 	m #ffffff	c #ffffff",
/* pixels */
"XXXXXXXXXXXXX......XXXXXXXXXXXXX",
"XXXXXXXXXXXXX......XXXXXXXXXXXXX",
"XX.........XX......XX.........XX",
"XX.........XX......XX.........XX",
"XX.........XX......XX.........XX",
"XX.........XX......XX.........XX",
"XX.........XX......XX.........XX",
"XX.........XX......XX.........XX",
"XX.........XX......XX.........XX",
"XX.........XX......XX.........XX",
"XX.........XX......XX.........XX",
"XX.........XX......XX.........XX",
"XX.........XX......XX.........XX",
"XX.........XX......XX.........XX",
"XX.........XX......XX.........XX",
"XX.........XX......XX.........XX",
"XX.........XX......XX.........XX",
"XX.........XX......XX.........XX",
"XXXXXXXXXXXXX......XXXXXXXXXXXXX",
"XXXXXXXXXXXXX......XXXXXXXXXXXXX",
"......X..................X......",
"......X..................X......",
"......X..................X......",
"......X..................X......",
"......X...X..........X...X......",
"......X..X............X..X......",
"......X.X..............X.X......",
"......XXXXXXXXXXXXXXXXXXXX......",
"......X.X..............X.X......",
"......X..X............X..X......",
"......X...X..........X...X......",
"................................"};
