/* XPM */
static char* space_vert_edge_xpm[] = {
/* width height ncolors cpp [x_hot y_hot] */
"32 32 3 1 0 0",
/* colors */
".	m none	c none",
"X	m #000000	c #000000",
" 	m #ffffff	c #ffffff",
/* pixels */
"......XXXXXXXXXXXXXXXXXXXX......",
"......XXXXXXXXXXXXXXXXXXXX......",
"......XX................XX......",
"......XX................XX......",
"......XX................XX......",
"......XX................XX......",
"......XX................XX......",
"......XX................XX......",
"......XXXXXXXXXXXXXXXXXXXX......",
"......XXXXXXXXXXXXXXXXXXXX......",
"...............X................",
"..............XXX...............",
".............X.X.X..............",
"............X..X..X.............",
"...............X................",
"...............X................",
"...............X................",
"...............X................",
"............X..X..X.............",
".............X.X.X..............",
"..............XXX...............",
"...............X................",
"......XXXXXXXXXXXXXXXXXXXX......",
"......XXXXXXXXXXXXXXXXXXXX......",
"......XX................XX......",
"......XX................XX......",
"......XX................XX......",
"......XX................XX......",
"......XX................XX......",
"......XX................XX......",
"......XXXXXXXXXXXXXXXXXXXX......",
"......XXXXXXXXXXXXXXXXXXXX......"};
