/*
** 	static char sccsid[] = %W% %Y% %D%
** 	StP/Core
** 	Confidential property of Interactive Development Environments, Inc.
** 	Copyright (c) 1992-1993
** 	All rights reserved
*/

#define noname_width 64
#define noname_height 64
static char noname_bits[] = {
 0xff,0xff,0xff,0xff,0xff,0xff,0xff,0xff,0x01,0x00,0x00,0x00,0x00,0x00,0x38,
 0xfc,0x01,0x00,0x00,0x00,0x00,0x00,0x38,0xf8,0x01,0x80,0x01,0x00,0x00,0x00,
 0x38,0x80,0x39,0x40,0x04,0x00,0x00,0x00,0x38,0xf8,0x05,0xe6,0x5f,0x10,0xa3,
 0x18,0x38,0xf8,0x05,0x49,0x44,0x12,0xe4,0x24,0x38,0x80,0x19,0x49,0x44,0x12,
 0x27,0x3c,0x38,0xf8,0x21,0x49,0x44,0x95,0x24,0x04,0x38,0xfc,0x21,0x49,0x84,
 0x88,0x24,0x04,0x38,0xff,0x1d,0x46,0x98,0x08,0x2b,0x38,0x00,0x80,0x01,0x00,
 0x00,0x00,0x00,0x00,0x00,0x80,0x01,0x00,0x00,0x00,0x00,0x00,0x00,0x80,0x1d,
 0x00,0x00,0x00,0x00,0x00,0x00,0x80,0x25,0xc5,0x70,0x0c,0x63,0x00,0x00,0x80,
 0x25,0x27,0x09,0x92,0x10,0x00,0x00,0x80,0x1d,0x21,0x09,0x9e,0x31,0x00,0x00,
 0x80,0x05,0x21,0x09,0x02,0x63,0x00,0x00,0x80,0x05,0x21,0x09,0x02,0x42,0x00,
 0x00,0x80,0x05,0xc1,0x70,0x9c,0x31,0x00,0x00,0x80,0x01,0x00,0x00,0x00,0x00,
 0x00,0x00,0x80,0x01,0x48,0x00,0x00,0xfc,0xff,0xff,0x87,0x3d,0x08,0x02,0x00,
 0x04,0x00,0x00,0x84,0x05,0x4e,0xcf,0x28,0x04,0x1c,0x01,0x84,0x05,0x49,0x22,
 0x39,0x04,0xc8,0xdd,0x85,0x1d,0x49,0x22,0x09,0x04,0x48,0x1d,0x85,0x05,0x49,
 0x22,0x09,0x04,0x48,0xc5,0x85,0x05,0x4d,0x22,0x09,0x04,0xdc,0xdd,0x85,0x3d,
 0x4a,0xcc,0x08,0x04,0x00,0x00,0x84,0x01,0x00,0x00,0x00,0x04,0x00,0x00,0x84,
 0x01,0x00,0x00,0x00,0x04,0x00,0x00,0x84,0x01,0x00,0x00,0x00,0xfc,0xff,0xff,
 0x87,0x01,0x00,0x00,0x00,0x08,0x00,0x00,0x80,0x01,0x00,0x00,0x00,0x08,0x00,
 0x00,0x80,0x19,0x10,0x00,0x01,0x08,0x00,0x00,0x80,0xa9,0x83,0xbb,0x03,0x08,
 0x00,0x00,0x80,0x99,0x93,0x0b,0x01,0x08,0x00,0x00,0x80,0xa9,0x90,0x08,0x01,
 0x08,0x00,0x00,0x80,0xa9,0x93,0x3b,0x01,0x08,0x01,0x00,0x90,0x01,0x18,0x00,
 0x00,0x88,0xba,0xbb,0xbb,0xfd,0xff,0xff,0x07,0x88,0x8a,0xb8,0x92,0x01,0x00,
 0x00,0x00,0x88,0x8b,0x88,0x92,0x01,0x00,0x00,0x00,0x88,0xba,0xbb,0x93,0x01,
 0xc0,0xff,0xff,0x0f,0x00,0x80,0x80,0x01,0x40,0x00,0x00,0x08,0x00,0x80,0x80,
 0x01,0x40,0x00,0x00,0xe8,0xff,0xff,0xff,0x01,0x40,0x00,0x00,0x08,0x00,0x00,
 0x80,0x01,0x40,0x00,0x00,0x08,0x00,0x00,0x80,0xfd,0xff,0xff,0xcf,0xff,0xff,
 0xff,0x9f,0x05,0x00,0x00,0x48,0x00,0x00,0x00,0x90,0x05,0x00,0x00,0x48,0x00,
 0x00,0x00,0x90,0x05,0x00,0x00,0x48,0x00,0x00,0x00,0x90,0x75,0x21,0x10,0x48,
 0x02,0x20,0x00,0x90,0x25,0x07,0x55,0x48,0x55,0x27,0x75,0x97,0x25,0x25,0x37,
 0x48,0x75,0x24,0x65,0x97,0x25,0x25,0x55,0x48,0x57,0x27,0x37,0x91,0x25,0x25,
 0x55,0x48,0x55,0x27,0x74,0x97,0x05,0x00,0x00,0x48,0x00,0x00,0x07,0x90,0x05,
 0x00,0x00,0x48,0x00,0x00,0x00,0x90,0x05,0x00,0x00,0x48,0x00,0x00,0x00,0x90,
 0xfd,0xff,0xff,0xcf,0xff,0xff,0xff,0x9f,0x01,0x00,0x00,0x00,0x00,0x00,0x00,
 0x80,0x01,0x00,0x00,0x00,0x00,0x00,0x00,0x80,0xff,0xff,0xff,0xff,0xff,0xff,
 0xff,0xff};
