/* XPM */
static char* spline_cur_xpm[] = {
/* width height ncolors cpp [x_hot y_hot] */
"32 32 3 1 8 0",
/* colors */
".	m none	c none",
"X	m #000000	c #000000",
" 	m #ffffff	c #ffffff",
/* pixels */
"........X.......................",
".......X X......................",
".......X X .....................",
"......X   X.....................",
"......X   X ....................",
".....X     X....................",
".....X     X ...................",
"....X       X...................",
"....XXXXXXXXX ..................",
".....   X    ...................",
"........X ......................",
".......X .......................",
".......X .......................",
"......X ........................",
"...XXX .........................",
"....  ..........................",
"................................",
"................................",
"................................",
"................................",
"................................",
"................................",
"................................",
"................................",
"................................",
"................................",
"................................",
"................................",
"................................",
"................................",
"................................",
"................................"};
