#define stp.xbm_width 48
#define stp.xbm_height 48
static unsigned char stp.xbm_bits[] = {
   0x00, 0x00, 0x00, 0x00, 0xf0, 0xff, 0x00, 0x80, 0x02, 0x00, 0xf0, 0xff,
   0x00, 0x40, 0x05, 0x00, 0xf0, 0xf5, 0x00, 0xa0, 0x0a, 0x00, 0x70, 0xea,
   0x00, 0xd0, 0x17, 0x00, 0xf0, 0xdf, 0x00, 0x28, 0x2e, 0x00, 0xf0, 0xff,
   0x00, 0x14, 0x5c, 0x05, 0x10, 0xb0, 0x00, 0x0a, 0xb8, 0x0a, 0x00, 0xee,
   0x00, 0x05, 0xf0, 0x17, 0x00, 0xff, 0x80, 0x02, 0x00, 0x2c, 0x80, 0xff,
   0x40, 0x01, 0x00, 0x58, 0xc0, 0xff, 0xa0, 0x00, 0x00, 0xb0, 0xc0, 0xff,
   0xd0, 0x00, 0x00, 0x60, 0x01, 0x00, 0xa0, 0x01, 0x00, 0xe0, 0x00, 0x00,
   0x50, 0x03, 0x00, 0x60, 0x01, 0x00, 0xa0, 0x06, 0x00, 0xe0, 0x00, 0x00,
   0x40, 0x0d, 0x00, 0x60, 0x01, 0x00, 0x80, 0x1a, 0x00, 0xe0, 0x00, 0x00,
   0x00, 0x35, 0x00, 0x70, 0x01, 0x00, 0x00, 0x6a, 0x00, 0xb8, 0x00, 0x00,
   0x00, 0xd5, 0x00, 0x5c, 0x00, 0x00, 0x80, 0xaa, 0x1f, 0x2e, 0x00, 0x00,
   0x00, 0x57, 0x31, 0x17, 0x00, 0x00, 0x80, 0xae, 0xe0, 0x2b, 0x00, 0x00,
   0x00, 0x5b, 0xc0, 0x55, 0x00, 0x00, 0x80, 0x32, 0x80, 0xbf, 0x00, 0x00,
   0x00, 0x23, 0x00, 0x60, 0x01, 0x00, 0x80, 0x42, 0x00, 0xc0, 0x02, 0x00,
   0x00, 0x83, 0x00, 0x80, 0x05, 0x00, 0x80, 0x02, 0x01, 0x00, 0x0b, 0x00,
   0x00, 0x03, 0x02, 0x00, 0x07, 0x00, 0x80, 0x02, 0x04, 0x00, 0x0b, 0x00,
   0x00, 0x05, 0x08, 0x00, 0x07, 0x00, 0x00, 0x0a, 0x10, 0x00, 0x0b, 0x00,
   0x00, 0x14, 0x20, 0x00, 0x07, 0x00, 0x00, 0x28, 0x40, 0x80, 0x0b, 0x00,
   0x00, 0x50, 0x40, 0xc0, 0x05, 0x00, 0x00, 0xa0, 0x40, 0xe0, 0x02, 0x00,
   0x00, 0x40, 0x41, 0x70, 0x01, 0x00, 0x00, 0x80, 0x42, 0xb8, 0x00, 0x00,
   0x00, 0x00, 0x45, 0x5c, 0x00, 0x00, 0x00, 0x00, 0x4a, 0x2e, 0x00, 0x00,
   0x00, 0x00, 0x54, 0x17, 0x00, 0x00, 0x00, 0x00, 0xe8, 0x0b, 0x00, 0x00,
   0x00, 0x00, 0x50, 0x05, 0x00, 0x00, 0x00, 0x00, 0xa0, 0x02, 0x00, 0x00,
   0x00, 0x00, 0x40, 0x01, 0x00, 0x00, 0x00, 0x00, 0x00, 0x00, 0x00, 0x00};
