#define stp2.xbm_width 64
#define stp2.xbm_height 64
static unsigned char stp2.xbm_bits[] = {
   0xff, 0xff, 0xff, 0xff, 0xff, 0xff, 0xff, 0xff, 0x01, 0x00, 0x00, 0x00,
   0x00, 0x00, 0xfc, 0xff, 0x01, 0x00, 0x00, 0x00, 0x00, 0x00, 0x7c, 0xfd,
   0x01, 0x00, 0x00, 0x00, 0x00, 0x00, 0xdc, 0xf7, 0x01, 0x00, 0x00, 0x00,
   0x00, 0x00, 0xfc, 0xff, 0x01, 0x00, 0x00, 0x00, 0x00, 0x00, 0x04, 0xee,
   0x01, 0x00, 0x00, 0x00, 0x00, 0x00, 0xc0, 0xfd, 0x01, 0x00, 0x00, 0x00,
   0x00, 0x00, 0xe0, 0xdf, 0x01, 0x00, 0x00, 0x00, 0x00, 0x00, 0xf0, 0xff,
   0x01, 0x41, 0x00, 0x00, 0x00, 0x00, 0xf0, 0xff, 0x01, 0x04, 0x00, 0x00,
   0x00, 0x00, 0x00, 0x80, 0x01, 0x40, 0x00, 0x00, 0x00, 0x00, 0x00, 0x80,
   0x01, 0x24, 0x00, 0x00, 0x00, 0x00, 0x00, 0x80, 0x01, 0x08, 0x00, 0xe0,
   0x1f, 0x00, 0x00, 0x80, 0x01, 0x00, 0x00, 0x20, 0xe0, 0xff, 0x07, 0x80,
   0x01, 0xfc, 0x01, 0x30, 0x1f, 0x00, 0xf8, 0x87, 0x01, 0xfe, 0x01, 0x90,
   0x31, 0x06, 0x00, 0x8e, 0xc1, 0x7a, 0x03, 0x90, 0x01, 0x86, 0x1f, 0x8a,
   0xe1, 0xab, 0x03, 0x08, 0x9f, 0x9f, 0x31, 0x8e, 0x61, 0x57, 0x03, 0x0c,
   0x30, 0x86, 0x31, 0x8a, 0x61, 0xaa, 0x03, 0x84, 0x31, 0x86, 0x1f, 0x9d,
   0x61, 0x56, 0x03, 0x02, 0x1f, 0x86, 0x01, 0x9b, 0xc1, 0xab, 0x03, 0x02,
   0x00, 0x9c, 0x01, 0x9d, 0xc1, 0x57, 0x03, 0xfe, 0x1f, 0x80, 0x81, 0xbb,
   0x01, 0xab, 0x0f, 0xfe, 0xff, 0x3f, 0x80, 0xfe, 0x01, 0xfe, 0x1f, 0x00,
   0xe0, 0xff, 0xbf, 0xff, 0x01, 0xf8, 0x07, 0x00, 0x00, 0xc0, 0xff, 0x9f,
   0x01, 0x00, 0x00, 0x00, 0x00, 0x00, 0xc0, 0x87, 0x01, 0x00, 0x00, 0x00,
   0x00, 0x00, 0x00, 0x80, 0x01, 0xf8, 0xff, 0xff, 0xff, 0xff, 0x1f, 0x80,
   0x01, 0x08, 0x4c, 0x08, 0x21, 0x34, 0x10, 0x80, 0x01, 0x08, 0x02, 0x21,
   0x86, 0x40, 0x10, 0x80, 0x01, 0x8c, 0x23, 0x84, 0x1d, 0xd2, 0x31, 0x80,
   0x01, 0xc4, 0x84, 0x70, 0x4c, 0x08, 0x23, 0x80, 0x01, 0xa4, 0x10, 0x1a,
   0x18, 0x21, 0x25, 0x80, 0x01, 0x3c, 0x42, 0x06, 0x30, 0x84, 0x3c, 0x80,
   0x01, 0x44, 0x87, 0x01, 0xa0, 0x10, 0x22, 0x80, 0x01, 0x0c, 0x67, 0x00,
   0x60, 0x42, 0x30, 0x80, 0x01, 0xa2, 0x1f, 0x00, 0x43, 0x08, 0x49, 0x80,
   0x01, 0x06, 0x13, 0x80, 0xc0, 0x20, 0x64, 0x80, 0x01, 0x92, 0x13, 0x70,
   0x80, 0x85, 0x50, 0x80, 0x01, 0x43, 0x2b, 0x0c, 0x06, 0x11, 0xc2, 0x80,
   0x01, 0x89, 0x63, 0x00, 0x01, 0x43, 0x88, 0x80, 0x01, 0xa1, 0x45, 0xe0,
   0x00, 0x06, 0xa1, 0x80, 0x01, 0x85, 0x91, 0x18, 0x00, 0x24, 0x84, 0x80,
   0x81, 0x90, 0x43, 0x01, 0x00, 0x8c, 0x10, 0x81, 0x81, 0xc2, 0x08, 0x01,
   0x00, 0x18, 0x42, 0x81, 0x81, 0xc8, 0x21, 0x02, 0x00, 0x58, 0x08, 0x81,
   0x41, 0xe2, 0x84, 0x02, 0x00, 0x18, 0x21, 0x82, 0xc1, 0xc4, 0x10, 0x06,
   0x00, 0x2e, 0x04, 0x83, 0xc1, 0x50, 0x42, 0x08, 0xc0, 0x87, 0x50, 0x83,
   0xc1, 0x42, 0x08, 0x09, 0xf8, 0x10, 0x02, 0x83, 0xc1, 0x09, 0x21, 0x14,
   0x1e, 0x42, 0xa0, 0x83, 0x21, 0x23, 0x84, 0x90, 0x47, 0x08, 0xc9, 0x84,
   0x21, 0x86, 0x10, 0xe2, 0x09, 0x21, 0x60, 0x84, 0x31, 0x0c, 0x42, 0x08,
   0x20, 0x84, 0x32, 0x8c, 0x11, 0xbc, 0x08, 0x21, 0x84, 0x10, 0x3c, 0x88,
   0xf1, 0xff, 0xff, 0xff, 0xff, 0xff, 0xff, 0x8f, 0xf1, 0xff, 0xff, 0xff,
   0xff, 0xff, 0xff, 0x8f, 0x01, 0x00, 0x00, 0x00, 0x00, 0x00, 0x00, 0x80,
   0x01, 0x00, 0x00, 0x00, 0x00, 0x00, 0x00, 0x80, 0x01, 0x00, 0x00, 0x00,
   0x00, 0x00, 0x00, 0x80, 0x01, 0x00, 0x00, 0x00, 0x00, 0x00, 0x00, 0x80,
   0xff, 0xff, 0xff, 0xff, 0xff, 0xff, 0xff, 0xff};
