/* XPM */
static char *aonix_arcs15[] = {
/* width height num_colors chars_per_pixel */
"    15    13        8            1",
/* colors */
". c #ffffff",
"# c #e7e7e7",
"a c #bdbdbd",
"b c #525a63",
"c c #080818",
"d c #3931b5",
"e c #18105a",
"f c #000000",
/* pixels */
"ffffffcccffffff",
"fffcedddddeffff",
"ffedddddddddcff",
"cedddddddddddef",
"edeeccceddddddc",
"efffcccffedddde",
"eaa#..#abcedddd",
"....#bbbbbfeddd",
"...#cffffcffddd",
"..#cffffffffedd",
"..bfffffffffedd",
".#cfffffffffede",
".#cfffffffffedc"
};
