/* XPM */
static char *sys_admin_32[] = {
/* width height ncolors chars_per_pixel */
"32 32 7 1",
/* colors */
"` c #000000",
"a c #2A1FAA",
"b c #2A7FFF",
"c c #808080",
"d c #2A1FFF",
"e c #FFFFFF",
"f c #FFFF00",
/* pixels */
"eeeeeeeeeeeeeeeeeeeeeeeeeeeeeeee",
"eeee`````cceeeeeeeeeeeeeeeeeeeee",
"eeeee`fff`cceeeeeeeeeeeeeeeeeeee",
"eeeeee`fff`cceeeeeeeeeeeeeeeeeee",
"e`cceee`fff`cceeeeeeeeeeeeeeeeee",
"e``cceee`ff`cceeeeeeeeeeeeeeeeee",
"e`f`cce`fff`cceeeeeeeeeeeeeeeeee",
"e`ff`c`ffff`cceeeeeeeeeeeeeeeeee",
"e`fff`fffff`cceeeeeeeeeeeeeeeeee",
"ee`fffffffff`cceeeeeeeeeeeeeeeee",
"eee`fffffffff`cceeeeeeeeeeeeeeee",
"eeee`````fffff`cceeeeeeeeeeeeeee",
"eeeeeeeee`fffff`cceeeeeeeeeeeeee",
"eeeeeeeeee`fffff`cceeeeeeeeeeeee",
"eeeeeeeeeee`fffff`cceeeeeeeeeeee",
"eeeeeeeeeeee`f``ff`cceeeeeeeeeee",
"eeeeeeeeeeee``b``ff`cceeeeeeeeee",
"eeeeeeeeeee`bb`dd`ff`cceeeeeeeee",
"eeeeeeeeee`bbb`ddd`ff`cceeeeeeee",
"eeeeeeeee`bbb`ddddd`ff`cceeeeeee",
"eeeeeeee`bbb`dddddd`fff`cceeeeee",
"eeeeeeee`bb`dddddd`fffff`cceeeee",
"eeeeeee`b``daddddd``fffff`cceeee",
"eeeeeee``adadadad`ee`fffff`cceee",
"eeeeeeee`aadadad`eeee`ffff`cceee",
"eeeeeeeee`aadad`eeeeee`fff`cceee",
"eeeeeeeeee`aa``eeeeeeee```cceeee",
"eeeeeeeeeee``eeeeeeeeeeeeeeeeeee",
"eeeeeeeeeeeeeeeeeeeeeeeeeeeeeeee",
"eeeeeeeeeeeeeeeeeeeeeeeeeeeeeeee",
"eeeeeeeeeeeeeeeeeeeeeeeeeeeeeeee",
"eeeeeeeeeeeeeeeeeeeeeeeeeeeeeeee"
};
