#define sys_admin_32.xbm_width 32
#define sys_admin_32.xbm_height 32
static unsigned char sys_admin_32.xbm_bits[] = {
   0x00, 0x00, 0x00, 0x00, 0xf0, 0x07, 0x00, 0x00, 0x20, 0x0a, 0x00, 0x00,
   0x40, 0x14, 0x00, 0x00, 0x8e, 0x28, 0x00, 0x00, 0x16, 0x29, 0x00, 0x00,
   0xaa, 0x28, 0x00, 0x00, 0x52, 0x28, 0x00, 0x00, 0x22, 0x28, 0x00, 0x00,
   0x04, 0x50, 0x00, 0x00, 0x08, 0xa0, 0x00, 0x00, 0xf0, 0x41, 0x01, 0x00,
   0x00, 0x82, 0x02, 0x00, 0x00, 0x04, 0x05, 0x00, 0x00, 0x08, 0x0a, 0x00,
   0x00, 0xd0, 0x14, 0x00, 0x00, 0xb0, 0x29, 0x00, 0x00, 0x48, 0x52, 0x00,
   0x00, 0x44, 0xa4, 0x00, 0x00, 0x22, 0x48, 0x01, 0x00, 0x11, 0x88, 0x02,
   0x00, 0x09, 0x04, 0x05, 0x80, 0x06, 0x0c, 0x0a, 0x80, 0x01, 0x12, 0x14,
   0x00, 0x01, 0x21, 0x14, 0x00, 0x82, 0x40, 0x14, 0x00, 0x64, 0x80, 0x0f,
   0x00, 0x18, 0x00, 0x00, 0x00, 0x00, 0x00, 0x00, 0x00, 0x00, 0x00, 0x00,
   0x00, 0x00, 0x00, 0x00, 0x00, 0x00, 0x00, 0x00};
