#define tbr.xbm_width 48
#define tbr.xbm_height 48
static unsigned char tbr.xbm_bits[] = {
   0x00, 0x00, 0x00, 0x00, 0x00, 0x00, 0x00, 0x00, 0x00, 0x00, 0x00, 0x00,
   0x00, 0x00, 0x00, 0x00, 0x00, 0x00, 0x00, 0x80, 0x01, 0x00, 0x00, 0x00,
   0x00, 0x40, 0x02, 0x00, 0x00, 0x00, 0x00, 0x40, 0x02, 0x00, 0x00, 0x00,
   0x00, 0x20, 0x04, 0x00, 0x00, 0x00, 0x00, 0x20, 0x04, 0x00, 0x00, 0x00,
   0x00, 0x20, 0x06, 0x00, 0x00, 0x00, 0x00, 0x20, 0x07, 0x00, 0x00, 0x00,
   0x00, 0xa6, 0x07, 0x00, 0x00, 0x00, 0x00, 0xa9, 0x07, 0x00, 0x00, 0x00,
   0x00, 0xc9, 0x03, 0x00, 0x00, 0x00, 0x80, 0xd0, 0x03, 0x00, 0x00, 0x00,
   0x80, 0x90, 0x01, 0x00, 0x00, 0x00, 0x80, 0x18, 0x00, 0x00, 0x00, 0x00,
   0x80, 0x1c, 0x00, 0x00, 0x00, 0x00, 0x80, 0x1e, 0x02, 0x00, 0x00, 0x00,
   0x80, 0x1e, 0x00, 0x00, 0x00, 0x00, 0x00, 0x0f, 0x08, 0x00, 0x0e, 0x00,
   0x00, 0x0f, 0x00, 0x80, 0x19, 0x00, 0x00, 0x06, 0x20, 0x60, 0x28, 0x00,
   0x00, 0x00, 0x00, 0x10, 0x44, 0x00, 0x00, 0x00, 0x80, 0x08, 0x84, 0x00,
   0x00, 0x00, 0x00, 0x04, 0x02, 0x01, 0x00, 0x00, 0x00, 0x12, 0x02, 0x02,
   0x00, 0x00, 0x00, 0x19, 0x01, 0x04, 0x00, 0x00, 0x80, 0x9c, 0x00, 0x08,
   0x00, 0x00, 0x40, 0x5e, 0x00, 0x08, 0x00, 0x00, 0x20, 0x20, 0x00, 0x08,
   0x00, 0x00, 0x20, 0x10, 0x00, 0x04, 0x00, 0x00, 0x10, 0x08, 0x00, 0x04,
   0x00, 0x00, 0x10, 0x04, 0x00, 0x02, 0x00, 0x00, 0x08, 0x03, 0x00, 0x02,
   0x00, 0x00, 0xc8, 0x00, 0x00, 0x01, 0x00, 0x00, 0x38, 0x00, 0x80, 0x00,
   0x00, 0x00, 0x10, 0x00, 0x40, 0x00, 0x00, 0x00, 0x20, 0x00, 0x20, 0x00,
   0x00, 0x00, 0x40, 0x00, 0x10, 0x00, 0x00, 0x00, 0x80, 0x00, 0x08, 0x00,
   0x00, 0x00, 0x00, 0x01, 0x04, 0x00, 0x00, 0x00, 0x00, 0x02, 0x03, 0x00,
   0x00, 0x00, 0x00, 0xc4, 0x00, 0x00, 0x00, 0x00, 0x00, 0x38, 0x00, 0x00,
   0x00, 0x00, 0x00, 0x00, 0x00, 0x00, 0x00, 0x00, 0x00, 0x00, 0x00, 0x00,
   0x00, 0x00, 0x00, 0x00, 0x00, 0x00, 0x00, 0x00, 0x00, 0x00, 0x00, 0x00};
