#define up_arrow_bm.xbm_width 14
#define up_arrow_bm.xbm_height 12
static unsigned char up_arrow_bm.xbm_bits[] = {
    0xc0, 0x00, 0xe0, 0x01, 0xf0, 0x03, 0xf8, 0x07, 0xfc, 0x0f, 0xfe, 0x1f,
    0xe0, 0x01, 0xe0, 0x01, 0xe0, 0x01, 0xe0, 0x01, 0xe0, 0x01, 0xe0, 0x01};
 

