/* XPM */
static char* zoom_out_xpm[] = {
/* width height ncolors cpp [x_hot y_hot] */
"16 16 5 1 0 0",
/* colors */
".	m none	c none",
"X	m #000000	c #000000",
" 	m #ffffff	c #ffffff",
"O	m #000000	c #808080",
"o	m #ffffff	c #c0c0c0",
/* pixels */
"...OXXXXO.......",
"..XXooooXX......",
".XO   oooOX.....",
"OX  ooooooXO....",
"Xo ooooooooX....",
"Xo XXXXXXooX....",
"XooXXXXXXooX....",
"Xoooooooo oX....",
"OXoooooo oXO....",
".XOoooo oOX.....",
"..XXooooXXXX....",
"...OXXXXO.XXX...",
"...........XXX..",
"............XXX.",
".............XX.",
"................"};
