<?xml version="1.0" encoding="UTF-8"?>

<!DOCTYPE svg PUBLIC '-//W3C//DTD SVG 1.0//EN' 'http://www.w3.org/TR/2001/REC-SVG-20010904/DTD/svg10.dtd'>
<svg stroke-width="1" stroke-dashoffset="0" font-size="12" stroke-dasharray="none" color-rendering="auto" font-weight="normal" color-interpolation="auto" stroke-linejoin="miter" fill="black" image-rendering="auto" font-family="&apos;sansserif&apos;" stroke-opacity="1" stroke-miterlimit="10" stroke="black" text-rendering="auto" font-style="normal" stroke-linecap="square" fill-opacity="1" shape-rendering="auto" xmlns="http://www.w3.org/2000/svg" xmlns:xlink="http://www.w3.org/1999/xlink">
  <!--Generated by the Batik Graphics2D SVG Generator-->
  <defs id="genericDefs" />
  <g>
    <defs id="defs1">
      <clipPath clipPathUnits="userSpaceOnUse" id="clipPath1">
        <path d="M160 -10 L160 340 L700 340 L700 -10 Z" />
      </clipPath>
      <clipPath clipPathUnits="userSpaceOnUse" id="clipPath2">
        <path d="M-60 -10 L-60 340 L480 340 L480 -10 Z" />
      </clipPath>
      <clipPath clipPathUnits="userSpaceOnUse" id="clipPath3">
        <path d="M-32.330101013183594 -30 L-32.330101013183594 320 L507.6698913574219 320 L507.6698913574219 -30 Z" />
      </clipPath>
      <clipPath clipPathUnits="userSpaceOnUse" id="clipPath4">
        <path d="M-10 -90 L-10 260 L530 260 L530 -90 Z" />
      </clipPath>
      <clipPath clipPathUnits="userSpaceOnUse" id="clipPath5">
        <path d="M-33.47959899902344 -99 L-33.47959899902344 251 L506.5203857421875 251 L506.5203857421875 -99 Z" />
      </clipPath>
      <clipPath clipPathUnits="userSpaceOnUse" id="clipPath6">
        <path d="M90 -67.5 L-260 -67.5 L-260 472.5 L90 472.5 Z" />
      </clipPath>
      <clipPath clipPathUnits="userSpaceOnUse" id="clipPath7">
        <path d="M-230 -90 L-230 260 L310 260 L310 -90 Z" />
      </clipPath>
      <clipPath clipPathUnits="userSpaceOnUse" id="clipPath8">
        <path d="M-281.24169921875 -99 L-281.24169921875 251 L258.75830078125 251 L258.75830078125 -99 Z" />
      </clipPath>
      <clipPath clipPathUnits="userSpaceOnUse" id="clipPath9">
        <path d="M230 110 L230 -240 L-310 -240 L-310 110 Z" />
      </clipPath>
      <clipPath clipPathUnits="userSpaceOnUse" id="clipPath10">
        <path d="M-156.02639770507812 -115 L-156.02639770507812 235 L383.9736022949219 235 L383.9736022949219 -115 Z" />
      </clipPath>
      <clipPath clipPathUnits="userSpaceOnUse" id="clipPath11">
        <path d="M-60 -280 L-60 70 L480 70 L480 -280 Z" />
      </clipPath>
      <clipPath clipPathUnits="userSpaceOnUse" id="clipPath12">
        <path d="M-38.8046989440918 -305 L-38.8046989440918 45 L501.1953125 45 L501.1953125 -305 Z" />
      </clipPath>
      <clipPath clipPathUnits="userSpaceOnUse" id="clipPath13">
        <path d="M280 -70 L-70 -70 L-70 470 L280 470 Z" />
      </clipPath>
      <clipPath clipPathUnits="userSpaceOnUse" id="clipPath14">
        <path d="M146.28662109375 -254.11514282226562 L-101.90335083007812 -7.332382678985596 L278.8471984863281 375.58929443359375 L527.0371704101562 128.80653381347656 Z" />
      </clipPath>
      <clipPath clipPathUnits="userSpaceOnUse" id="clipPath15">
        <path d="M-47.361328125 -319 L-47.361328125 31 L492.638671875 31 L492.638671875 -319 Z" />
      </clipPath>
    </defs>
    <g color-rendering="optimizeQuality" color-interpolation="linearRGB" text-rendering="geometricPrecision" stroke="white" fill="white" shape-rendering="crispEdges" image-rendering="optimizeQuality" transform="matrix(1,0,0,1,-160,10)">
      <rect x="160" y="-10" width="540" height="350" stroke="none" clip-path="url(#clipPath1)" />
      <circle cx="7.5" cy="7.5" r="7.5" stroke="none" clip-path="url(#clipPath2)" fill="black" transform="matrix(1,0,0,1,220,0)" />
    </g>
    <g color-rendering="optimizeQuality" stroke-miterlimit="1" color-interpolation="linearRGB" text-rendering="geometricPrecision" stroke-linecap="butt" shape-rendering="crispEdges" image-rendering="optimizeQuality" transform="matrix(1,0,0,1,60,10)">
      <circle cx="7.5" cy="7.5" r="7.5" clip-path="url(#clipPath2)" fill="none" />
    </g>
    <g font-family="sans-serif" font-size="11" color-rendering="optimizeQuality" color-interpolation="linearRGB" text-rendering="geometricPrecision" shape-rendering="crispEdges" image-rendering="optimizeQuality" transform="matrix(1,0,0,1,32.3301,30)">
      <text x="0" y="11" xml:space="preserve" stroke="none" clip-path="url(#clipPath3)">estado inicial</text>
    </g>
    <g font-family="sans-serif" font-size="11" color-rendering="optimizeQuality" color-interpolation="linearRGB" text-rendering="geometricPrecision" stroke="white" fill="white" shape-rendering="crispEdges" image-rendering="optimizeQuality" transform="matrix(1,0,0,1,10,90)">
      <rect x="0" y="0" width="133.0148" height="40" rx="10" ry="20" stroke="none" clip-path="url(#clipPath4)" />
    </g>
    <g font-family="sans-serif" font-size="11" color-rendering="optimizeQuality" stroke-miterlimit="1" color-interpolation="linearRGB" text-rendering="geometricPrecision" stroke-linecap="butt" shape-rendering="crispEdges" image-rendering="optimizeQuality" transform="matrix(1,0,0,1,10,90)">
      <rect x="0" y="0" width="133.0148" height="40" rx="10" ry="20" clip-path="url(#clipPath4)" fill="none" />
      <text x="0" y="11" xml:space="preserve" stroke-miterlimit="10" stroke="none" clip-path="url(#clipPath5)" stroke-linecap="square" transform="matrix(1,0,0,1,23.4796,9)">Revisar Estantes</text>
    </g>
    <g font-family="sans-serif" font-size="11" color-rendering="optimizeQuality" stroke-miterlimit="1" color-interpolation="linearRGB" text-rendering="geometricPrecision" stroke-linecap="butt" shape-rendering="crispEdges" image-rendering="optimizeQuality" transform="matrix(1,0,0,1,-160,10)">
      <path d="M227.5 37 L227.5 80" clip-path="url(#clipPath1)" fill="none" />
      <path d="M10 5 L0 0 L10 -5" stroke-miterlimit="10" clip-path="url(#clipPath6)" fill="none" stroke-linecap="square" transform="matrix(-1.7208456881689926E-15,-1,1,-1.7208456881689926E-15,227.5,80)" />
    </g>
    <g font-family="sans-serif" font-size="11" color-rendering="optimizeQuality" color-interpolation="linearRGB" text-rendering="geometricPrecision" stroke="white" fill="white" shape-rendering="crispEdges" image-rendering="optimizeQuality" transform="matrix(1,0,0,1,230,90)">
      <rect x="0" y="0" width="300" height="40" rx="22.5" ry="20" stroke="none" clip-path="url(#clipPath7)" />
    </g>
    <g font-family="sans-serif" font-size="11" color-rendering="optimizeQuality" stroke-miterlimit="1" color-interpolation="linearRGB" text-rendering="geometricPrecision" stroke-linecap="butt" shape-rendering="crispEdges" image-rendering="optimizeQuality" transform="matrix(1,0,0,1,230,90)">
      <rect x="0" y="0" width="300" height="40" rx="22.5" ry="20" clip-path="url(#clipPath7)" fill="none" />
      <text x="0" y="11" xml:space="preserve" stroke-miterlimit="10" stroke="none" clip-path="url(#clipPath8)" stroke-linecap="square" transform="matrix(1,0,0,1,51.2417,9)">Incluir articulo en la compra semanal</text>
    </g>
    <g font-family="sans-serif" font-size="11" color-rendering="optimizeQuality" stroke-miterlimit="1" color-interpolation="linearRGB" text-rendering="geometricPrecision" stroke-linecap="butt" shape-rendering="crispEdges" image-rendering="optimizeQuality" transform="matrix(1,0,0,1,-160,10)">
      <path d="M303.0148010253906 100 L390 100" clip-path="url(#clipPath1)" fill="none" />
      <path d="M10 5 L0 0 L10 -5" stroke-miterlimit="10" clip-path="url(#clipPath9)" fill="none" stroke-linecap="square" transform="matrix(-1,-1.6653345369377348E-16,1.6653345369377348E-16,-1,390,100)" />
    </g>
    <g font-family="sans-serif" font-size="11" color-rendering="optimizeQuality" color-interpolation="linearRGB" text-rendering="geometricPrecision" shape-rendering="crispEdges" image-rendering="optimizeQuality" transform="matrix(1,0,0,1,156.02640000000002,115)">
      <text x="0" y="11" xml:space="preserve" stroke="none" clip-path="url(#clipPath10)">[hay pocos]</text>
    </g>
    <g font-family="sans-serif" font-size="11" color-rendering="optimizeQuality" color-interpolation="linearRGB" text-rendering="geometricPrecision" stroke="white" fill="white" shape-rendering="crispEdges" image-rendering="optimizeQuality" transform="matrix(1,0,0,1,60,280)">
      <circle cx="10" cy="10" r="10" stroke="none" clip-path="url(#clipPath11)" />
    </g>
    <g font-family="sans-serif" font-size="11" color-rendering="optimizeQuality" stroke-miterlimit="1" color-interpolation="linearRGB" text-rendering="geometricPrecision" stroke-linecap="butt" shape-rendering="crispEdges" image-rendering="optimizeQuality" transform="matrix(1,0,0,1,60,280)">
      <circle cx="10" cy="10" r="10" clip-path="url(#clipPath11)" fill="none" />
      <circle cx="10.5" cy="10.5" r="7.5" stroke-miterlimit="10" stroke="none" clip-path="url(#clipPath11)" stroke-linecap="square" />
      <text x="0" y="11" xml:space="preserve" stroke-miterlimit="10" stroke="none" clip-path="url(#clipPath12)" stroke-linecap="square" transform="matrix(1,0,0,1,-21.1953,25)">estado final</text>
    </g>
    <g font-family="sans-serif" font-size="11" color-rendering="optimizeQuality" stroke-miterlimit="1" color-interpolation="linearRGB" text-rendering="geometricPrecision" stroke-linecap="butt" shape-rendering="crispEdges" image-rendering="optimizeQuality" transform="matrix(1,0,0,1,-160,10)">
      <path d="M230 120 L230 270" clip-path="url(#clipPath1)" fill="none" />
      <path d="M10 5 L0 0 L10 -5" stroke-miterlimit="10" clip-path="url(#clipPath13)" fill="none" stroke-linecap="square" transform="matrix(3.357514859025749E-11,-1,1,3.357514859025749E-11,230,270)" />
    </g>
    <g font-family="sans-serif" font-size="11" color-rendering="optimizeQuality" stroke-miterlimit="1" color-interpolation="linearRGB" text-rendering="geometricPrecision" stroke-linecap="butt" shape-rendering="crispEdges" image-rendering="optimizeQuality" transform="matrix(1,0,0,1,-160,10)">
      <path d="M395.7255859375 113.32939910888672 L237.0509033203125 272.9089050292969" clip-path="url(#clipPath1)" fill="none" />
      <path d="M10 5 L0 0 L10 -5" stroke-miterlimit="10" clip-path="url(#clipPath14)" fill="none" stroke-linecap="square" transform="matrix(0.7050936197275005,-0.7091142273425144,0.7091142273425144,0.7050936197275005,237.0509,272.9089)" />
    </g>
    <g color-rendering="optimizeQuality" color-interpolation="linearRGB" text-rendering="geometricPrecision" shape-rendering="crispEdges" image-rendering="optimizeQuality" transform="matrix(1,0,0,1,47.361328125,319)">
      <text x="0" y="12" xml:space="preserve" stroke="none" clip-path="url(#clipPath15)">Created with Poseidon for UML Community Edition. Not for Commercial Use.</text>
    </g>
  </g>
</svg>
