<?xml version="1.0" encoding="UTF-8"?>

<!DOCTYPE svg PUBLIC '-//W3C//DTD SVG 1.0//EN' 'http://www.w3.org/TR/2001/REC-SVG-20010904/DTD/svg10.dtd'>
<svg stroke-width="1" stroke-dashoffset="0" font-size="12" stroke-dasharray="none" color-rendering="auto" font-weight="normal" color-interpolation="auto" stroke-linejoin="miter" fill="black" image-rendering="auto" font-family="&apos;sansserif&apos;" stroke-opacity="1" stroke-miterlimit="10" stroke="black" text-rendering="auto" font-style="normal" stroke-linecap="square" fill-opacity="1" shape-rendering="auto" xmlns="http://www.w3.org/2000/svg" xmlns:xlink="http://www.w3.org/1999/xlink">
  <!--Generated by the Batik Graphics2D SVG Generator-->
  <defs id="genericDefs" />
  <g>
    <defs id="defs1">
      <clipPath clipPathUnits="userSpaceOnUse" id="clipPath1">
        <path d="M230 0 L230 470 L696 470 L696 0 Z" />
      </clipPath>
      <clipPath clipPathUnits="userSpaceOnUse" id="clipPath2">
        <path d="M-80 -10 L-80 460 L386 460 L386 -10 Z" />
      </clipPath>
      <clipPath clipPathUnits="userSpaceOnUse" id="clipPath3">
        <path d="M-52.330101013183594 -30 L-52.330101013183594 440 L413.6698913574219 440 L413.6698913574219 -30 Z" />
      </clipPath>
      <clipPath clipPathUnits="userSpaceOnUse" id="clipPath4">
        <path d="M-10 -100 L-10 370 L456 370 L456 -100 Z" />
      </clipPath>
      <clipPath clipPathUnits="userSpaceOnUse" id="clipPath5">
        <path d="M-39.09379959106445 -109 L-39.09379959106445 361 L426.90618896484375 361 L426.90618896484375 -109 Z" />
      </clipPath>
      <clipPath clipPathUnits="userSpaceOnUse" id="clipPath6">
        <path d="M-10 -200 L-10 270 L456 270 L456 -200 Z" />
      </clipPath>
      <clipPath clipPathUnits="userSpaceOnUse" id="clipPath7">
        <path d="M-38.1427001953125 -209 L-38.1427001953125 261 L427.8572998046875 261 L427.8572998046875 -209 Z" />
      </clipPath>
      <clipPath clipPathUnits="userSpaceOnUse" id="clipPath8">
        <path d="M-40 -300 L-40 170 L426 170 L426 -300 Z" />
      </clipPath>
      <clipPath clipPathUnits="userSpaceOnUse" id="clipPath9">
        <path d="M-59.701900482177734 -309 L-59.701900482177734 161 L406.298095703125 161 L406.298095703125 -309 Z" />
      </clipPath>
      <clipPath clipPathUnits="userSpaceOnUse" id="clipPath10">
        <path d="M-80 -400 L-80 70 L386 70 L386 -400 Z" />
      </clipPath>
      <clipPath clipPathUnits="userSpaceOnUse" id="clipPath11">
        <path d="M-55.265098571777344 -425 L-55.265098571777344 45 L410.7348937988281 45 L410.7348937988281 -425 Z" />
      </clipPath>
      <clipPath clipPathUnits="userSpaceOnUse" id="clipPath12">
        <path d="M100 -87.5 L-370 -87.5 L-370 378.5 L100 378.5 Z" />
      </clipPath>
      <clipPath clipPathUnits="userSpaceOnUse" id="clipPath13">
        <path d="M200 -92.42839813232422 L-270 -92.42839813232422 L-270 373.57159423828125 L200 373.57159423828125 Z" />
      </clipPath>
      <clipPath clipPathUnits="userSpaceOnUse" id="clipPath14">
        <path d="M300 -93.6095962524414 L-170 -93.6095962524414 L-170 372.3904113769531 L300 372.3904113769531 Z" />
      </clipPath>
      <clipPath clipPathUnits="userSpaceOnUse" id="clipPath15">
        <path d="M400 -90 L-70 -90 L-70 376 L400 376 Z" />
      </clipPath>
      <clipPath clipPathUnits="userSpaceOnUse" id="clipPath16">
        <path d="M-10 -439 L-10 31 L456 31 L456 -439 Z" />
      </clipPath>
    </defs>
    <g color-rendering="optimizeQuality" color-interpolation="linearRGB" text-rendering="geometricPrecision" stroke="white" fill="white" shape-rendering="crispEdges" image-rendering="optimizeQuality" transform="matrix(1,0,0,1,-230,0)">
      <rect x="230" y="0" width="466" height="470" stroke="none" clip-path="url(#clipPath1)" />
      <circle cx="7.5" cy="7.5" r="7.5" stroke="none" clip-path="url(#clipPath2)" fill="black" transform="matrix(1,0,0,1,310,10)" />
    </g>
    <g color-rendering="optimizeQuality" stroke-miterlimit="1" color-interpolation="linearRGB" text-rendering="geometricPrecision" stroke-linecap="butt" shape-rendering="crispEdges" image-rendering="optimizeQuality" transform="matrix(1,0,0,1,80,10)">
      <circle cx="7.5" cy="7.5" r="7.5" clip-path="url(#clipPath2)" fill="none" />
    </g>
    <g font-family="sans-serif" font-size="11" color-rendering="optimizeQuality" color-interpolation="linearRGB" text-rendering="geometricPrecision" shape-rendering="crispEdges" image-rendering="optimizeQuality" transform="matrix(1,0,0,1,52.3301,30)">
      <text x="0" y="11" xml:space="preserve" stroke="none" clip-path="url(#clipPath3)">estado inicial</text>
    </g>
    <g font-family="sans-serif" font-size="11" color-rendering="optimizeQuality" color-interpolation="linearRGB" text-rendering="geometricPrecision" stroke="white" fill="white" shape-rendering="crispEdges" image-rendering="optimizeQuality" transform="matrix(1,0,0,1,10,100)">
      <rect x="0" y="0" width="171.3512" height="40" rx="12.85134" ry="20" stroke="none" clip-path="url(#clipPath4)" />
    </g>
    <g font-family="sans-serif" font-size="11" color-rendering="optimizeQuality" stroke-miterlimit="1" color-interpolation="linearRGB" text-rendering="geometricPrecision" stroke-linecap="butt" shape-rendering="crispEdges" image-rendering="optimizeQuality" transform="matrix(1,0,0,1,10,100)">
      <rect x="0" y="0" width="171.3512" height="40" rx="12.85134" ry="20" clip-path="url(#clipPath4)" fill="none" />
      <text x="0" y="11" xml:space="preserve" stroke-miterlimit="10" stroke="none" clip-path="url(#clipPath5)" stroke-linecap="square" transform="matrix(1,0,0,1,29.0938,9)">comprar mercaderias</text>
    </g>
    <g font-family="sans-serif" font-size="11" color-rendering="optimizeQuality" color-interpolation="linearRGB" text-rendering="geometricPrecision" stroke="white" fill="white" shape-rendering="crispEdges" image-rendering="optimizeQuality" transform="matrix(1,0,0,1,10,200)">
      <rect x="0" y="0" width="164.8567" height="40" rx="12.3642525" ry="20" stroke="none" clip-path="url(#clipPath6)" />
    </g>
    <g font-family="sans-serif" font-size="11" color-rendering="optimizeQuality" stroke-miterlimit="1" color-interpolation="linearRGB" text-rendering="geometricPrecision" stroke-linecap="butt" shape-rendering="crispEdges" image-rendering="optimizeQuality" transform="matrix(1,0,0,1,10,200)">
      <rect x="0" y="0" width="164.8567" height="40" rx="12.3642525" ry="20" clip-path="url(#clipPath6)" fill="none" />
      <text x="0" y="11" xml:space="preserve" stroke-miterlimit="10" stroke="none" clip-path="url(#clipPath7)" stroke-linecap="square" transform="matrix(1,0,0,1,28.1427,9)">Reponer en Estantes</text>
    </g>
    <g font-family="sans-serif" font-size="11" color-rendering="optimizeQuality" color-interpolation="linearRGB" text-rendering="geometricPrecision" stroke="white" fill="white" shape-rendering="crispEdges" image-rendering="optimizeQuality" transform="matrix(1,0,0,1,40,300)">
      <rect x="0" y="0" width="107.2192" height="40" rx="10" ry="20" stroke="none" clip-path="url(#clipPath8)" />
    </g>
    <g font-family="sans-serif" font-size="11" color-rendering="optimizeQuality" stroke-miterlimit="1" color-interpolation="linearRGB" text-rendering="geometricPrecision" stroke-linecap="butt" shape-rendering="crispEdges" image-rendering="optimizeQuality" transform="matrix(1,0,0,1,40,300)">
      <rect x="0" y="0" width="107.2192" height="40" rx="10" ry="20" clip-path="url(#clipPath8)" fill="none" />
      <text x="0" y="11" xml:space="preserve" stroke-miterlimit="10" stroke="none" clip-path="url(#clipPath9)" stroke-linecap="square" transform="matrix(1,0,0,1,19.7019,9)">Tirar Factura</text>
    </g>
    <g font-family="sans-serif" font-size="11" color-rendering="optimizeQuality" color-interpolation="linearRGB" text-rendering="geometricPrecision" stroke="white" fill="white" shape-rendering="crispEdges" image-rendering="optimizeQuality" transform="matrix(1,0,0,1,80,400)">
      <circle cx="10" cy="10" r="10" stroke="none" clip-path="url(#clipPath10)" />
    </g>
    <g font-family="sans-serif" font-size="11" color-rendering="optimizeQuality" stroke-miterlimit="1" color-interpolation="linearRGB" text-rendering="geometricPrecision" stroke-linecap="butt" shape-rendering="crispEdges" image-rendering="optimizeQuality" transform="matrix(1,0,0,1,80,400)">
      <circle cx="10" cy="10" r="10" clip-path="url(#clipPath10)" fill="none" />
      <circle cx="10.5" cy="10.5" r="7.5" stroke-miterlimit="10" stroke="none" clip-path="url(#clipPath10)" stroke-linecap="square" />
      <text x="0" y="11" xml:space="preserve" stroke-miterlimit="10" stroke="none" clip-path="url(#clipPath11)" stroke-linecap="square" transform="matrix(1,0,0,1,-24.7349,25)">Final_State_2</text>
    </g>
    <g font-family="sans-serif" font-size="11" color-rendering="optimizeQuality" stroke-miterlimit="1" color-interpolation="linearRGB" text-rendering="geometricPrecision" stroke-linecap="butt" shape-rendering="crispEdges" image-rendering="optimizeQuality" transform="matrix(1,0,0,1,-230,0)">
      <path d="M317.5 47 L317.5 100" clip-path="url(#clipPath1)" fill="none" />
      <path d="M10 5 L0 0 L10 -5" stroke-miterlimit="10" clip-path="url(#clipPath12)" fill="none" stroke-linecap="square" transform="matrix(6.2727600891321345E-15,-0.9999999999999999,0.9999999999999999,6.2727600891321345E-15,317.5,100)" />
    </g>
    <g font-family="sans-serif" font-size="11" color-rendering="optimizeQuality" stroke-miterlimit="1" color-interpolation="linearRGB" text-rendering="geometricPrecision" stroke-linecap="butt" shape-rendering="crispEdges" image-rendering="optimizeQuality" transform="matrix(1,0,0,1,-230,0)">
      <path d="M322.42840576171875 140 L322.42840576171875 200" clip-path="url(#clipPath1)" fill="none" />
      <path d="M10 5 L0 0 L10 -5" stroke-miterlimit="10" clip-path="url(#clipPath13)" fill="none" stroke-linecap="square" transform="matrix(-5.2735593669694936E-15,-0.9999999999999999,0.9999999999999999,-5.2735593669694936E-15,322.4284,200)" />
    </g>
    <g font-family="sans-serif" font-size="11" color-rendering="optimizeQuality" stroke-miterlimit="1" color-interpolation="linearRGB" text-rendering="geometricPrecision" stroke-linecap="butt" shape-rendering="crispEdges" image-rendering="optimizeQuality" transform="matrix(1,0,0,1,-230,0)">
      <path d="M323.6095886230469 240 L323.6095886230469 300" clip-path="url(#clipPath1)" fill="none" />
      <path d="M10 5 L0 0 L10 -5" stroke-miterlimit="10" clip-path="url(#clipPath14)" fill="none" stroke-linecap="square" transform="matrix(-2.8421709430404007E-14,-1,1,-2.8421709430404007E-14,323.6096,300)" />
    </g>
    <g font-family="sans-serif" font-size="11" color-rendering="optimizeQuality" stroke-miterlimit="1" color-interpolation="linearRGB" text-rendering="geometricPrecision" stroke-linecap="butt" shape-rendering="crispEdges" image-rendering="optimizeQuality" transform="matrix(1,0,0,1,-230,0)">
      <path d="M320 340 L320 400" clip-path="url(#clipPath1)" fill="none" />
      <path d="M10 5 L0 0 L10 -5" stroke-miterlimit="10" clip-path="url(#clipPath15)" fill="none" stroke-linecap="square" transform="matrix(7.66053886991358E-15,-1.0000000000000002,1.0000000000000002,7.66053886991358E-15,320,400)" />
    </g>
    <g color-rendering="optimizeQuality" color-interpolation="linearRGB" text-rendering="geometricPrecision" shape-rendering="crispEdges" image-rendering="optimizeQuality" transform="matrix(1,0,0,1,10,439)">
      <text x="0" y="12" xml:space="preserve" stroke="none" clip-path="url(#clipPath16)">Created with Poseidon for UML Community Edition. Not for Commercial Use.</text>
    </g>
  </g>
</svg>
